<?xml version="1.0" encoding="utf-8"?>
<!-- Generated by IcoMoon.io -->
<!DOCTYPE svg PUBLIC "-//W3C//DTD SVG 1.1//EN" "http://www.w3.org/Graphics/SVG/1.1/DTD/svg11.dtd">
<svg version="1.1" xmlns="http://www.w3.org/2000/svg" xmlns:xlink="http://www.w3.org/1999/xlink" width="48" height="48" viewBox="0 0 48 48">
	<path d="M48 10.5c0-1.332-0.471-3.317-2.715-5.211-1.333-1.126-3.159-2.107-5.427-2.917-4.282-1.529-9.914-2.371-15.858-2.371s-11.576 0.842-15.858 2.371c-2.268 0.81-4.094 1.791-5.427 2.917-2.244 1.895-2.715 3.88-2.715 5.212h-0.008v27h0.008c0 1.332 0.471 3.317 2.715 5.212 1.333 1.126 3.159 2.107 5.427 2.917 4.282 1.529 9.914 2.371 15.858 2.371s11.576-0.842 15.858-2.371c2.268-0.81 4.094-1.791 5.427-2.917 2.244-1.895 2.715-3.88 2.715-5.212v-27zM10.836 7.792c3.576-1.156 8.25-1.792 13.164-1.792 4.913 0 9.588 0.636 13.164 1.792 3.495 1.13 4.637 2.344 4.82 2.708-0.183 0.364-1.326 1.578-4.82 2.708-3.576 1.156-8.25 1.792-13.164 1.792-4.913 0-9.588-0.636-13.164-1.792-3.495-1.13-4.637-2.344-4.82-2.708 0.183-0.364 1.326-1.578 4.82-2.708zM37.164 40.208c-3.576 1.156-8.25 1.792-13.164 1.792s-9.588-0.636-13.164-1.792c-3.495-1.129-4.637-2.344-4.82-2.708h-0.008v-6.246c0.66 0.31 1.371 0.602 2.134 0.874 4.282 1.529 9.914 2.371 15.858 2.371s11.576-0.842 15.858-2.371c0.759-0.271 1.467-0.562 2.126-0.87v6.242c-0.183 0.364-1.325 1.579-4.82 2.708zM37.164 26.708c-3.576 1.156-8.25 1.792-13.164 1.792s-9.588-0.636-13.164-1.792c-3.495-1.13-4.637-2.344-4.82-2.708h-0.008v-6.246c0.66 0.31 1.371 0.602 2.134 0.874 4.282 1.529 9.914 2.371 15.858 2.371s11.576-0.842 15.858-2.371c0.759-0.271 1.467-0.562 2.126-0.87v6.242c-0.183 0.364-1.325 1.578-4.82 2.708z" fill="#ffff00" />
</svg>
