<?xml version="1.0" encoding="utf-8"?>
<!-- Generated by IcoMoon.io -->
<!DOCTYPE svg PUBLIC "-//W3C//DTD SVG 1.1//EN" "http://www.w3.org/Graphics/SVG/1.1/DTD/svg11.dtd">
<svg version="1.1" xmlns="http://www.w3.org/2000/svg" xmlns:xlink="http://www.w3.org/1999/xlink" width="48" height="48" viewBox="0 0 48 48">
	<path d="M21 37.243l-9.621-11.121 2.743-2.743 6.879 5.379 12.879-11.379 2.743 2.743zM38.989 6c0.004 0.003 0.008 0.007 0.011 0.011v35.979c-0.003 0.004-0.007 0.008-0.011 0.011h-29.979c-0.004-0.003-0.008-0.007-0.011-0.011v-35.979c0.003-0.004 0.007-0.008 0.011-0.011h-6.011v36c0 3.3 2.7 6 6 6h30c3.3 0 6-2.7 6-6v-36h-6.011zM30 6v-3c0-1.657-1.343-3-3-3h-6c-1.657 0-3 1.343-3 3v3h-6v6h24v-6h-6zM27 6h-6v-3h6v3z" fill="#ff" />
</svg>
