<?xml version="1.0" encoding="UTF-8" standalone="no"?>
<svg width="502px" height="48px" viewBox="0 0 502 48" version="1.1" xmlns="http://www.w3.org/2000/svg" xmlns:xlink="http://www.w3.org/1999/xlink" xmlns:sketch="http://www.bohemiancoding.com/sketch/ns">
    <title>Slice 1</title>
    <description>Created with Sketch (http://www.bohemiancoding.com/sketch)</description>
    <defs></defs>
    <g id="Page-1" stroke="none" stroke-width="1" fill="none" fill-rule="evenodd" sketch:type="MSPage">
        <g id="sprites" sketch:type="MSLayerGroup" transform="translate(0.000000, -1.000000)" fill="#01134B">
            <g id="Group" sketch:type="MSShapeGroup">
                <path d="M5.683,12.282 L6.328,11.379 L5.621,10.672 L4.718,11.317 C4.55,11.223 4.371,11.149 4.183,11.095 L4,10 L3,10 L2.817,11.095 C2.629,11.148 2.449,11.223 2.282,11.317 L1.379,10.672 L0.672,11.379 L1.317,12.282 C1.223,12.45 1.149,12.629 1.095,12.817 L2.22044605e-16,13 L2.22044605e-16,14 L1.095,14.183 C1.148,14.371 1.223,14.551 1.317,14.718 L0.672,15.621 L1.379,16.328 L2.282,15.683 C2.45,15.777 2.629,15.851 2.817,15.905 L3,17 L4,17 L4.183,15.905 C4.371,15.852 4.551,15.777 4.718,15.683 L5.621,16.328 L6.328,15.621 L5.683,14.718 C5.777,14.55 5.851,14.371 5.905,14.183 L7,14.001 L7,13.001 L5.905,12.818 C5.852,12.63 5.777,12.45 5.683,12.283 C5.683,12.283 5.777,12.45 5.683,12.283 L5.683,12.282 L5.683,12.282 Z M3.5,14.5 C2.948,14.5 2.5,14.052 2.5,13.5 C2.5,12.948 2.948,12.5 3.5,12.5 C4.052,12.5 4.5,12.948 4.5,13.5 C4.5,14.052 4.052,14.5 3.5,14.5 L3.5,14.5 L3.5,14.5 L3.5,14.5 Z M16,7 L16,6 L14.947,5.809 C14.928,5.683 14.903,5.559 14.873,5.437 L15.772,4.857 L15.389,3.933 L14.343,4.159 C14.277,4.051 14.207,3.946 14.132,3.844 L14.741,2.964 L14.034,2.257 L13.154,2.866 C13.052,2.792 12.947,2.721 12.839,2.655 L13.065,1.609 L12.141,1.226 L11.561,2.125 C11.439,2.095 11.315,2.071 11.189,2.051 L10.998,0.998 L9.998,0.998 L9.807,2.051 C9.681,2.07 9.557,2.095 9.435,2.125 L8.855,1.226 L7.931,1.609 L8.157,2.655 C8.049,2.721 7.944,2.791 7.842,2.866 L6.962,2.257 L6.255,2.964 L6.864,3.844 C6.79,3.946 6.719,4.051 6.653,4.159 L5.607,3.933 L5.224,4.857 L6.123,5.437 C6.093,5.559 6.069,5.683 6.049,5.809 L4.996,6 L4.996,7 L6.049,7.191 C6.068,7.317 6.093,7.441 6.123,7.563 L5.224,8.143 L5.607,9.067 L6.653,8.841 C6.719,8.949 6.789,9.054 6.864,9.156 L6.255,10.036 L6.962,10.743 L7.842,10.134 C7.944,10.208 8.049,10.279 8.157,10.345 L7.931,11.391 L8.855,11.774 L9.435,10.875 C9.557,10.905 9.681,10.929 9.807,10.949 L9.998,12.002 L10.998,12.002 L11.189,10.949 C11.315,10.93 11.439,10.905 11.561,10.875 L12.141,11.774 L13.065,11.391 L12.839,10.345 C12.947,10.279 13.052,10.209 13.154,10.134 L14.034,10.743 L14.741,10.036 L14.132,9.156 C14.206,9.054 14.277,8.949 14.343,8.841 L15.389,9.067 L15.772,8.143 L14.873,7.563 C14.903,7.441 14.927,7.317 14.947,7.191 L16,7 L16,7 L16,7 L16,7 Z M10.5,8.675 C9.299,8.675 8.325,7.701 8.325,6.5 C8.325,5.299 9.299,4.325 10.5,4.325 C11.701,4.325 12.675,5.299 12.675,6.5 C12.675,7.701 11.701,8.675 10.5,8.675 L10.5,8.675 L10.5,8.675 L10.5,8.675 Z M10.5,8.675" id="Shape"></path>
            </g>
            <g id="Group" transform="translate(32.000000, 3.000000)" sketch:type="MSShapeGroup">
                <path d="M2,2 L2,12 L16,12 L16,2 L2,2 L2,2 L2,2 L2,2 Z M15,10.333 L13,7 L10.733,8.889 L9,6 L3,11 L3,3 L15,3 L15,10.333 L15,10.333 L15,10.333 L15,10.333 Z M4,5.5 C4,4.672 4.672,4 5.5,4 C6.328,4 7,4.672 7,5.5 C7,6.328 6.328,7 5.5,7 C4.672,7 4,6.328 4,5.5 C4,5.5 4,6.328 4,5.5 L4,5.5 L4,5.5 Z M14,0 L0,0 L0,10 L1,10 L1,1 L14,1 L14,1 L14,0 L14,0 Z M14,0" id="Shape"></path>
            </g>
            <g id="Group" transform="translate(64.000000, 1.000000)" sketch:type="MSShapeGroup">
                <path d="M8,0 C3.582,0 0,3.582 0,8 C0,12.418 3.582,16 8,16 C12.418,16 16,12.418 16,8 C16,3.582 12.418,0 8,0 L8,0 L8,0 L8,0 Z M5,8 C5,6.343 6.343,5 8,5 C9.657,5 11,6.343 11,8 C11,9.657 9.657,11 8,11 C6.343,11 5,9.657 5,8 C5,8 5,9.657 5,8 L5,8 L5,8 Z M14.468,10.679 L14.468,10.679 L11.696,9.531 C11.892,9.059 12,8.542 12,8 C12,7.458 11.892,6.941 11.696,6.469 L14.468,5.321 C14.81,6.146 15,7.051 15,8 C15,8.949 14.811,9.854 14.468,10.679 L14.468,10.679 L14.468,10.679 L14.468,10.679 L14.468,10.679 Z M10.679,1.532 L10.679,1.532 L9.531,4.304 C9.059,4.108 8.542,4 8,4 C7.458,4 6.941,4.108 6.469,4.304 L5.321,1.532 C6.146,1.19 7.051,1 8,1 C8.949,1 9.854,1.189 10.679,1.532 C10.679,1.532 9.854,1.189 10.679,1.532 L10.679,1.532 L10.679,1.532 Z M1.532,5.321 L4.304,6.469 C4.108,6.941 4,7.458 4,8 C4,8.542 4.108,9.059 4.304,9.531 L1.532,10.679 C1.19,9.854 1,8.949 1,8 C1,7.051 1.189,6.146 1.532,5.321 C1.532,5.321 1.189,6.146 1.532,5.321 L1.532,5.321 L1.532,5.321 Z M5.321,14.468 L6.469,11.696 C6.941,11.892 7.458,12 8,12 C8.542,12 9.059,11.892 9.531,11.696 L10.679,14.468 C9.854,14.81 8.949,15 8,15 C7.051,15 6.146,14.811 5.321,14.468 C5.321,14.468 6.146,14.811 5.321,14.468 L5.321,14.468 L5.321,14.468 Z M5.321,14.468" id="Shape"></path>
            </g>
            <g id="Group" transform="translate(95.000000, 1.000000)" sketch:type="MSShapeGroup">
                <path d="M17,3.5 C17,3.056 16.843,2.394 16.095,1.763 C15.651,1.388 15.042,1.061 14.286,0.791 C12.859,0.281 10.981,0.001 9,0.001 C7.019,0.001 5.141,0.282 3.714,0.791 C2.958,1.061 2.349,1.388 1.905,1.763 C1.157,2.395 1,3.056 1,3.5 L0.997,3.5 L0.997,12.5 L1,12.5 C1,12.944 1.157,13.606 1.905,14.237 C2.349,14.612 2.958,14.939 3.714,15.209 C5.141,15.719 7.019,15.999 9,15.999 C10.981,15.999 12.859,15.718 14.286,15.209 C15.042,14.939 15.651,14.612 16.095,14.237 C16.843,13.605 17,12.944 17,12.5 L17,3.5 L17,3.5 L17,3.5 L17,3.5 Z M4.612,2.597 C5.804,2.212 7.362,2 9,2 C10.638,2 12.196,2.212 13.388,2.597 C14.553,2.974 14.934,3.378 14.995,3.5 C14.934,3.621 14.553,4.026 13.388,4.403 C12.196,4.788 10.638,5 9,5 C7.362,5 5.804,4.788 4.612,4.403 C3.447,4.026 3.066,3.622 3.005,3.5 C3.066,3.379 3.447,2.974 4.612,2.597 C4.612,2.597 3.447,2.974 4.612,2.597 L4.612,2.597 L4.612,2.597 Z M13.388,13.403 C12.196,13.788 10.638,14 9,14 C7.362,14 5.804,13.788 4.612,13.403 C3.447,13.027 3.066,12.622 3.005,12.5 L3.002,12.5 L3.002,10.418 C3.222,10.521 3.459,10.619 3.713,10.709 C5.14,11.219 7.018,11.499 8.999,11.499 C10.98,11.499 12.858,11.218 14.285,10.709 C14.538,10.619 14.774,10.522 14.994,10.419 L14.994,12.5 C14.933,12.621 14.552,13.026 13.387,13.403 C13.387,13.403 14.552,13.026 13.387,13.403 L13.388,13.403 L13.388,13.403 Z M13.388,8.903 C12.196,9.288 10.638,9.5 9,9.5 C7.362,9.5 5.804,9.288 4.612,8.903 C3.447,8.526 3.066,8.122 3.005,8 L3.002,8 L3.002,5.918 C3.222,6.021 3.459,6.119 3.713,6.209 C5.14,6.719 7.018,6.999 8.999,6.999 C10.98,6.999 12.858,6.718 14.285,6.209 C14.538,6.119 14.774,6.022 14.994,5.919 L14.994,8 C14.933,8.121 14.552,8.526 13.387,8.903 C13.387,8.903 14.552,8.526 13.387,8.903 L13.388,8.903 L13.388,8.903 Z M13.388,8.903" id="Shape"></path>
            </g>
            <g id="Group" transform="translate(128.000000, 3.000000)" sketch:type="MSShapeGroup">
                <path d="M14,2 L14,0 L0,0 L0,11 C0,11.552 0.448,12 1,12 L14.5,12 C15.328,12 16,11.328 16,10.5 L16,2 L14,2 L14,2 L14,2 L14,2 Z M13,11 L1,11 L1,1 L13,1 L13,11 L13,11 L13,11 L13,11 Z M2,3 L12,3 L12,4 L2,4 L2,4 L2,3 L2,3 Z M8,5 L12,5 L12,6 L8,6 L8,6 L8,5 L8,5 Z M8,7 L12,7 L12,8 L8,8 L8,8 L8,7 L8,7 Z M8,9 L11,9 L11,10 L8,10 L8,10 L8,9 L8,9 Z M2,5 L7,5 L7,10 L2,10 L2,10 L2,5 L2,5 Z M2,5" id="Shape"></path>
            </g>
            <g id="Group" transform="translate(160.000000, 3.000000)" sketch:type="MSShapeGroup">
                <path d="M17,0 L1,0 C0.45,0 0,0.45 0,1 L0,11 C0,11.55 0.45,12 1,12 L17,12 C17.55,12 18,11.55 18,11 L18,1 C18,0.45 17.55,0 17,0 L17,0 L17,0 L17,0 Z M10,2 L12,2 L12,4 L10,4 L10,2 L10,2 L10,2 L10,2 Z M13,5 L13,7 L11,7 L11,5 L13,5 L13,5 L13,5 L13,5 Z M7,2 L9,2 L9,4 L7,4 L7,2 L7,2 L7,2 L7,2 Z M10,5 L10,7 L8,7 L8,5 L10,5 L10,5 L10,5 L10,5 Z M4,2 L6,2 L6,4 L4,4 L4,2 L4,2 L4,2 L4,2 Z M7,5 L7,7 L5,7 L5,5 L7,5 L7,5 L7,5 L7,5 Z M2,2 L3,2 L3,4 L2,4 L2,2 L2,2 L2,2 L2,2 Z M2,5 L4,5 L4,7 L2,7 L2,5 L2,5 L2,5 L2,5 Z M3,10 L2,10 L2,8 L3,8 L3,10 L3,10 L3,10 L3,10 Z M12,10 L4,10 L4,8 L12,8 L12,10 L12,10 L12,10 L12,10 Z M16,10 L13,10 L13,8 L16,8 L16,10 L16,10 L16,10 L16,10 Z M16,7 L14,7 L14,5 L16,5 L16,7 L16,7 L16,7 L16,7 Z M16,4 L13,4 L13,2 L16,2 L16,4 L16,4 L16,4 L16,4 Z M16,4" id="Shape"></path>
            </g>
            <g id="Group" transform="translate(194.000000, 4.000000)" sketch:type="MSShapeGroup">
                <path d="M14,0 L2,0 C0.9,0 0,0.9 0,2 L0,9 C0,10.1 0.9,11 2,11 L14,11 C15.1,11 16,10.1 16,9 L16,2 C16,0.9 15.1,0 14,0 L14,0 L14,0 L14,0 Z M2,9 C2,6.791 3.119,5 4.5,5 C3.672,5 3,4.328 3,3.5 C3,2.672 3.672,2 4.5,2 C5.328,2 6,2.672 6,3.5 C6,4.328 5.328,5 4.5,5 C3.672,5 7,6.791 7,9 L2,9 L2,9 L2,9 L2,9 Z M14,9 L9,9 L9,8 L14,8 L14,9 L14,9 L14,9 L14,9 Z M14,6 L9,6 L9,5 L14,5 L14,6 L14,6 L14,6 L14,6 Z M14,3 L9,3 L9,2 L14,2 L14,3 L14,3 L14,3 L14,3 Z M14,3" id="Shape"></path>
            </g>
            <g id="Group" transform="translate(226.000000, 1.000000)" sketch:type="MSShapeGroup">
                <path d="M0,14 L9,14 L9,16 L0,16 L0,16 L0,14 L0,14 Z M14,2 L9.273,2 L6.402,13 L4.335,13 L7.206,2 L3.001,2 L3.001,0 L14.001,0 L14.001,0 L14,2 L14,2 Z M14.528,16 L12.5,13.972 L10.472,16 L9.5,15.028 L11.528,13 L9.5,10.972 L10.472,10 L12.5,12.028 L14.528,10 L15.5,10.972 L13.472,13 L15.5,15.028 L15.5,15.028 L14.528,16 L14.528,16 Z M14.528,16" id="Shape"></path>
            </g>
            <g id="Group" transform="translate(258.000000, 1.000000)" sketch:type="MSShapeGroup">
                <path d="M15,4 C15.552,4 16,3.552 16,3 L16,1 L14,1 L14,0 L1,0 C0.45,0 0,0.45 0,1 L0,15 C0,15.55 0.45,16 1,16 L14,16 L14,12 L15,12 C15.552,12 16,11.552 16,11 L16,9 L14,9 L14,8 L15,8 C15.552,8 16,7.552 16,7 L16,5 L14,5 L14,4 L15,4 L15,4 L15,4 L15,4 Z M9,4.005 C10.102,4.005 10.995,4.898 10.995,6 C10.995,7.102 10.102,7.995 9,7.995 C7.898,7.995 7.005,7.102 7.005,6 C7.005,4.898 7.898,4.005 9,4.005 C9,4.005 7.898,4.005 9,4.005 L9,4.005 L9,4.005 Z M4,15 L3,15 L3,1 L4,1 L4,15 L4,15 L4,15 L4,15 Z M12,12 L6,12 L6,11 C6,9.895 6.895,9 8,9 L8,9 L10,9 C11.105,9 12,9.895 12,11 L12,12 L12,12 L12,12 L12,12 Z M12,12" id="Shape"></path>
            </g>
            <g id="Group" transform="translate(289.000000, 1.000000)" sketch:type="MSShapeGroup">
                <path d="M7,10 L9,9 L16,2 L15,1 L8,8 L7,10 L7,10 L7,10 L7,10 Z M5.52,13.548 C5.026,12.505 4.494,11.974 3.451,11.479 L4.999,7.217 L6.999,6 L12.999,0 L9.999,0 L3.999,6 L0.999,16 L10.999,13 L16.999,7 L16.999,4 L10.999,10 L9.782,12 L5.52,13.548 Z M5.52,13.548" id="Shape"></path>
            </g>
            <g id="Group" transform="translate(322.000000, 1.000000)" sketch:type="MSShapeGroup">
                <path d="M8,0 L0,6 L0,9 L2,7.5 L2,15 C2,15.55 2.45,16 3,16 L13,16 C13.55,16 14,15.55 14,15 L14,7.5 L16,9 L16,6 L8,0 L8,0 L8,0 L8,0 Z M13,14.998 L12.998,15 L8,15 L8,10 L5,10 L5,15 L3.002,15 L3,14.998 L3,6.75 L8,3 L13,6.75 L13,14.998 L13,14.998 L13,14.998 L13,14.998 Z M9,7 L11,7 L11,9 L9,9 L9,9 L9,7 L9,7 Z M9,7" id="Shape"></path>
            </g>
            <g id="Group" transform="translate(355.000000, 1.000000)" sketch:type="MSShapeGroup">
                <path d="M5,8 L0,8 L0,6 L5,6 L5,4 L8,7 L5,10 L5,10 L5,8 L5,8 Z M15,0 L15,13 L9,16 L9,13 L3,13 L3,9 L4,9 L4,12 L9,12 L9,3 L13,1 L4,1 L4,5 L3,5 L3,0 L3,0 L15,0 L15,0 Z M15,0" id="Shape"></path>
            </g>
            <g id="Group" transform="translate(386.000000, 1.000000)" sketch:type="MSShapeGroup">
                <path d="M12.5,6 L15.5,4 L12.5,2 L9,2 L9,0.75 C9,0.338 8.662,0 8.25,0 L7.75,0 C7.338,0 7,0.338 7,0.75 L7,2 L2,2 L2,6 L7,6 L7,7 L2.5,7 L0.5,8.5 L2.5,10 L7,10 L7,16 L9,16 L9,10 L13,10 L13,7 L9,7 L9,6 L12.5,6 L12.5,6 L12.5,6 L12.5,6 Z M12.5,6" id="Shape"></path>
            </g>
            <g id="Group" transform="translate(418.000000, 1.000000)" sketch:type="MSShapeGroup">
                <path d="M7,12.414 L3.793,8.707 L4.707,7.793 L7,9.586 L11.293,5.793 L12.207,6.707 L12.207,6.707 L7,12.414 L7,12.414 Z M12.996,2 C12.997,2.001 12.999,2.002 13,2.004 L13,13.997 C12.999,13.998 12.998,14 12.996,14.001 L3.003,14.001 C3.002,14 3,13.999 2.999,13.997 L2.999,2.004 C3,2.003 3.001,2.001 3.003,2 L0.999,2 L0.999,14 C0.999,15.1 1.899,16 2.999,16 L12.999,16 C14.099,16 14.999,15.1 14.999,14 L14.999,2 L12.995,2 L12.995,2 L12.996,2 L12.996,2 Z M10,2 L10,1 C10,0.448 9.552,0 9,0 L7,0 C6.448,0 6,0.448 6,1 L6,2 L4,2 L4,4 L12,4 L12,2 L10,2 L10,2 L10,2 L10,2 Z M9,2 L7,2 L7,1 L9,1 L9,2 L9,2 L9,2 L9,2 Z M9,2" id="Shape"></path>
            </g>
            <g id="Group" transform="translate(450.000000, 1.000000)" sketch:type="MSShapeGroup">
                <path d="M7,2 C3.134,2 0,5.134 0,9 C0,12.866 3.134,16 7,16 C10.866,16 14,12.866 14,9 L7,9 L7,2 L7,2 L7,2 L7,2 Z M9,0 L9,7 L16,7 C16,3.134 12.866,0 9,0 L9,0 L9,0 L9,0 Z M9,0" id="Shape"></path>
            </g>
            <g id="Group" transform="translate(481.000000, 2.000000)" sketch:type="MSShapeGroup">
                <path d="M8.696,10.009 L10.991,12.304 L9.168,14.645 C8.834,15.082 8.242,15.121 7.853,14.732 L6.267,13.146 C5.878,12.757 5.917,12.166 6.354,11.831 L8.695,10.008 L8.695,10.008 L8.696,10.009 L8.696,10.009 Z M20.899,3.101 L18.5,5.5 L15.5,2.5 L17.899,0.101 C17.61,0.035 17.309,0 17,0 C14.791,0 13,1.791 13,4 C13,4.797 13.233,5.539 13.635,6.163 L11.402,7.902 L8,4.5 L12.5,8.8817842e-16 L7.5,8.8817842e-16 L5.28,2.22 L5.06,2 L3.999,2 L3.999,3.061 L4.219,3.281 L0.999,6.501 L3.499,9.001 L6.499,6.001 L15.499,15.001 L16.999,13.501 L13.097,9.599 L14.836,7.366 C15.46,7.768 16.202,8.001 16.999,8.001 C19.208,8.001 20.999,6.21 20.999,4.001 C20.999,3.692 20.964,3.391 20.898,3.102 C20.898,3.102 20.964,3.391 20.898,3.102 L20.899,3.101 L20.899,3.101 Z M20.899,3.101" id="Shape"></path>
            </g>
            <g id="Group" transform="translate(1.000000, 34.000000)" sketch:type="MSShapeGroup">
                <path d="M10,8 L12,6 L12,14 L0,14 L0,2 L8,2 L6,4 L2,4 L2,12 L10,12 L10,12 L10,8 L10,8 Z M14,0 L14,5.5 L11.957,3.457 L6.414,9 L5,9 L5,7.586 L10.543,2.043 L8.5,0 L8.5,0 L14,0 L14,0 Z M14,0" id="Shape"></path>
            </g>
            <g id="Group" transform="translate(32.000000, 33.000000)" sketch:type="MSShapeGroup">
                <path d="M13.5,0 L1.5,0 C0.675,0 0,0.675 0,1.5 L0,14.5 C0,15.325 0.675,16 1.5,16 L13.5,16 C14.325,16 15,15.325 15,14.5 L15,1.5 C15,0.675 14.325,0 13.5,0 L13.5,0 L13.5,0 L13.5,0 Z M13,14 L2,14 L2,2 L13,2 L13,14 L13,14 L13,14 L13,14 Z M4,9 L11,9 L11,10 L4,10 L4,10 L4,9 L4,9 Z M4,11 L11,11 L11,12 L4,12 L4,12 L4,11 L4,11 Z M5,4.5 C5,3.672 5.672,3 6.5,3 C7.328,3 8,3.672 8,4.5 C8,5.328 7.328,6 6.5,6 C5.672,6 5,5.328 5,4.5 C5,4.5 5,5.328 5,4.5 L5,4.5 L5,4.5 Z M7.5,6 L5.5,6 C4.675,6 4,6.45 4,7 L4,8 L9,8 L9,7 C9,6.45 8.325,6 7.5,6 L7.5,6 L7.5,6 L7.5,6 Z M7.5,6" id="Shape"></path>
            </g>
            <g id="Group" transform="translate(65.000000, 32.000000)" sketch:type="MSShapeGroup">
                <path d="M0,13 L3,13 L3,17 L0,17 L0,17 L0,13 L0,13 Z M4,11 L7,11 L7,17 L4,17 L4,17 L4,11 L4,11 Z M8,10 L11,10 L11,17 L8,17 L8,17 L8,10 L8,10 Z M12,7 L15,7 L15,17 L12,17 L12,17 L12,7 L12,7 Z M15,1 L15,5.5 L13.28,3.78 L8,9.06 L5,6.06 L1.061,9.999 L0,9.999 L0,8.938 L5,3.938 L8,6.938 L12.22,2.718 L10.5,0.998 L10.5,0.998 L15,1 L15,1 Z M15,1" id="Shape"></path>
            </g>
            <g id="Group" transform="translate(97.000000, 33.000000)" sketch:type="MSShapeGroup">
                <path d="M0,0 L0,16 L14,16 L14,0 L0,0 L0,0 L0,0 L0,0 Z M13,15 L1,15 L1,1 L13,1 L13,15 L13,15 L13,15 L13,15 Z M2,3 L7,3 L7,4 L2,4 L2,4 L2,3 L2,3 Z M2,5 L7,5 L7,6 L2,6 L2,6 L2,5 L2,5 Z M2,7 L7,7 L7,8 L2,8 L2,8 L2,7 L2,7 Z M2,8.99 L7,8.99 L7,9.99 L2,9.99 L2,9.99 L2,8.99 L2,8.99 Z M2,11 L7,11 L7,12 L2,12 L2,12 L2,11 L2,11 Z M2,13 L12,13 L12,14 L2,14 L2,14 L2,13 L2,13 Z M11,7 L11,12 L10,10.5 L9,12 L9,7 L9,7 L11,7 L11,7 Z M12,3.414 L11.414,4 L12,4.586 L12,5 L11,5 L11,6 L10.586,6 L10,5.414 L9.414,6 L9,6 L9,5 L8,5 L8,4.586 L8.586,4 L8,3.414 L8,3 L9,3 L9,2 L9.414,2 L10,2.586 L10.586,2 L11,2 L11,3 L12,3 L12,3 L12,3.414 L12,3.414 Z M12,3.414" id="Shape"></path>
            </g>
            <g id="Group" transform="translate(128.000000, 34.000000)" sketch:type="MSShapeGroup">
                <path d="M7,1 L7,0.75 C7,0.337 6.662,0 6.25,0 L3.75,0 C3.337,0 3,0.337 3,0.75 L3,1 L0,1 L0,3 L3,3 L3,3.25 C3,3.662 3.337,4 3.75,4 L6.25,4 C6.662,4 7,3.662 7,3.25 L7,3 L16,3 L16,1 L7,1 L7,1 L7,1 L7,1 Z M4,3 L4,1 L6,1 L6,3 L4,3 L4,3 L4,3 L4,3 Z M13,5.75 C13,5.338 12.662,5 12.25,5 L9.75,5 C9.338,5 9,5.338 9,5.75 L9,6 L0,6 L0,8 L9,8 L9,8.25 C9,8.662 9.338,9 9.75,9 L12.25,9 C12.662,9 13,8.662 13,8.25 L13,8 L16,8 L16,6 L13,6 L13,5.75 L13,5.75 L13,5.75 L13,5.75 Z M10,8 L10,6 L12,6 L12,8 L10,8 L10,8 L10,8 L10,8 Z M7,10.75 C7,10.338 6.662,10 6.25,10 L3.75,10 C3.337,10 3,10.338 3,10.75 L3,11 L0,11 L0,13 L3,13 L3,13.25 C3,13.662 3.337,14 3.75,14 L6.25,14 C6.662,14 7,13.662 7,13.25 L7,13 L16,13 L16,11 L7,11 L7,10.75 L7,10.75 L7,10.75 L7,10.75 Z M4,13 L4,11 L6,11 L6,13 L4,13 L4,13 L4,13 L4,13 Z M4,13" id="Shape"></path>
            </g>
            <g id="Group" transform="translate(159.000000, 32.000000)" sketch:type="MSShapeGroup">
                <path d="M16.692,8.254 L14.998,6.56 C13.694,5.255 15.363,5.359 16.333,4.49 C16.338,4.486 16.343,4.481 16.347,4.477 C16.369,4.456 16.392,4.436 16.413,4.414 C17.194,3.633 17.194,2.367 16.413,1.586 C15.632,0.805 14.366,0.805 13.585,1.586 C13.563,1.608 13.542,1.63 13.522,1.652 C13.518,1.657 13.513,1.662 13.509,1.666 C12.639,2.635 12.744,4.305 11.438,3 L9.745,1.307 C9.335,0.897 8.664,0.897 8.253,1.307 L6.561,2.999 L6.561,2.999 C5.255,4.305 5.359,2.635 4.49,1.666 C4.486,1.661 4.481,1.656 4.477,1.652 C4.456,1.63 4.436,1.607 4.414,1.586 C3.633,0.805 2.367,0.805 1.586,1.586 C0.805,2.367 0.805,3.633 1.586,4.414 C1.608,4.436 1.63,4.457 1.652,4.477 C1.657,4.481 1.662,4.486 1.666,4.49 C2.636,5.36 4.306,5.255 2.999,6.561 L2.999,6.561 L1.307,8.253 C0.897,8.663 0.897,9.334 1.307,9.745 L2.999,11.437 L2.999,11.437 C4.305,12.743 2.635,12.639 1.666,13.508 C1.661,13.512 1.656,13.517 1.652,13.521 C1.63,13.542 1.607,13.562 1.586,13.584 C0.805,14.365 0.805,15.631 1.586,16.412 C2.367,17.193 3.633,17.193 4.414,16.412 C4.436,16.39 4.457,16.368 4.477,16.346 C4.481,16.341 4.486,16.336 4.49,16.332 C5.36,15.363 5.255,13.693 6.561,14.998 L8.254,16.691 C8.664,17.101 9.335,17.101 9.746,16.691 L11.712,14.725 C12.495,13.718 11.011,13.742 10.12,12.942 C10.115,12.938 10.11,12.933 10.106,12.929 C10.083,12.908 10.061,12.888 10.04,12.866 C9.259,12.085 9.259,10.819 10.04,10.038 C10.821,9.257 12.087,9.257 12.868,10.038 C12.89,10.06 12.911,10.082 12.931,10.104 C12.935,10.109 12.94,10.114 12.944,10.118 C13.744,11.01 13.72,12.494 14.727,11.71 L16.693,9.744 C17.103,9.334 17.103,8.663 16.693,8.252 C16.693,8.252 17.103,8.663 16.693,8.252 L16.692,8.254 L16.692,8.254 Z M16.692,8.254" id="Shape"></path>
            </g>
        </g>
    </g>
</svg>