<?xml version="1.0" encoding="utf-8"?>
<!-- Generated by IcoMoon.io -->
<!DOCTYPE svg PUBLIC "-//W3C//DTD SVG 1.1//EN" "http://www.w3.org/Graphics/SVG/1.1/DTD/svg11.dtd">
<svg version="1.1" xmlns="http://www.w3.org/2000/svg" xmlns:xlink="http://www.w3.org/1999/xlink" width="1288" height="144" viewBox="0 0 1288 144">
<g transform="translate(0 0)">
	<path d="M22.733 45.128l2.581-3.614-2.828-2.828-3.614 2.581c-0.67-0.375-1.388-0.673-2.142-0.887l-0.73-4.38h-4l-0.73 4.38c-0.754 0.214-1.472 0.512-2.142 0.887l-3.614-2.581-2.829 2.828 2.581 3.614c-0.375 0.67-0.673 1.388-0.887 2.142l-4.38 0.73v4l4.38 0.73c0.214 0.754 0.512 1.471 0.887 2.142l-2.581 3.614 2.828 2.828 3.614-2.581c0.67 0.375 1.388 0.673 2.142 0.887l0.73 4.38h4l0.73-4.38c0.754-0.214 1.471-0.512 2.142-0.887l3.614 2.581 2.828-2.828-2.581-3.614c0.375-0.67 0.673-1.388 0.887-2.142l4.381-0.73v-4l-4.38-0.73c-0.214-0.754-0.512-1.471-0.887-2.142zM14 54c-2.209 0-4-1.791-4-4s1.791-4 4-4 4 1.791 4 4-1.791 4-4 4zM64 24v-4l-4.211-0.766c-0.078-0.503-0.177-0.999-0.295-1.487l3.597-2.319-1.531-3.696-4.184 0.904c-0.263-0.432-0.545-0.851-0.843-1.258l2.438-3.521-2.828-2.828-3.521 2.438c-0.407-0.298-0.826-0.58-1.258-0.843l0.904-4.184-3.696-1.531-2.319 3.597c-0.488-0.118-0.984-0.218-1.487-0.295l-0.766-4.211h-4l-0.766 4.211c-0.503 0.078-0.998 0.177-1.487 0.295l-2.319-3.597-3.695 1.531 0.904 4.184c-0.432 0.263-0.851 0.545-1.258 0.843l-3.521-2.438-2.828 2.828 2.438 3.521c-0.298 0.407-0.58 0.826-0.843 1.258l-4.184-0.904-1.531 3.696 3.597 2.319c-0.118 0.488-0.218 0.984-0.295 1.487l-4.212 0.766v4l4.211 0.766c0.078 0.503 0.177 0.999 0.295 1.487l-3.597 2.319 1.531 3.696 4.184-0.904c0.264 0.432 0.546 0.851 0.843 1.258l-2.438 3.521 2.828 2.828 3.521-2.438c0.407 0.298 0.826 0.58 1.258 0.843l-0.904 4.184 3.695 1.531 2.319-3.597c0.488 0.118 0.984 0.218 1.487 0.295l0.766 4.212h4l0.766-4.211c0.503-0.078 0.998-0.177 1.487-0.295l2.319 3.597 3.696-1.531-0.904-4.184c0.432-0.264 0.851-0.545 1.258-0.843l3.521 2.438 2.828-2.828-2.438-3.521c0.298-0.407 0.58-0.826 0.843-1.258l4.184 0.904 1.531-3.696-3.597-2.319c0.118-0.488 0.218-0.984 0.295-1.487l4.211-0.766zM42 30.7c-4.805 0-8.7-3.895-8.7-8.7s3.895-8.7 8.7-8.7 8.7 3.895 8.7 8.7c0 4.805-3.895 8.7-8.7 8.7z" fill="#ff" />
</g>
<g transform="translate(80 0)">
	<path d="M8 16v40h56v-40h-56zM60 49.333l-8-13.333-9.067 7.556-6.933-11.556-24 20v-32h48v29.333zM16 30c0-3.314 2.686-6 6-6s6 2.686 6 6c0 3.314-2.686 6-6 6-3.314 0-6-2.686-6-6zM56 8h-56v40h4v-36h52z" fill="#ff" />
</g>
<g transform="translate(160 0)">
	<path d="M32 0c-17.673 0-32 14.327-32 32s14.327 32 32 32 32-14.327 32-32-14.327-32-32-32zM20 32c0-6.628 5.372-12 12-12s12 5.372 12 12-5.373 12-12 12-12-5.373-12-12zM57.874 42.717v0l-11.089-4.593c0.782-1.886 1.215-3.955 1.215-6.124s-0.433-4.238-1.215-6.124l11.089-4.593c1.369 3.301 2.126 6.921 2.126 10.717s-0.757 7.416-2.126 10.717v0zM42.717 6.126v0 0l-4.593 11.089c-1.886-0.782-3.955-1.215-6.124-1.215s-4.238 0.433-6.124 1.215l-4.593-11.089c3.301-1.369 6.921-2.126 10.717-2.126 3.797 0 7.416 0.757 10.717 2.126zM6.126 21.283l11.089 4.593c-0.782 1.887-1.215 3.955-1.215 6.124s0.433 4.238 1.215 6.124l-11.089 4.593c-1.369-3.301-2.126-6.921-2.126-10.717s0.757-7.416 2.126-10.717zM21.283 57.874l4.593-11.089c1.887 0.782 3.955 1.215 6.124 1.215s4.238-0.433 6.124-1.215l4.593 11.089c-3.301 1.369-6.921 2.126-10.717 2.126-3.797 0-7.416-0.757-10.717-2.126z" fill="#ff" />
</g>
<g transform="translate(240 0)">
	<path d="M64 14c0-1.776-0.628-4.422-3.62-6.949-1.778-1.501-4.212-2.809-7.236-3.889-5.709-2.039-13.218-3.162-21.144-3.162s-15.435 1.123-21.144 3.162c-3.024 1.080-5.458 2.389-7.236 3.889-2.992 2.526-3.62 5.173-3.62 6.949h-0.011v36h0.011c0 1.776 0.628 4.423 3.62 6.949 1.777 1.501 4.212 2.809 7.236 3.889 5.709 2.039 13.219 3.162 21.144 3.162s15.435-1.123 21.144-3.162c3.024-1.080 5.459-2.389 7.236-3.889 2.992-2.526 3.62-5.173 3.62-6.949v-36zM14.448 10.389c4.768-1.541 11.001-2.389 17.552-2.389 6.551 0 12.784 0.849 17.551 2.389 4.66 1.506 6.182 3.125 6.427 3.611-0.245 0.486-1.767 2.105-6.427 3.611-4.767 1.541-11.001 2.389-17.551 2.389-6.551 0-12.784-0.849-17.552-2.389-4.66-1.506-6.182-3.125-6.427-3.611 0.245-0.486 1.767-2.105 6.427-3.611zM49.551 53.611c-4.767 1.541-11.001 2.389-17.552 2.389s-12.784-0.848-17.552-2.389c-4.66-1.506-6.182-3.125-6.427-3.611h-0.011v-8.328c0.88 0.413 1.829 0.803 2.845 1.166 5.709 2.039 13.218 3.162 21.144 3.162s15.435-1.123 21.144-3.162c1.012-0.361 1.956-0.749 2.834-1.16v8.322c-0.245 0.486-1.767 2.105-6.427 3.611zM49.551 35.611c-4.767 1.541-11.001 2.389-17.552 2.389s-12.784-0.849-17.552-2.389c-4.66-1.506-6.182-3.125-6.427-3.611h-0.011v-8.328c0.88 0.413 1.829 0.803 2.845 1.166 5.709 2.039 13.218 3.162 21.144 3.162s15.435-1.123 21.144-3.162c1.012-0.361 1.956-0.749 2.834-1.16v8.322c-0.245 0.486-1.767 2.105-6.427 3.611z" fill="#ff" />
</g>
<g transform="translate(320 0)">
	<path d="M56 16v-8h-56v44c0 2.209 1.791 4 4 4h54c3.314 0 6-2.686 6-6v-34h-8zM52 52h-48v-40h48v40zM8 20h40v4h-40zM32 28h16v4h-16zM32 36h16v4h-16zM32 44h12v4h-12zM8 28h20v20h-20z" fill="#ff" />
</g>
<g transform="translate(400 0)">
	<path d="M68 8h-64c-2.2 0-4 1.8-4 4v40c0 2.2 1.8 4 4 4h64c2.2 0 4-1.8 4-4v-40c0-2.2-1.8-4-4-4zM40 16h8v8h-8v-8zM52 28v8h-8v-8h8zM28 16h8v8h-8v-8zM40 28v8h-8v-8h8zM16 16h8v8h-8v-8zM28 28v8h-8v-8h8zM8 16h4v8h-4v-8zM8 28h8v8h-8v-8zM12 48h-4v-8h4v8zM48 48h-32v-8h32v8zM64 48h-12v-8h12v8zM64 36h-8v-8h8v8zM64 24h-12v-8h12v8z" fill="#ff" />
</g>
<g transform="translate(488 0)">
	<path d="M56 12h-48c-4.4 0-8 3.6-8 8v28c0 4.4 3.6 8 8 8h48c4.4 0 8-3.6 8-8v-28c0-4.4-3.6-8-8-8zM8 48c0-8.837 4.477-16 10-16-3.314 0-6-2.686-6-6s2.686-6 6-6 6 2.686 6 6-2.686 6-6 6 10 7.163 10 16h-20zM56 48h-20v-4h20v4zM56 36h-20v-4h20v4zM56 24h-20v-4h20v4z" fill="#ff" />
</g>
<g transform="translate(568 0)">
	<path d="M0 56h36v8h-36zM56 8h-18.91l-11.485 44h-8.268l11.485-44h-16.822v-8h44zM58.111 64l-8.111-8.111-8.111 8.111-3.889-3.889 8.111-8.111-8.111-8.111 3.889-3.889 8.111 8.111 8.111-8.111 3.889 3.889-8.111 8.111 8.111 8.111z" fill="#ff" />
</g>
<g transform="translate(648 0)">
	<path d="M60 16c2.209 0 4-1.791 4-4v-8h-8v-4h-52c-2.2 0-4 1.8-4 4v56c0 2.2 1.8 4 4 4h52v-16h4c2.209 0 4-1.791 4-4v-8h-8v-4h4c2.209 0 4-1.791 4-4v-8h-8v-4h4zM36 16.021c4.407 0 7.979 3.573 7.979 7.979s-3.572 7.979-7.979 7.979c-4.407 0-7.979-3.573-7.979-7.979s3.573-7.979 7.979-7.979zM16 60h-4v-56h4v56zM48 48h-24v-4c0-4.418 3.582-8 8-8v0h8c4.419 0 8 3.582 8 8v4z" fill="#ff" />
</g>
<g transform="translate(728 0)">
	<path d="M24 40l8-4 28-28-4-4-28 28-4 8zM18.081 54.194c-1.977-4.17-4.104-6.298-8.275-8.275l6.193-17.049 8-4.869 24-24h-12l-24 24-12 40 40-12 24-24v-12l-24 24-4.87 8" fill="#ff" />
</g>
<g transform="translate(808 0)">
	<path d="M32 0l-32 24v12l8-6v30c0 2.2 1.8 4 4 4h40c2.2 0 4-1.8 4-4v-30l8 6v-12l-32-24zM52 59.993c-0.002 0.002-0.005 0.005-0.007 0.007h-19.993v-20h-12v20h-7.993c-0.002-0.002-0.005-0.005-0.007-0.007v-32.993l20-15 20 15v32.993zM36 28h8v8h-8z" fill="#ff" />
</g>
<g transform="translate(888 0)">
	<path d="M24 32h-20v-8h20v-8l12 12-12 12zM64 0v52l-24 12v-12h-24v-16h4v12h20v-36l16-8h-36v16h-4v-20z" fill="#ff" />
</g>
<g transform="translate(968 0)">
	<path d="M50 24l12-8-12-8h-14v-5c0-1.65-1.35-3-3-3h-2c-1.65 0-3 1.35-3 3v5h-20v16h20v4h-18l-8 6 8 6h18v24h8v-24h16v-12h-16v-4h14z" fill="#ff" />
</g>
<g transform="translate(1048 0)">
	<path d="M28 49.657l-12.828-14.828 3.657-3.657 9.172 7.172 17.172-15.172 3.657 3.657zM51.986 8c0.005 0.004 0.010 0.009 0.014 0.014v47.971c-0.004 0.005-0.009 0.010-0.014 0.014h-39.971c-0.005-0.004-0.010-0.009-0.014-0.014v-47.971c0.004-0.005 0.009-0.010 0.014-0.014h-8.014v48c0 4.4 3.6 8 8 8h40c4.4 0 8-3.6 8-8v-48h-8.014zM40 8v-4c0-2.209-1.791-4-4-4h-8c-2.209 0-4 1.791-4 4v4h-8v8h32v-8h-8zM36 8h-8v-4h8v4z" fill="#ff" />
</g>
<g transform="translate(1128 0)">
	<path d="M28 8c-15.464 0-28 12.536-28 28s12.536 28 28 28 28-12.536 28-28h-28v-28zM36 0v28h28c0-15.464-12.536-28-28-28z" fill="#ff" />
</g>
<g transform="translate(1208 0)">
	<path d="M30.785 44.035l9.181 9.181-7.292 9.364c-1.336 1.748-3.703 1.905-5.258 0.349l-6.343-6.343c-1.556-1.556-1.398-3.922 0.349-5.258l9.364-7.292zM79.594 16.406l-9.594 9.594-12-12 9.594-9.594c-1.156-0.265-2.359-0.406-3.594-0.406-8.837 0-16 7.163-16 16 0 3.187 0.932 6.157 2.539 8.651l-8.932 6.956-13.607-13.607 18-18h-20l-8.879 8.879-0.879-0.879h-4.243v4.243l0.879 0.879-12.879 12.879 10 10 12-12 36 36 6-6-15.607-15.607 6.956-8.932c2.494 1.606 5.464 2.539 8.651 2.539 8.837 0 16-7.163 16-16 0-1.236-0.14-2.439-0.406-3.594z" fill="#ff" />
</g>
<g transform="translate(0 80)">
	<path d="M44 36l8-8v32h-48v-48h32l-8 8h-16v32h32zM60 4v22l-8.172-8.172-22.172 22.172h-5.657v-5.657l22.172-22.172-8.172-8.171z" fill="#ff" />
</g>
<g transform="translate(80 80)">
	<path d="M54 0h-48c-3.3 0-6 2.7-6 6v52c0 3.3 2.7 6 6 6h48c3.3 0 6-2.7 6-6v-52c0-3.3-2.7-6-6-6zM52 56h-44v-48h44v48zM16 36h28v4h-28zM16 44h28v4h-28zM20 18c0-3.314 2.686-6 6-6s6 2.686 6 6c0 3.314-2.686 6-6 6-3.314 0-6-2.686-6-6zM30 24h-8c-3.3 0-6 1.8-6 4v4h20v-4c0-2.2-2.7-4-6-4z" fill="#ff" />
</g>
<g transform="translate(160 80)">
	<path d="M4 48h12v16h-12zM20 40h12v24h-12zM36 36h12v28h-12zM52 24h12v40h-12zM64 0v18l-6.879-6.879-21.121 21.121-12-12-15.757 15.757h-4.243v-4.243l20-20 12 12 16.879-16.879-6.879-6.879z" fill="#ff" />
</g>
<g transform="translate(240 80)">
	<path d="M4 0v64h56v-64h-56zM56 60h-48v-56h48v56zM12 12h20v4h-20zM12 20h20v4h-20zM12 28h20v4h-20zM12 35.96h20v4h-20zM12 44h20v4h-20zM12 52h40v4h-40zM48 28v20l-4-6-4 6v-20zM52 13.657l-2.343 2.343 2.343 2.343v1.657h-4v4h-1.657l-2.343-2.343-2.343 2.343h-1.657v-4h-4v-1.657l2.343-2.343-2.343-2.343v-1.657h4v-4h1.657l2.343 2.343 2.343-2.343h1.657v4h4z" fill="#ff" />
</g>
<g transform="translate(320 80)">
	<path d="M28 8v-1c0-1.65-1.35-3-3-3h-10c-1.65 0-3 1.35-3 3v1h-12v8h12v1c0 1.65 1.35 3 3 3h10c1.65 0 3-1.35 3-3v-1h36v-8h-36zM16 16v-8h8v8h-8zM52 27c0-1.65-1.35-3-3-3h-10c-1.65 0-3 1.35-3 3v1h-36v8h36v1c0 1.65 1.35 3 3 3h10c1.65 0 3-1.35 3-3v-1h12v-8h-12v-1zM40 36v-8h8v8h-8zM28 47c0-1.65-1.35-3-3-3h-10c-1.65 0-3 1.35-3 3v1h-12v8h12v1c0 1.65 1.35 3 3 3h10c1.65 0 3-1.35 3-3v-1h36v-8h-36v-1zM16 56v-8h8v8h-8z" fill="#ff" />
</g>
<g transform="translate(400 80)">
	<path d="M62.77 29.017l-6.774-6.774c-5.216-5.22 1.461-4.803 5.338-8.281 0.019-0.017 0.039-0.035 0.058-0.053 0.090-0.082 0.179-0.166 0.265-0.252 3.124-3.124 3.124-8.189 0-11.314-3.124-3.124-8.19-3.124-11.314 0-0.087 0.087-0.17 0.175-0.252 0.265-0.018 0.019-0.035 0.038-0.053 0.058-3.478 3.878-3.060 10.558-8.284 5.335l-6.771-6.771c-1.641-1.641-4.326-1.641-5.967 0l-6.768 6.768c-0.001 0.001-0.001 0.001-0.002 0.002-5.226 5.226-4.807-1.455-8.285-5.334-0.018-0.019-0.035-0.039-0.053-0.058-0.082-0.090-0.166-0.179-0.252-0.265-3.124-3.124-8.189-3.124-11.314 0-3.124 3.124-3.124 8.19 0 11.314 0.087 0.087 0.175 0.17 0.265 0.252 0.019 0.018 0.038 0.035 0.058 0.053 3.878 3.479 10.559 3.060 5.334 8.285-0.001 0.001-0.001 0.001-0.002 0.002l-6.768 6.767c-1.641 1.641-1.641 4.326 0 5.967l6.769 6.769c0 0 0 0 0 0 5.226 5.226-1.455 4.807-5.334 8.285-0.019 0.017-0.039 0.035-0.058 0.053-0.090 0.082-0.179 0.166-0.265 0.252-3.124 3.124-3.124 8.189 0 11.314 3.124 3.124 8.19 3.124 11.314 0 0.087-0.087 0.17-0.175 0.252-0.265 0.018-0.019 0.035-0.038 0.053-0.058 3.478-3.878 3.060-10.558 8.284-5.335l6.771 6.771c1.641 1.641 4.326 1.641 5.967 0l7.865-7.865c3.133-4.028-2.803-3.931-6.369-7.131-0.019-0.017-0.039-0.035-0.058-0.053-0.090-0.082-0.179-0.166-0.265-0.252-3.124-3.124-3.124-8.19 0-11.314 3.124-3.124 8.19-3.124 11.314 0 0.087 0.087 0.17 0.175 0.252 0.265 0.018 0.019 0.035 0.038 0.053 0.058 3.199 3.566 3.102 9.503 7.131 6.369l7.865-7.865c1.641-1.641 1.641-4.326 0-5.967z" fill="#ff" />
</g>
</svg>
