<?xml version="1.0" encoding="utf-8"?>
<!-- Generated by IcoMoon.io -->
<!DOCTYPE svg PUBLIC "-//W3C//DTD SVG 1.1//EN" "http://www.w3.org/Graphics/SVG/1.1/DTD/svg11.dtd">
<svg version="1.1" xmlns="http://www.w3.org/2000/svg" xmlns:xlink="http://www.w3.org/1999/xlink" width="64" height="64" viewBox="0 0 64 64">
	<path d="M28 49.657l-12.828-14.828 3.657-3.657 9.172 7.172 17.172-15.172 3.657 3.657zM51.986 8c0.005 0.004 0.010 0.009 0.014 0.014v47.971c-0.004 0.005-0.009 0.010-0.014 0.014h-39.971c-0.005-0.004-0.010-0.009-0.014-0.014v-47.971c0.004-0.005 0.009-0.010 0.014-0.014h-8.014v48c0 4.4 3.6 8 8 8h40c4.4 0 8-3.6 8-8v-48h-8.014zM40 8v-4c0-2.209-1.791-4-4-4h-8c-2.209 0-4 1.791-4 4v4h-8v8h32v-8h-8zM36 8h-8v-4h8v4z" fill="#ffff00" />
</svg>
