<?xml version="1.0" encoding="UTF-8" standalone="no"?>
<svg width="1026px" height="112px" viewBox="0 0 1026 112" version="1.1" xmlns="http://www.w3.org/2000/svg" xmlns:xlink="http://www.w3.org/1999/xlink" xmlns:sketch="http://www.bohemiancoding.com/sketch/ns">
    <title>sprites</title>
    <description>Created with Sketch (http://www.bohemiancoding.com/sketch)</description>
    <defs></defs>
    <g id="Page-1" stroke="none" stroke-width="1" fill="none" fill-rule="evenodd" sketch:type="MSPage">
        <g id="sprites" sketch:type="MSLayerGroup" transform="translate(0.000000, -1.000000)" fill="#01134B">
            <g id="Group" sketch:type="MSShapeGroup">
                <path d="M17.049,34.846 L18.985,32.136 L16.864,30.015 L14.154,31.951 C13.651,31.67 13.113,31.446 12.548,31.286 L12,28.001 L9,28.001 L8.453,31.286 C7.888,31.446 7.349,31.67 6.847,31.951 L4.137,30.015 L2.016,32.136 L3.952,34.846 C3.671,35.349 3.447,35.887 3.287,36.452 L0.002,37 L0.002,40 L3.287,40.548 C3.447,41.113 3.671,41.652 3.952,42.154 L2.016,44.864 L4.137,46.985 L6.847,45.049 C7.35,45.33 7.888,45.554 8.453,45.714 L9.001,48.999 L12.001,48.999 L12.549,45.714 C13.114,45.554 13.653,45.33 14.155,45.049 L16.865,46.985 L18.986,44.864 L17.05,42.154 C17.331,41.651 17.555,41.113 17.715,40.548 L21,40.001 L21,37.001 L17.715,36.453 C17.555,35.888 17.331,35.349 17.05,34.847 C17.05,34.847 17.331,35.349 17.05,34.847 L17.049,34.846 L17.049,34.846 Z M10.5,41.5 C8.843,41.5 7.5,40.157 7.5,38.5 C7.5,36.843 8.843,35.5 10.5,35.5 C12.157,35.5 13.5,36.843 13.5,38.5 C13.5,40.157 12.157,41.5 10.5,41.5 L10.5,41.5 L10.5,41.5 L10.5,41.5 Z M48,19 L48,16 L44.841,15.426 C44.783,15.049 44.708,14.677 44.62,14.311 L47.318,12.572 L46.17,9.8 L43.032,10.478 C42.834,10.154 42.623,9.84 42.4,9.534 L44.228,6.893 L42.107,4.772 L39.466,6.6 C39.161,6.377 38.846,6.165 38.522,5.967 L39.2,2.829 L36.428,1.681 L34.689,4.379 C34.323,4.29 33.951,4.216 33.574,4.158 L33,0.999 L30,0.999 L29.426,4.158 C29.049,4.216 28.677,4.291 28.311,4.379 L26.572,1.681 L23.8,2.829 L24.478,5.967 C24.154,6.165 23.84,6.376 23.534,6.6 L20.893,4.772 L18.772,6.893 L20.6,9.534 C20.377,9.839 20.165,10.154 19.967,10.478 L16.829,9.8 L15.681,12.572 L18.379,14.311 C18.29,14.677 18.216,15.049 18.158,15.426 L14.999,16 L14.999,19 L18.158,19.574 C18.216,19.951 18.291,20.323 18.379,20.689 L15.681,22.428 L16.829,25.2 L19.967,24.522 C20.165,24.846 20.376,25.16 20.6,25.466 L18.772,28.107 L20.893,30.228 L23.534,28.4 C23.839,28.623 24.154,28.835 24.478,29.032 L23.8,32.17 L26.572,33.318 L28.311,30.62 C28.677,30.709 29.049,30.783 29.426,30.841 L30,34 L33,34 L33.574,30.841 C33.951,30.783 34.323,30.708 34.689,30.62 L36.428,33.318 L39.2,32.17 L38.522,29.032 C38.846,28.834 39.16,28.623 39.466,28.4 L42.107,30.228 L44.228,28.107 L42.4,25.466 C42.623,25.161 42.835,24.846 43.032,24.522 L46.17,25.2 L47.318,22.428 L44.62,20.689 C44.709,20.323 44.783,19.951 44.841,19.574 L48,19 L48,19 L48,19 L48,19 Z M31.5,24.025 C27.896,24.025 24.975,21.104 24.975,17.5 C24.975,13.896 27.896,10.975 31.5,10.975 C35.104,10.975 38.025,13.896 38.025,17.5 C38.025,21.104 35.104,24.025 31.5,24.025 L31.5,24.025 L31.5,24.025 L31.5,24.025 Z M31.5,24.025" id="Shape"></path>
            </g>
            <g id="Group" transform="translate(64.000000, 7.000000)" sketch:type="MSShapeGroup">
                <path d="M6,6 L6,36 L48,36 L48,6 L6,6 L6,6 L6,6 L6,6 Z M45,31 L39,21 L32.2,26.667 L27,18 L9,33 L9,9 L45,9 L45,31 L45,31 L45,31 L45,31 Z M12,16.5 C12,14.015 14.015,12 16.5,12 C18.985,12 21,14.015 21,16.5 C21,18.985 18.985,21 16.5,21 C14.015,21 12,18.985 12,16.5 C12,16.5 12,18.985 12,16.5 L12,16.5 L12,16.5 Z M42,0 L0,0 L0,30 L3,30 L3,3 L42,3 L42,3 L42,0 L42,0 Z M42,0" id="Shape"></path>
            </g>
            <g id="Group" transform="translate(128.000000, 1.000000)" sketch:type="MSShapeGroup">
                <path d="M24,0 C10.745,0 0,10.745 0,24 C0,37.255 10.745,48 24,48 C37.255,48 48,37.255 48,24 C48,10.745 37.255,0 24,0 L24,0 L24,0 L24,0 Z M15,24 C15,19.029 19.029,15 24,15 C28.971,15 33,19.029 33,24 C33,28.971 28.971,33 24,33 C19.029,33 15,28.971 15,24 C15,24 15,28.971 15,24 L15,24 L15,24 Z M43.405,32.038 L43.405,32.038 L35.088,28.593 C35.675,27.178 35.999,25.627 35.999,24 C35.999,22.373 35.675,20.822 35.088,19.407 L43.405,15.962 C44.432,18.438 45,21.152 45,24 C45,26.848 44.432,29.562 43.405,32.038 L43.405,32.038 L43.405,32.038 L43.405,32.038 L43.405,32.038 Z M32.038,4.595 L32.038,4.595 L28.593,12.912 C27.178,12.325 25.627,12.001 24,12.001 C22.373,12.001 20.822,12.325 19.407,12.912 L15.962,4.595 C18.438,3.568 21.153,3 24,3 C26.847,3 29.562,3.568 32.038,4.595 C32.038,4.595 29.562,3.568 32.038,4.595 L32.038,4.595 L32.038,4.595 Z M4.595,15.962 L12.912,19.407 C12.325,20.822 12.001,22.373 12.001,24 C12.001,25.627 12.325,27.178 12.912,28.593 L4.595,32.038 C3.568,29.562 3,26.848 3,24 C3,21.152 3.568,18.438 4.595,15.962 C4.595,15.962 3.568,18.438 4.595,15.962 L4.595,15.962 L4.595,15.962 Z M15.962,43.405 L19.407,35.088 C20.822,35.675 22.373,35.999 24,35.999 C25.627,35.999 27.178,35.675 28.593,35.088 L32.038,43.405 C29.562,44.432 26.848,45 24,45 C21.153,45 18.438,44.432 15.962,43.405 C15.962,43.405 18.438,44.432 15.962,43.405 L15.962,43.405 L15.962,43.405 Z M15.962,43.405" id="Shape"></path>
            </g>
            <g id="Group" transform="translate(191.000000, 1.000000)" sketch:type="MSShapeGroup">
                <path d="M49,10.5 C49,9.168 48.529,7.183 46.285,5.289 C44.952,4.163 43.126,3.182 40.858,2.372 C36.576,0.843 30.944,0.001 25,0.001 C19.056,0.001 13.424,0.843 9.142,2.372 C6.874,3.182 5.048,4.163 3.715,5.289 C1.471,7.184 1,9.169 1,10.501 L0.992,10.501 L0.992,37.501 L1,37.501 C1,38.833 1.471,40.818 3.715,42.713 C5.048,43.839 6.874,44.82 9.142,45.63 C13.424,47.159 19.056,48.001 25,48.001 C30.944,48.001 36.576,47.159 40.858,45.63 C43.126,44.82 44.952,43.839 46.285,42.713 C48.529,40.818 49,38.833 49,37.501 L49,10.501 L49,10.501 L49,10.5 L49,10.5 Z M11.836,7.792 C15.412,6.636 20.086,6 25,6 C29.913,6 34.588,6.636 38.164,7.792 C41.659,8.922 42.801,10.136 42.984,10.5 C42.801,10.864 41.658,12.078 38.164,13.208 C34.588,14.364 29.914,15 25,15 C20.087,15 15.412,14.364 11.836,13.208 C8.341,12.078 7.199,10.864 7.016,10.5 C7.199,10.136 8.342,8.922 11.836,7.792 C11.836,7.792 8.342,8.922 11.836,7.792 L11.836,7.792 L11.836,7.792 Z M38.164,40.208 C34.588,41.364 29.914,42 25,42 C20.086,42 15.412,41.364 11.836,40.208 C8.341,39.079 7.199,37.864 7.016,37.5 L7.008,37.5 L7.008,31.254 C7.668,31.564 8.379,31.856 9.142,32.128 C13.424,33.657 19.056,34.499 25,34.499 C30.944,34.499 36.576,33.657 40.858,32.128 C41.617,31.857 42.325,31.566 42.984,31.258 L42.984,37.5 C42.801,37.864 41.659,39.079 38.164,40.208 C38.164,40.208 41.659,39.079 38.164,40.208 L38.164,40.208 L38.164,40.208 Z M38.164,26.708 C34.588,27.864 29.914,28.5 25,28.5 C20.086,28.5 15.412,27.864 11.836,26.708 C8.341,25.578 7.199,24.364 7.016,24 L7.008,24 L7.008,17.754 C7.668,18.064 8.379,18.356 9.142,18.628 C13.424,20.157 19.056,20.999 25,20.999 C30.944,20.999 36.576,20.157 40.858,18.628 C41.617,18.357 42.325,18.066 42.984,17.758 L42.984,24 C42.801,24.364 41.659,25.578 38.164,26.708 C38.164,26.708 41.659,25.578 38.164,26.708 L38.164,26.708 L38.164,26.708 Z M38.164,26.708" id="Shape"></path>
            </g>
            <g id="Group" transform="translate(256.000000, 7.000000)" sketch:type="MSShapeGroup">
                <path d="M42,6 L42,0 L0,0 L0,33 C0,34.657 1.343,36 3,36 L43.5,36 C45.985,36 48,33.985 48,31.5 L48,6 L42,6 L42,6 L42,6 L42,6 Z M39,33 L3,33 L3,3 L39,3 L39,33 L39,33 L39,33 L39,33 Z M6,9 L36,9 L36,12 L6,12 L6,12 L6,9 L6,9 Z M24,15 L36,15 L36,18 L24,18 L24,18 L24,15 L24,15 Z M24,21 L36,21 L36,24 L24,24 L24,24 L24,21 L24,21 Z M24,27 L33,27 L33,30 L24,30 L24,30 L24,27 L24,27 Z M6,15 L21,15 L21,30 L6,30 L6,30 L6,15 L6,15 Z M6,15" id="Shape"></path>
            </g>
            <g id="Group" transform="translate(320.000000, 7.000000)" sketch:type="MSShapeGroup">
                <path d="M51,0 L3,0 C1.35,0 0,1.35 0,3 L0,33 C0,34.65 1.35,36 3,36 L51,36 C52.65,36 54,34.65 54,33 L54,3 C54,1.35 52.65,0 51,0 L51,0 L51,0 L51,0 Z M30,6 L36,6 L36,12 L30,12 L30,6 L30,6 L30,6 L30,6 Z M39,15 L39,21 L33,21 L33,15 L39,15 L39,15 L39,15 L39,15 Z M21,6 L27,6 L27,12 L21,12 L21,6 L21,6 L21,6 L21,6 Z M30,15 L30,21 L24,21 L24,15 L30,15 L30,15 L30,15 L30,15 Z M12,6 L18,6 L18,12 L12,12 L12,6 L12,6 L12,6 L12,6 Z M21,15 L21,21 L15,21 L15,15 L21,15 L21,15 L21,15 L21,15 Z M6,6 L9,6 L9,12 L6,12 L6,6 L6,6 L6,6 L6,6 Z M6,15 L12,15 L12,21 L6,21 L6,15 L6,15 L6,15 L6,15 Z M9,30 L6,30 L6,24 L9,24 L9,30 L9,30 L9,30 L9,30 Z M36,30 L12,30 L12,24 L36,24 L36,30 L36,30 L36,30 L36,30 Z M48,30 L39,30 L39,24 L48,24 L48,30 L48,30 L48,30 L48,30 Z M48,21 L42,21 L42,15 L48,15 L48,21 L48,21 L48,21 L48,21 Z M48,12 L39,12 L39,6 L48,6 L48,12 L48,12 L48,12 L48,12 Z M48,12" id="Shape"></path>
            </g>
            <g id="Group" transform="translate(390.000000, 10.000000)" sketch:type="MSShapeGroup">
                <path d="M42,0 L6,0 C2.7,0 0,2.7 0,6 L0,27 C0,30.3 2.7,33 6,33 L42,33 C45.3,33 48,30.3 48,27 L48,6 C48,2.7 45.3,0 42,0 L42,0 L42,0 L42,0 Z M6,27 C6,20.373 9.358,15 13.5,15 C11.015,15 9,12.985 9,10.5 C9,8.015 11.015,6 13.5,6 C15.985,6 18,8.015 18,10.5 C18,12.985 15.985,15 13.5,15 C11.015,15 21,20.373 21,27 L6,27 L6,27 L6,27 L6,27 Z M42,27 L27,27 L27,24 L42,24 L42,27 L42,27 L42,27 L42,27 Z M42,18 L27,18 L27,15 L42,15 L42,18 L42,18 L42,18 L42,18 Z M42,9 L27,9 L27,6 L42,6 L42,9 L42,9 L42,9 L42,9 Z M42,9" id="Shape"></path>
            </g>
            <g id="Group" transform="translate(454.000000, 1.000000)" sketch:type="MSShapeGroup">
                <path d="M0,42 L27,42 L27,48 L0,48 L0,48 L0,42 L0,42 Z M42,6 L27.818,6 L19.204,39 L13.003,39 L21.617,6 L9.001,6 L9.001,0 L42.001,0 L42.001,0 L42,6 L42,6 Z M43.583,48 L37.5,41.917 L31.417,48 L28.5,45.083 L34.583,39 L28.5,32.917 L31.417,30 L37.5,36.083 L43.583,30 L46.5,32.917 L40.417,39 L46.5,45.083 L46.5,45.083 L43.583,48 L43.583,48 Z M43.583,48" id="Shape"></path>
            </g>
            <g id="Group" transform="translate(518.000000, 1.000000)" sketch:type="MSShapeGroup">
                <path d="M45,12 C46.657,12 48,10.657 48,9 L48,3 L42,3 L42,0 L3,0 C1.35,0 0,1.35 0,3 L0,45 C0,46.65 1.35,48 3,48 L42,48 L42,36 L45,36 C46.657,36 48,34.657 48,33 L48,27 L42,27 L42,24 L45,24 C46.657,24 48,22.657 48,21 L48,15 L42,15 L42,12 L45,12 L45,12 L45,12 L45,12 Z M27,12.015 C30.305,12.015 32.985,14.694 32.985,18 C32.985,21.306 30.306,23.985 27,23.985 C23.695,23.985 21.015,21.306 21.015,18 C21.015,14.694 23.694,12.015 27,12.015 C27,12.015 23.694,12.015 27,12.015 L27,12.015 L27,12.015 Z M12,45 L9,45 L9,3 L12,3 L12,45 L12,45 L12,45 L12,45 Z M36,36 L18,36 L18,33 C18,29.686 20.686,27 24,27 L24,27 L30,27 C33.314,27 36,29.686 36,33 L36,36 L36,36 L36,36 L36,36 Z M36,36" id="Shape"></path>
            </g>
            <g id="Group" transform="translate(582.000000, 1.000000)" sketch:type="MSShapeGroup">
                <path d="M18,30 L24,27 L45,6 L42,3 L21,24 L18,30 L18,30 L18,30 L18,30 Z M13.561,40.645 C12.078,37.517 10.483,35.922 7.355,34.439 L12,21.652 L18,18 L36,0 L27,0 L9,18 L0,48 L30,39 L48,21 L48,12 L30,30 L26.348,36 L13.561,40.645 Z M13.561,40.645" id="Shape"></path>
            </g>
            <g id="Group" transform="translate(646.000000, 1.000000)" sketch:type="MSShapeGroup">
                <path d="M24,0 L0,18 L0,27 L6,22.5 L6,45 C6,46.65 7.35,48 9,48 L39,48 C40.65,48 42,46.65 42,45 L42,22.5 L48,27 L48,18 L24,0 L24,0 L24,0 L24,0 Z M39,44.995 C38.998,44.997 38.996,44.999 38.994,45 L24,45 L24,30 L15,30 L15,45 L9.005,45 L9,44.995 L9,20.25 L24,9 L39,20.25 L39,44.995 L39,44.995 L39,44.995 L39,44.995 Z M27,21 L33,21 L33,27 L27,27 L27,27 L27,21 L27,21 Z M27,21" id="Shape"></path>
            </g>
            <g id="Group" transform="translate(713.000000, 1.000000)" sketch:type="MSShapeGroup">
                <path d="M15,24 L0,24 L0,18 L15,18 L15,12 L24,21 L15,30 L15,30 L15,24 L15,24 Z M45,0 L45,39 L27,48 L27,39 L9,39 L9,27 L12,27 L12,36 L27,36 L27,9 L39,3 L12,3 L12,15 L9,15 L9,0 L9,0 L45,0 L45,0 Z M45,0" id="Shape"></path>
            </g>
            <g id="Group" transform="translate(775.000000, 1.000000)" sketch:type="MSShapeGroup">
                <path d="M36.5,18 L45.5,12 L36.5,6 L26,6 L26,2.25 C26,1.013 24.987,0 23.75,0 L22.25,0 C21.013,0 20,1.013 20,2.25 L20,6 L5,6 L5,18 L20,18 L20,21 L6.5,21 L0.5,25.5 L6.5,30 L20,30 L20,48 L26,48 L26,30 L38,30 L38,21 L26,21 L26,18 L36.5,18 L36.5,18 L36.5,18 L36.5,18 Z M36.5,18" id="Shape"></path>
            </g>
            <g id="Group" transform="translate(840.000000, 1.000000)" sketch:type="MSShapeGroup">
                <path d="M19,37.243 L9.379,26.122 L12.122,23.379 L19.001,28.758 L31.88,17.379 L34.623,20.122 L34.623,20.122 L19,37.243 L19,37.243 Z M36.989,6 C36.993,6.003 36.997,6.007 37,6.011 L37,41.99 C36.997,41.994 36.993,41.998 36.989,42.001 L7.01,42.001 C7.006,41.998 7.002,41.994 6.999,41.99 L6.999,6.011 C7.002,6.007 7.006,6.003 7.01,6 L0.999,6 L0.999,42 C0.999,45.3 3.699,48 6.999,48 L36.999,48 C40.299,48 42.999,45.3 42.999,42 L42.999,6 L36.988,6 L36.988,6 L36.989,6 L36.989,6 Z M28,6 L28,3 C28,1.343 26.657,0 25,0 L19,0 C17.343,0 16,1.343 16,3 L16,6 L10,6 L10,12 L34,12 L34,6 L28,6 L28,6 L28,6 L28,6 Z M25,6 L19,6 L19,3 L25,3 L25,6 L25,6 L25,6 L25,6 Z M25,6" id="Shape"></path>
            </g>
            <g id="Group" transform="translate(902.000000, 1.000000)" sketch:type="MSShapeGroup">
                <path d="M21,6 C9.402,6 0,15.402 0,27 C0,38.598 9.402,48 21,48 C32.598,48 42,38.598 42,27 L21,27 L21,6 L21,6 L21,6 L21,6 Z M27,0 L27,21 L48,21 C48,9.402 38.598,0 27,0 L27,0 L27,0 L27,0 Z M27,0" id="Shape"></path>
            </g>
            <g id="Group" transform="translate(966.000000, 4.000000)" sketch:type="MSShapeGroup">
                <path d="M23.089,30.026 L29.974,36.911 L24.505,43.934 C23.503,45.245 21.728,45.362 20.561,44.196 L15.804,39.439 C14.637,38.272 14.755,36.498 16.066,35.495 L23.089,30.026 L23.089,30.026 L23.089,30.026 L23.089,30.026 Z M59.696,9.304 L52.5,16.5 L43.5,7.5 L50.696,0.304 C49.829,0.105 48.927,4.4408921e-16 48,4.4408921e-16 C41.373,4.4408921e-16 36,5.373 36,12 C36,14.39 36.699,16.617 37.904,18.488 L31.205,23.705 L21,13.5 L34.5,0 L19.5,0 L12.841,6.659 L12.182,6 L9,6 L9,9.182 L9.659,9.841 L0,19.5 L7.5,27 L16.5,18 L43.5,45 L48,40.5 L36.295,28.795 L41.512,22.096 C43.383,23.301 45.61,24 48,24 C54.627,24 60,18.627 60,12 C60,11.073 59.895,10.171 59.696,9.304 C59.696,9.304 59.895,10.171 59.696,9.304 L59.696,9.304 L59.696,9.304 Z M59.696,9.304" id="Shape"></path>
            </g>
            <g id="Group" transform="translate(3.000000, 67.000000)" sketch:type="MSShapeGroup">
                <path d="M30,25 L36,19 L36,43 L0,43 L0,7 L24,7 L18,13 L6,13 L6,37 L30,37 L30,37 L30,25 L30,25 Z M42,1 L42,17.5 L35.871,11.371 L19.242,28 L14.999,28 L14.999,23.757 L31.628,7.128 L25.499,0.999 L25.499,0.999 L42,1 L42,1 Z M42,1" id="Shape"></path>
            </g>
            <g id="Group" transform="translate(64.000000, 65.000000)" sketch:type="MSShapeGroup">
                <path d="M40.5,0 L4.5,0 C2.025,0 0,2.025 0,4.5 L0,43.5 C0,45.975 2.025,48 4.5,48 L40.5,48 C42.975,48 45,45.975 45,43.5 L45,4.5 C45,2.025 42.975,0 40.5,0 L40.5,0 L40.5,0 L40.5,0 Z M39,42 L6,42 L6,6 L39,6 L39,42 L39,42 L39,42 L39,42 Z M12,27 L33,27 L33,30 L12,30 L12,30 L12,27 L12,27 Z M12,33 L33,33 L33,36 L12,36 L12,36 L12,33 L12,33 Z M15,13.5 C15,11.015 17.015,9 19.5,9 C21.985,9 24,11.015 24,13.5 C24,15.985 21.985,18 19.5,18 C17.015,18 15,15.985 15,13.5 C15,13.5 15,15.985 15,13.5 L15,13.5 L15,13.5 Z M22.5,18 L16.5,18 C14.025,18 12,19.35 12,21 L12,24 L27,24 L27,21 C27,19.35 24.975,18 22.5,18 L22.5,18 L22.5,18 L22.5,18 Z M22.5,18" id="Shape"></path>
            </g>
            <g id="Group" transform="translate(131.000000, 65.000000)" sketch:type="MSShapeGroup">
                <path d="M0,36 L9,36 L9,48 L0,48 L0,48 L0,36 L0,36 Z M12,30 L21,30 L21,48 L12,48 L12,48 L12,30 L12,30 Z M24,27 L33,27 L33,48 L24,48 L24,48 L24,27 L24,27 Z M36,18 L45,18 L45,48 L36,48 L36,48 L36,18 L36,18 Z M45,0 L45,13.5 L39.841,8.341 L24,24.182 L15,15.182 L3.182,27 L0,27 L0,23.818 L15,8.818 L24,17.818 L36.659,5.159 L31.5,8.8817842e-16 L31.5,8.8817842e-16 L45,0 L45,0 Z M45,0" id="Shape"></path>
            </g>
            <g id="Group" transform="translate(195.000000, 65.000000)" sketch:type="MSShapeGroup">
                <path d="M0,0 L0,48 L42,48 L42,0 L0,0 L0,0 L0,0 L0,0 Z M39,45 L3,45 L3,3 L39,3 L39,45 L39,45 L39,45 L39,45 Z M6,9 L21,9 L21,12 L6,12 L6,12 L6,9 L6,9 Z M6,15 L21,15 L21,18 L6,18 L6,18 L6,15 L6,15 Z M6,21 L21,21 L21,24 L6,24 L6,24 L6,21 L6,21 Z M6,26.97 L21,26.97 L21,29.97 L6,29.97 L6,29.97 L6,26.97 L6,26.97 Z M6,33 L21,33 L21,36 L6,36 L6,36 L6,33 L6,33 Z M6,39 L36,39 L36,42 L6,42 L6,42 L6,39 L6,39 Z M33,21 L33,36 L30,31.5 L27,36 L27,21 L27,21 L33,21 L33,21 Z M36,10.243 L34.243,12 L36,13.757 L36,15 L33,15 L33,18 L31.757,18 L30,16.243 L28.243,18 L27,18 L27,15 L24,15 L24,13.757 L25.757,12 L24,10.243 L24,9 L27,9 L27,6 L28.243,6 L30,7.757 L31.757,6 L33,6 L33,9 L36,9 L36,9 L36,10.243 L36,10.243 Z M36,10.243" id="Shape"></path>
            </g>
            <g id="Group" transform="translate(256.000000, 68.000000)" sketch:type="MSShapeGroup">
                <path d="M21,3 L21,2.25 C21,1.012 19.987,0 18.75,0 L11.25,0 C10.012,0 9,1.012 9,2.25 L9,3 L0,3 L0,9 L9,9 L9,9.75 C9,10.987 10.012,12 11.25,12 L18.75,12 C19.987,12 21,10.987 21,9.75 L21,9 L48,9 L48,3 L21,3 L21,3 L21,3 L21,3 Z M12,9 L12,3 L18,3 L18,9 L12,9 L12,9 L12,9 L12,9 Z M39,17.25 C39,16.013 37.987,15 36.75,15 L29.25,15 C28.013,15 27,16.013 27,17.25 L27,18 L0,18 L0,24 L27,24 L27,24.75 C27,25.987 28.013,27 29.25,27 L36.75,27 C37.987,27 39,25.987 39,24.75 L39,24 L48,24 L48,18 L39,18 L39,17.25 L39,17.25 L39,17.25 L39,17.25 Z M30,24 L30,18 L36,18 L36,24 L30,24 L30,24 L30,24 L30,24 Z M21,32.25 C21,31.013 19.987,30 18.75,30 L11.25,30 C10.012,30 9,31.013 9,32.25 L9,33 L0,33 L0,39 L9,39 L9,39.75 C9,40.987 10.012,42 11.25,42 L18.75,42 C19.987,42 21,40.987 21,39.75 L21,39 L48,39 L48,33 L21,33 L21,32.25 L21,32.25 L21,32.25 L21,32.25 Z M12,39 L12,33 L18,33 L18,39 L12,39 L12,39 L12,39 L12,39 Z M12,39" id="Shape"></path>
            </g>
            <g id="Group" transform="translate(319.000000, 64.000000)" sketch:type="MSShapeGroup">
                <path d="M48.077,22.762 L42.996,17.681 C39.084,13.766 44.092,14.079 47,11.471 C47.015,11.458 47.029,11.445 47.043,11.431 C47.11,11.369 47.177,11.307 47.242,11.242 C49.585,8.899 49.585,5.1 47.242,2.757 C44.899,0.414 41.1,0.414 38.757,2.757 C38.692,2.822 38.629,2.889 38.568,2.956 C38.555,2.97 38.542,2.985 38.528,2.999 C35.919,5.907 36.233,10.917 32.315,7 L27.237,1.922 C26.006,0.691 23.993,0.691 22.762,1.922 L17.686,6.998 L17.685,6.999 C13.766,10.918 14.08,5.907 11.471,2.999 C11.458,2.984 11.445,2.97 11.431,2.956 C11.369,2.889 11.307,2.822 11.242,2.757 C8.899,0.414 5.1,0.414 2.757,2.757 C0.414,5.1 0.414,8.899 2.757,11.242 C2.822,11.307 2.889,11.37 2.956,11.431 C2.97,11.444 2.985,11.457 2.999,11.471 C5.908,14.08 10.918,13.766 6.999,17.685 L6.998,17.686 L1.922,22.762 C0.691,23.993 0.691,26.006 1.922,27.237 L6.999,32.314 L6.999,32.314 C10.918,36.233 5.907,35.919 2.999,38.528 C2.984,38.541 2.97,38.554 2.956,38.568 C2.889,38.63 2.822,38.692 2.757,38.757 C0.414,41.1 0.414,44.899 2.757,47.242 C5.1,49.585 8.899,49.585 11.242,47.242 C11.307,47.177 11.37,47.11 11.431,47.043 C11.444,47.029 11.457,47.014 11.471,47 C14.08,44.092 13.766,39.082 17.684,42.998 L22.762,48.076 C23.993,49.306 26.006,49.306 27.237,48.076 L33.135,42.178 C35.485,39.157 31.033,39.229 28.358,36.83 C28.344,36.817 28.329,36.804 28.315,36.79 C28.247,36.728 28.181,36.666 28.116,36.601 C25.773,34.258 25.773,30.459 28.116,28.116 C30.459,25.773 34.258,25.773 36.601,28.116 C36.666,28.181 36.729,28.248 36.79,28.315 C36.803,28.329 36.816,28.344 36.83,28.358 C39.229,31.033 39.157,35.485 42.178,33.135 L48.076,27.237 C49.307,26.006 49.307,23.993 48.076,22.762 C48.076,22.762 49.307,23.993 48.076,22.762 L48.077,22.762 L48.077,22.762 Z M48.077,22.762" id="Shape"></path>
            </g>
        </g>
    </g>
</svg>