<?xml version="1.0" encoding="utf-8"?>
<!-- Generated by IcoMoon.io -->
<!DOCTYPE svg PUBLIC "-//W3C//DTD SVG 1.1//EN" "http://www.w3.org/Graphics/SVG/1.1/DTD/svg11.dtd">
<svg version="1.1" xmlns="http://www.w3.org/2000/svg" xmlns:xlink="http://www.w3.org/1999/xlink" width="764" height="80" viewBox="0 0 764 80">
<g transform="translate(0 0)">
	<path d="M11.366 22.564l1.291-1.807-1.414-1.414-1.807 1.291c-0.335-0.187-0.694-0.337-1.071-0.444l-0.365-2.19h-2l-0.365 2.19c-0.377 0.107-0.736 0.256-1.071 0.444l-1.807-1.291-1.414 1.414 1.291 1.807c-0.187 0.335-0.337 0.694-0.443 1.071l-2.19 0.365v2l2.19 0.365c0.107 0.377 0.256 0.736 0.444 1.071l-1.291 1.807 1.414 1.414 1.807-1.291c0.335 0.187 0.694 0.337 1.071 0.444l0.365 2.19h2l0.365-2.19c0.377-0.107 0.736-0.256 1.071-0.444l1.807 1.291 1.414-1.414-1.291-1.807c0.187-0.335 0.337-0.694 0.444-1.071l2.19-0.365v-2l-2.19-0.365c-0.107-0.377-0.256-0.736-0.444-1.071zM7 27c-1.105 0-2-0.895-2-2s0.895-2 2-2 2 0.895 2 2-0.895 2-2 2zM32 12v-2l-2.106-0.383c-0.039-0.251-0.088-0.499-0.148-0.743l1.799-1.159-0.765-1.848-2.092 0.452c-0.132-0.216-0.273-0.426-0.422-0.629l1.219-1.761-1.414-1.414-1.761 1.219c-0.203-0.149-0.413-0.29-0.629-0.422l0.452-2.092-1.848-0.765-1.159 1.799c-0.244-0.059-0.492-0.109-0.743-0.148l-0.383-2.106h-2l-0.383 2.106c-0.251 0.039-0.499 0.088-0.743 0.148l-1.159-1.799-1.848 0.765 0.452 2.092c-0.216 0.132-0.426 0.273-0.629 0.422l-1.761-1.219-1.414 1.414 1.219 1.761c-0.149 0.203-0.29 0.413-0.422 0.629l-2.092-0.452-0.765 1.848 1.799 1.159c-0.059 0.244-0.109 0.492-0.148 0.743l-2.106 0.383v2l2.106 0.383c0.039 0.251 0.088 0.499 0.148 0.743l-1.799 1.159 0.765 1.848 2.092-0.452c0.132 0.216 0.273 0.426 0.422 0.629l-1.219 1.761 1.414 1.414 1.761-1.219c0.203 0.149 0.413 0.29 0.629 0.422l-0.452 2.092 1.848 0.765 1.159-1.799c0.244 0.059 0.492 0.109 0.743 0.148l0.383 2.106h2l0.383-2.106c0.251-0.039 0.499-0.088 0.743-0.148l1.159 1.799 1.848-0.765-0.452-2.092c0.216-0.132 0.426-0.273 0.629-0.422l1.761 1.219 1.414-1.414-1.219-1.761c0.149-0.203 0.29-0.413 0.422-0.629l2.092 0.452 0.765-1.848-1.799-1.159c0.059-0.244 0.109-0.492 0.148-0.743l2.106-0.383zM21 15.35c-2.402 0-4.35-1.948-4.35-4.35s1.948-4.35 4.35-4.35 4.35 1.948 4.35 4.35c0 2.402-1.948 4.35-4.35 4.35z" fill="#ffff00" />
</g>
<g transform="translate(48 0)">
	<path d="M4 8v20h28v-20h-28zM30 24.667l-4-6.667-4.533 3.778-3.467-5.778-12 10v-16h24v14.667zM8 15c0-1.657 1.343-3 3-3s3 1.343 3 3c0 1.657-1.343 3-3 3-1.657 0-3-1.343-3-3zM28 4h-28v20h2v-18h26z" fill="#ffff00" />
</g>
<g transform="translate(96 0)">
	<path d="M16 0c-8.837 0-16 7.163-16 16s7.163 16 16 16 16-7.163 16-16-7.163-16-16-16zM10 16c0-3.314 2.686-6 6-6s6 2.686 6 6-2.686 6-6 6-6-2.686-6-6zM28.937 21.359v0l-5.544-2.297c0.391-0.943 0.608-1.977 0.608-3.062s-0.216-2.119-0.608-3.062l5.544-2.297c0.685 1.651 1.063 3.46 1.063 5.359s-0.379 3.708-1.063 5.359v0zM21.359 3.063v0 0l-2.297 5.544c-0.943-0.391-1.977-0.607-3.062-0.607s-2.119 0.216-3.062 0.607l-2.297-5.544c1.651-0.684 3.46-1.063 5.359-1.063 1.898 0 3.708 0.379 5.359 1.063zM3.063 10.641l5.544 2.297c-0.391 0.943-0.608 1.977-0.608 3.062s0.216 2.119 0.607 3.062l-5.544 2.297c-0.685-1.651-1.063-3.46-1.063-5.359s0.379-3.708 1.063-5.359zM10.641 28.937l2.297-5.544c0.943 0.391 1.977 0.608 3.062 0.608s2.119-0.216 3.062-0.608l2.297 5.544c-1.651 0.684-3.46 1.063-5.359 1.063-1.898 0-3.708-0.379-5.359-1.063z" fill="#ffff00" />
</g>
<g transform="translate(144 0)">
	<path d="M32 7c0-0.888-0.314-2.211-1.81-3.474-0.889-0.75-2.106-1.405-3.618-1.945-2.855-1.020-6.609-1.581-10.572-1.581s-7.718 0.561-10.572 1.581c-1.512 0.54-2.729 1.194-3.618 1.945-1.496 1.263-1.81 2.587-1.81 3.474h-0.005v18h0.005c0 0.888 0.314 2.211 1.81 3.474 0.889 0.75 2.106 1.405 3.618 1.945 2.855 1.020 6.609 1.581 10.572 1.581s7.718-0.561 10.572-1.581c1.512-0.54 2.729-1.194 3.618-1.945 1.496-1.263 1.81-2.587 1.81-3.474v-18zM7.224 5.195c2.384-0.77 5.5-1.195 8.776-1.195 3.275 0 6.392 0.424 8.776 1.195 2.33 0.753 3.091 1.562 3.213 1.805-0.122 0.243-0.884 1.052-3.213 1.805-2.384 0.77-5.5 1.195-8.776 1.195-3.275 0-6.392-0.424-8.776-1.195-2.33-0.753-3.091-1.562-3.213-1.805 0.122-0.243 0.884-1.052 3.213-1.805zM24.776 26.805c-2.384 0.77-5.5 1.195-8.776 1.195s-6.392-0.424-8.776-1.195c-2.33-0.753-3.091-1.562-3.213-1.805h-0.005v-4.164c0.44 0.207 0.914 0.401 1.422 0.583 2.855 1.020 6.609 1.581 10.572 1.581s7.717-0.561 10.572-1.581c0.506-0.181 0.978-0.375 1.417-0.58v4.161c-0.122 0.243-0.884 1.052-3.213 1.805zM24.776 17.805c-2.384 0.77-5.5 1.195-8.776 1.195s-6.392-0.424-8.776-1.195c-2.33-0.753-3.091-1.562-3.213-1.805h-0.005v-4.164c0.44 0.207 0.914 0.401 1.422 0.583 2.855 1.020 6.609 1.581 10.572 1.581s7.717-0.561 10.572-1.581c0.506-0.181 0.978-0.375 1.417-0.58v4.161c-0.122 0.243-0.884 1.052-3.213 1.805z" fill="#ffff00" />
</g>
<g transform="translate(192 0)">
	<path d="M28 8v-4h-28v22c0 1.105 0.895 2 2 2h27c1.657 0 3-1.343 3-3v-17h-4zM26 26h-24v-20h24v20zM4 10h20v2h-20zM16 14h8v2h-8zM16 18h8v2h-8zM16 22h6v2h-6zM4 14h10v10h-10z" fill="#ffff00" />
</g>
<g transform="translate(240 0)">
	<path d="M34 4h-32c-1.1 0-2 0.9-2 2v20c0 1.1 0.9 2 2 2h32c1.1 0 2-0.9 2-2v-20c0-1.1-0.9-2-2-2zM20 8h4v4h-4v-4zM26 14v4h-4v-4h4zM14 8h4v4h-4v-4zM20 14v4h-4v-4h4zM8 8h4v4h-4v-4zM14 14v4h-4v-4h4zM4 8h2v4h-2v-4zM4 14h4v4h-4v-4zM6 24h-2v-4h2v4zM24 24h-16v-4h16v4zM32 24h-6v-4h6v4zM32 18h-4v-4h4v4zM32 12h-6v-4h6v4z" fill="#ffff00" />
</g>
<g transform="translate(292 0)">
	<path d="M28 6h-24c-2.2 0-4 1.8-4 4v14c0 2.2 1.8 4 4 4h24c2.2 0 4-1.8 4-4v-14c0-2.2-1.8-4-4-4zM4 24c0-4.418 2.239-8 5-8-1.657 0-3-1.343-3-3s1.343-3 3-3 3 1.343 3 3-1.343 3-3 3 5 3.582 5 8h-10zM28 24h-10v-2h10v2zM28 18h-10v-2h10v2zM28 12h-10v-2h10v2z" fill="#ffff00" />
</g>
<g transform="translate(340 0)">
	<path d="M0 28h18v4h-18zM28 4h-9.455l-5.743 22h-4.134l5.743-22h-8.411v-4h22zM29.055 32l-4.055-4.055-4.055 4.055-1.945-1.945 4.055-4.055-4.055-4.055 1.945-1.945 4.055 4.055 4.055-4.055 1.945 1.945-4.055 4.055 4.055 4.055z" fill="#ffff00" />
</g>
<g transform="translate(388 0)">
	<path d="M30 8c1.105 0 2-0.895 2-2v-4h-4v-2h-26c-1.1 0-2 0.9-2 2v28c0 1.1 0.9 2 2 2h26v-8h2c1.105 0 2-0.895 2-2v-4h-4v-2h2c1.105 0 2-0.895 2-2v-4h-4v-2h2zM18 8.010c2.203 0 3.99 1.786 3.99 3.99s-1.786 3.99-3.99 3.99c-2.203 0-3.99-1.786-3.99-3.99s1.786-3.99 3.99-3.99zM8 30h-2v-28h2v28zM24 24h-12v-2c0-2.209 1.791-4 4-4v0h4c2.209 0 4 1.791 4 4v2z" fill="#ffff00" />
</g>
<g transform="translate(436 0)">
	<path d="M12 20l4-2 14-14-2-2-14 14-2 4zM9.041 27.097c-0.989-2.085-2.052-3.149-4.137-4.137l3.097-8.525 4-2.435 12-12h-6l-12 12-6 20 20-6 12-12v-6l-12 12-2.435 4" fill="#ffff00" />
</g>
<g transform="translate(484 0)">
	<path d="M16 0l-16 12v6l4-3v15c0 1.1 0.9 2 2 2h20c1.1 0 2-0.9 2-2v-15l4 3v-6l-16-12zM26 29.996c-0.001 0.001-0.002 0.003-0.004 0.004h-9.996v-10h-6v10h-3.996c-0.001-0.001-0.003-0.002-0.004-0.004v-16.496l10-7.5 10 7.5v16.496zM18 14h4v4h-4z" fill="#ffff00" />
</g>
<g transform="translate(532 0)">
	<path d="M12 16h-10v-4h10v-4l6 6-6 6zM32 0v26l-12 6v-6h-12v-8h2v6h10v-18l8-4h-18v8h-2v-10z" fill="#ffff00" />
</g>
<g transform="translate(580 0)">
	<path d="M25 12l6-4-6-4h-7v-2.5c0-0.825-0.675-1.5-1.5-1.5h-1c-0.825 0-1.5 0.675-1.5 1.5v2.5h-10v8h10v2h-9l-4 3 4 3h9v12h4v-12h8v-6h-8v-2h7z" fill="#ffff00" />
</g>
<g transform="translate(628 0)">
	<path d="M14 24.828l-6.414-7.414 1.828-1.828 4.586 3.586 8.586-7.586 1.829 1.828zM25.993 4c0.002 0.002 0.005 0.005 0.007 0.007v23.986c-0.002 0.002-0.005 0.005-0.007 0.007h-19.986c-0.003-0.002-0.005-0.005-0.007-0.007v-23.986c0.002-0.003 0.005-0.005 0.007-0.007h-4.007v24c0 2.2 1.8 4 4 4h20c2.2 0 4-1.8 4-4v-24h-4.007zM20 4v-2c0-1.105-0.895-2-2-2h-4c-1.105 0-2 0.895-2 2v2h-4v4h16v-4h-4zM18 4h-4v-2h4v2z" fill="#ffff00" />
</g>
<g transform="translate(676 0)">
	<path d="M14 4c-7.732 0-14 6.268-14 14s6.268 14 14 14 14-6.268 14-14h-14v-14zM18 0v14h14c0-7.732-6.268-14-14-14z" fill="#ffff00" />
</g>
<g transform="translate(724 0)">
	<path d="M15.392 22.017l4.59 4.59-3.646 4.682c-0.668 0.874-1.851 0.952-2.629 0.175l-3.172-3.172c-0.778-0.778-0.699-1.961 0.175-2.629l4.682-3.646zM39.797 8.203l-4.797 4.797-6-6 4.797-4.797c-0.578-0.133-1.179-0.203-1.797-0.203-4.418 0-8 3.582-8 8 0 1.594 0.466 3.078 1.269 4.325l-4.466 3.478-6.803-6.803 9-9h-10l-4.439 4.439-0.439-0.439h-2.121v2.121l0.439 0.439-6.439 6.439 5 5 6-6 18 18 3-3-7.803-7.803 3.478-4.466c1.247 0.803 2.732 1.269 4.325 1.269 4.418 0 8-3.582 8-8 0-0.618-0.070-1.22-0.203-1.797z" fill="#ffff00" />
</g>
<g transform="translate(0 48)">
	<path d="M22 18l4-4v16h-24v-24h16l-4 4h-8v16h16zM30 2v11l-4.086-4.086-11.086 11.086h-2.828v-2.828l11.086-11.086-4.086-4.086z" fill="#ffff00" />
</g>
<g transform="translate(48 48)">
	<path d="M27 0h-24c-1.65 0-3 1.35-3 3v26c0 1.65 1.35 3 3 3h24c1.65 0 3-1.35 3-3v-26c0-1.65-1.35-3-3-3zM26 28h-22v-24h22v24zM8 18h14v2h-14zM8 22h14v2h-14zM10 9c0-1.657 1.343-3 3-3s3 1.343 3 3c0 1.657-1.343 3-3 3-1.657 0-3-1.343-3-3zM15 12h-4c-1.65 0-3 0.9-3 2v2h10v-2c0-1.1-1.35-2-3-2z" fill="#ffff00" />
</g>
<g transform="translate(96 48)">
	<path d="M2 24h6v8h-6zM10 20h6v12h-6zM18 18h6v14h-6zM26 12h6v20h-6zM32 0v9l-3.439-3.439-10.561 10.561-6-6-7.879 7.879h-2.121v-2.121l10-10 6 6 8.439-8.439-3.439-3.439z" fill="#ffff00" />
</g>
<g transform="translate(144 48)">
	<path d="M2 0v32h28v-32h-28zM28 30h-24v-28h24v28zM6 6h10v2h-10zM6 10h10v2h-10zM6 14h10v2h-10zM6 17.98h10v2h-10zM6 22h10v2h-10zM6 26h20v2h-20zM24 14v10l-2-3-2 3v-10zM26 6.828l-1.172 1.172 1.172 1.172v0.828h-2v2h-0.828l-1.172-1.172-1.172 1.172h-0.828v-2h-2v-0.828l1.172-1.172-1.172-1.172v-0.828h2v-2h0.828l1.172 1.172 1.172-1.172h0.828v2h2z" fill="#ffff00" />
</g>
<g transform="translate(192 48)">
	<path d="M14 4v-0.5c0-0.825-0.675-1.5-1.5-1.5h-5c-0.825 0-1.5 0.675-1.5 1.5v0.5h-6v4h6v0.5c0 0.825 0.675 1.5 1.5 1.5h5c0.825 0 1.5-0.675 1.5-1.5v-0.5h18v-4h-18zM8 8v-4h4v4h-4zM26 13.5c0-0.825-0.675-1.5-1.5-1.5h-5c-0.825 0-1.5 0.675-1.5 1.5v0.5h-18v4h18v0.5c0 0.825 0.675 1.5 1.5 1.5h5c0.825 0 1.5-0.675 1.5-1.5v-0.5h6v-4h-6v-0.5zM20 18v-4h4v4h-4zM14 23.5c0-0.825-0.675-1.5-1.5-1.5h-5c-0.825 0-1.5 0.675-1.5 1.5v0.5h-6v4h6v0.5c0 0.825 0.675 1.5 1.5 1.5h5c0.825 0 1.5-0.675 1.5-1.5v-0.5h18v-4h-18v-0.5zM8 28v-4h4v4h-4z" fill="#ffff00" />
</g>
<g transform="translate(240 48)">
	<path d="M31.385 14.508l-3.387-3.387c-2.608-2.61 0.731-2.402 2.669-4.14 0.010-0.009 0.019-0.018 0.029-0.026 0.045-0.041 0.089-0.083 0.133-0.126 1.562-1.562 1.562-4.095 0-5.657-1.562-1.562-4.095-1.562-5.657 0-0.043 0.043-0.085 0.088-0.126 0.133-0.009 0.010-0.018 0.019-0.026 0.029-1.739 1.939-1.53 5.279-4.142 2.668l-3.385-3.385c-0.82-0.82-2.163-0.82-2.983 0l-3.384 3.384c-0 0-0.001 0.001-0.001 0.001-2.613 2.613-2.403-0.728-4.143-2.667-0.009-0.010-0.018-0.019-0.026-0.029-0.041-0.045-0.083-0.089-0.126-0.133-1.562-1.562-4.095-1.562-5.657 0-1.562 1.562-1.562 4.095 0 5.657 0.043 0.043 0.088 0.085 0.133 0.126 0.010 0.009 0.019 0.018 0.029 0.026 1.939 1.739 5.28 1.53 2.667 4.143-0 0-0.001 0.001-0.001 0.001l-3.384 3.384c-0.82 0.82-0.82 2.163 0 2.983l3.384 3.384c0 0 0 0 0 0 2.613 2.613-0.728 2.403-2.667 4.143-0.010 0.009-0.019 0.018-0.029 0.026-0.045 0.041-0.089 0.083-0.133 0.126-1.562 1.562-1.562 4.095 0 5.657 1.562 1.562 4.095 1.562 5.657 0 0.043-0.043 0.085-0.088 0.126-0.133 0.009-0.010 0.018-0.019 0.026-0.029 1.739-1.939 1.53-5.279 4.142-2.668l3.386 3.386c0.82 0.82 2.163 0.82 2.983 0l3.932-3.932c1.567-2.014-1.401-1.966-3.185-3.565-0.010-0.009-0.019-0.017-0.029-0.026-0.045-0.041-0.089-0.083-0.133-0.126-1.562-1.562-1.562-4.095 0-5.657 1.562-1.562 4.095-1.562 5.657 0 0.043 0.043 0.085 0.088 0.126 0.133 0.009 0.010 0.018 0.019 0.026 0.029 1.6 1.783 1.551 4.751 3.565 3.185l3.932-3.932c0.82-0.82 0.82-2.163 0-2.983z" fill="#ffff00" />
</g>
</svg>
