<?xml version="1.0" encoding="UTF-8" standalone="no"?>
<svg width="1288px" height="144px" viewBox="0 0 1288 144" version="1.1" xmlns="http://www.w3.org/2000/svg" xmlns:xlink="http://www.w3.org/1999/xlink" xmlns:sketch="http://www.bohemiancoding.com/sketch/ns">
    <title>sprites</title>
    <description>Created with Sketch (http://www.bohemiancoding.com/sketch)</description>
    <defs></defs>
    <g id="Page-1" stroke="none" stroke-width="1" fill="none" fill-rule="evenodd" sketch:type="MSPage">
        <g id="sprites" sketch:type="MSLayerGroup" transform="translate(-1.000000, 0.000000)" fill="#01134B">
            <g id="Group" sketch:type="MSShapeGroup">
                <path d="M23.733,45.128 L26.314,41.514 L23.486,38.686 L19.872,41.267 C19.202,40.892 18.484,40.594 17.73,40.38 L17,36 L13,36 L12.27,40.38 C11.516,40.594 10.798,40.892 10.128,41.267 L6.514,38.686 L3.685,41.514 L6.266,45.128 C5.891,45.798 5.593,46.516 5.379,47.27 L0.999,48 L0.999,52 L5.379,52.73 C5.593,53.484 5.891,54.201 6.266,54.872 L3.685,58.486 L6.513,61.314 L10.127,58.733 C10.797,59.108 11.515,59.406 12.269,59.62 L12.999,64 L16.999,64 L17.729,59.62 C18.483,59.406 19.2,59.108 19.871,58.733 L23.485,61.314 L26.313,58.486 L23.732,54.872 C24.107,54.202 24.405,53.484 24.619,52.73 L29,52 L29,48 L24.62,47.27 C24.406,46.516 24.108,45.799 23.733,45.128 C23.733,45.128 24.108,45.799 23.733,45.128 L23.733,45.128 L23.733,45.128 Z M15,54 C12.791,54 11,52.209 11,50 C11,47.791 12.791,46 15,46 C17.209,46 19,47.791 19,50 C19,52.209 17.209,54 15,54 L15,54 L15,54 L15,54 Z M65,24 L65,20 L60.789,19.234 C60.711,18.731 60.612,18.235 60.494,17.747 L64.091,15.428 L62.56,11.732 L58.376,12.636 C58.113,12.204 57.831,11.785 57.533,11.378 L59.971,7.857 L57.143,5.029 L53.622,7.467 C53.215,7.169 52.796,6.887 52.364,6.624 L53.268,2.44 L49.572,0.909 L47.253,4.506 C46.765,4.388 46.269,4.288 45.766,4.211 L45,0 L41,0 L40.234,4.211 C39.731,4.289 39.236,4.388 38.747,4.506 L36.428,0.909 L32.733,2.44 L33.637,6.624 C33.205,6.887 32.786,7.169 32.379,7.467 L28.858,5.029 L26.03,7.857 L28.468,11.378 C28.17,11.785 27.888,12.204 27.625,12.636 L23.441,11.732 L21.91,15.428 L25.507,17.747 C25.389,18.235 25.289,18.731 25.212,19.234 L21,20 L21,24 L25.211,24.766 C25.289,25.269 25.388,25.765 25.506,26.253 L21.909,28.572 L23.44,32.268 L27.624,31.364 C27.888,31.796 28.17,32.215 28.467,32.622 L26.029,36.143 L28.857,38.971 L32.378,36.533 C32.785,36.831 33.204,37.113 33.636,37.376 L32.732,41.56 L36.427,43.091 L38.746,39.494 C39.234,39.612 39.73,39.712 40.233,39.789 L40.999,44.001 L44.999,44.001 L45.765,39.79 C46.268,39.712 46.763,39.613 47.252,39.495 L49.571,43.092 L53.267,41.561 L52.363,37.377 C52.795,37.113 53.214,36.832 53.621,36.534 L57.142,38.972 L59.97,36.144 L57.532,32.623 C57.83,32.216 58.112,31.797 58.375,31.365 L62.559,32.269 L64.09,28.573 L60.493,26.254 C60.611,25.766 60.711,25.27 60.788,24.767 L64.999,24.001 L64.999,24.001 L65,24 L65,24 Z M43,30.7 C38.195,30.7 34.3,26.805 34.3,22 C34.3,17.195 38.195,13.3 43,13.3 C47.805,13.3 51.7,17.195 51.7,22 C51.7,26.805 47.805,30.7 43,30.7 L43,30.7 L43,30.7 L43,30.7 Z M43,30.7" id="Shape"></path>
            </g>
            <g id="Group" transform="translate(81.000000, 8.000000)" sketch:type="MSShapeGroup">
                <path d="M8,8 L8,48 L64,48 L64,8 L8,8 L8,8 L8,8 L8,8 Z M60,41.333 L52,28 L42.933,35.556 L36,24 L12,44 L12,12 L60,12 L60,41.333 L60,41.333 L60,41.333 L60,41.333 Z M16,22 C16,18.686 18.686,16 22,16 C25.314,16 28,18.686 28,22 C28,25.314 25.314,28 22,28 C18.686,28 16,25.314 16,22 C16,22 16,25.314 16,22 L16,22 L16,22 Z M56,0 L0,0 L0,40 L4,40 L4,4 L56,4 L56,4 L56,0 L56,0 Z M56,0" id="Shape"></path>
            </g>
            <g id="Group" transform="translate(161.000000, 0.000000)" sketch:type="MSShapeGroup">
                <path d="M32,0 C14.327,0 0,14.327 0,32 C0,49.673 14.327,64 32,64 C49.673,64 64,49.673 64,32 C64,14.327 49.673,0 32,0 L32,0 L32,0 L32,0 Z M20,32 C20,25.372 25.372,20 32,20 C38.628,20 44,25.372 44,32 C44,38.628 38.627,44 32,44 C25.373,44 20,38.627 20,32 C20,32 20,38.627 20,32 L20,32 L20,32 Z M57.874,42.717 L57.874,42.717 L46.785,38.124 C47.567,36.238 48,34.169 48,32 C48,29.831 47.567,27.762 46.785,25.876 L57.874,21.283 C59.243,24.584 60,28.204 60,32 C60,35.796 59.243,39.416 57.874,42.717 L57.874,42.717 L57.874,42.717 L57.874,42.717 L57.874,42.717 Z M42.717,6.126 L42.717,6.126 L38.124,17.215 C36.238,16.433 34.169,16 32,16 C29.831,16 27.762,16.433 25.876,17.215 L21.283,6.126 C24.584,4.757 28.204,4 32,4 C35.797,4 39.416,4.757 42.717,6.126 C42.717,6.126 39.416,4.757 42.717,6.126 L42.717,6.126 L42.717,6.126 Z M6.126,21.283 L17.215,25.876 C16.433,27.763 16,29.831 16,32 C16,34.169 16.433,36.238 17.215,38.124 L6.126,42.717 C4.757,39.416 4,35.796 4,32 C4,28.204 4.757,24.584 6.126,21.283 C6.126,21.283 4.757,24.584 6.126,21.283 L6.126,21.283 L6.126,21.283 Z M21.283,57.874 L25.876,46.785 C27.763,47.567 29.831,48 32,48 C34.169,48 36.238,47.567 38.124,46.785 L42.717,57.874 C39.416,59.243 35.796,60 32,60 C28.203,60 24.584,59.243 21.283,57.874 C21.283,57.874 24.584,59.243 21.283,57.874 L21.283,57.874 L21.283,57.874 Z M21.283,57.874" id="Shape"></path>
            </g>
            <g id="Group" transform="translate(240.000000, 0.000000)" sketch:type="MSShapeGroup">
                <path d="M65,14 C65,12.224 64.372,9.578 61.38,7.051 C59.602,5.55 57.168,4.242 54.144,3.162 C48.435,1.123 40.926,4.4408921e-16 33,4.4408921e-16 C25.074,4.4408921e-16 17.565,1.123 11.856,3.162 C8.832,4.242 6.398,5.551 4.62,7.051 C1.628,9.577 1,12.224 1,14 L0.989,14 L0.989,50 L1,50 C1,51.776 1.628,54.423 4.62,56.949 C6.397,58.45 8.832,59.758 11.856,60.838 C17.565,62.877 25.075,64 33,64 C40.925,64 48.435,62.877 54.144,60.838 C57.168,59.758 59.603,58.449 61.38,56.949 C64.372,54.423 65,51.776 65,50 L65,14 L65,14 L65,14 L65,14 Z M15.448,10.389 C20.216,8.848 26.449,8 33,8 C39.551,8 45.784,8.849 50.551,10.389 C55.211,11.895 56.733,13.514 56.978,14 C56.733,14.486 55.211,16.105 50.551,17.611 C45.784,19.152 39.55,20 33,20 C26.449,20 20.216,19.151 15.448,17.611 C10.788,16.105 9.266,14.486 9.021,14 C9.266,13.514 10.788,11.895 15.448,10.389 C15.448,10.389 10.788,11.895 15.448,10.389 L15.448,10.389 L15.448,10.389 Z M50.551,53.611 C45.784,55.152 39.55,56 32.999,56 C26.448,56 20.215,55.152 15.447,53.611 C10.787,52.105 9.265,50.486 9.02,50 L9.009,50 L9.009,41.672 C9.889,42.085 10.838,42.475 11.854,42.838 C17.563,44.877 25.072,46 32.998,46 C40.924,46 48.433,44.877 54.142,42.838 C55.154,42.477 56.098,42.089 56.976,41.678 L56.976,50 C56.731,50.486 55.209,52.105 50.549,53.611 C50.549,53.611 55.209,52.105 50.549,53.611 L50.551,53.611 L50.551,53.611 Z M50.551,35.611 C45.784,37.152 39.55,38 32.999,38 C26.448,38 20.215,37.151 15.447,35.611 C10.787,34.105 9.265,32.486 9.02,32 L9.009,32 L9.009,23.672 C9.889,24.085 10.838,24.475 11.854,24.838 C17.563,26.877 25.072,28 32.998,28 C40.924,28 48.433,26.877 54.142,24.838 C55.154,24.477 56.098,24.089 56.976,23.678 L56.976,32 C56.731,32.486 55.209,34.105 50.549,35.611 C50.549,35.611 55.209,34.105 50.549,35.611 L50.551,35.611 L50.551,35.611 Z M50.551,35.611" id="Shape"></path>
            </g>
            <g id="Group" transform="translate(321.000000, 8.000000)" sketch:type="MSShapeGroup">
                <path d="M56,8 L56,0 L0,0 L0,44 C0,46.209 1.791,48 4,48 L58,48 C61.314,48 64,45.314 64,42 L64,8 L56,8 L56,8 L56,8 L56,8 Z M52,44 L4,44 L4,4 L52,4 L52,44 L52,44 L52,44 L52,44 Z M8,12 L48,12 L48,16 L8,16 L8,16 L8,12 L8,12 Z M32,20 L48,20 L48,24 L32,24 L32,24 L32,20 L32,20 Z M32,28 L48,28 L48,32 L32,32 L32,32 L32,28 L32,28 Z M32,36 L44,36 L44,40 L32,40 L32,40 L32,36 L32,36 Z M8,20 L28,20 L28,40 L8,40 L8,40 L8,20 L8,20 Z M8,20" id="Shape"></path>
            </g>
            <g id="Group" transform="translate(401.000000, 8.000000)" sketch:type="MSShapeGroup">
                <path d="M68,0 L4,0 C1.8,0 0,1.8 0,4 L0,44 C0,46.2 1.8,48 4,48 L68,48 C70.2,48 72,46.2 72,44 L72,4 C72,1.8 70.2,0 68,0 L68,0 L68,0 L68,0 Z M40,8 L48,8 L48,16 L40,16 L40,8 L40,8 L40,8 L40,8 Z M52,20 L52,28 L44,28 L44,20 L52,20 L52,20 L52,20 L52,20 Z M28,8 L36,8 L36,16 L28,16 L28,8 L28,8 L28,8 L28,8 Z M40,20 L40,28 L32,28 L32,20 L40,20 L40,20 L40,20 L40,20 Z M16,8 L24,8 L24,16 L16,16 L16,8 L16,8 L16,8 L16,8 Z M28,20 L28,28 L20,28 L20,20 L28,20 L28,20 L28,20 L28,20 Z M8,8 L12,8 L12,16 L8,16 L8,8 L8,8 L8,8 L8,8 Z M8,20 L16,20 L16,28 L8,28 L8,20 L8,20 L8,20 L8,20 Z M12,40 L8,40 L8,32 L12,32 L12,40 L12,40 L12,40 L12,40 Z M48,40 L16,40 L16,32 L48,32 L48,40 L48,40 L48,40 L48,40 Z M64,40 L52,40 L52,32 L64,32 L64,40 L64,40 L64,40 L64,40 Z M64,28 L56,28 L56,20 L64,20 L64,28 L64,28 L64,28 L64,28 Z M64,16 L52,16 L52,8 L64,8 L64,16 L64,16 L64,16 L64,16 Z M64,16" id="Shape"></path>
            </g>
            <g id="Group" transform="translate(489.000000, 12.000000)" sketch:type="MSShapeGroup">
                <path d="M56,0 L8,0 C3.6,0 0,3.6 0,8 L0,36 C0,40.4 3.6,44 8,44 L56,44 C60.4,44 64,40.4 64,36 L64,8 C64,3.6 60.4,0 56,0 L56,0 L56,0 L56,0 Z M8,36 C8,27.163 12.477,20 18,20 C14.686,20 12,17.314 12,14 C12,10.686 14.686,8 18,8 C21.314,8 24,10.686 24,14 C24,17.314 21.314,20 18,20 C14.686,20 28,27.163 28,36 L8,36 L8,36 L8,36 L8,36 Z M56,36 L36,36 L36,32 L56,32 L56,36 L56,36 L56,36 L56,36 Z M56,24 L36,24 L36,20 L56,20 L56,24 L56,24 L56,24 L56,24 Z M56,12 L36,12 L36,8 L56,8 L56,12 L56,12 L56,12 L56,12 Z M56,12" id="Shape"></path>
            </g>
            <g id="Group" transform="translate(569.000000, 0.000000)" sketch:type="MSShapeGroup">
                <path d="M0,56 L36,56 L36,64 L0,64 L0,64 L0,56 L0,56 Z M56,8 L37.09,8 L25.605,52 L17.337,52 L28.822,8 L12,8 L12,0 L56,0 L56,0 L56,8 L56,8 Z M58.111,64 L50,55.889 L41.889,64 L38,60.111 L46.111,52 L38,43.889 L41.889,40 L50,48.111 L58.111,40 L62,43.889 L53.889,52 L62,60.111 L62,60.111 L58.111,64 L58.111,64 Z M58.111,64" id="Shape"></path>
            </g>
            <g id="Group" transform="translate(649.000000, 0.000000)" sketch:type="MSShapeGroup">
                <path d="M60,16 C62.209,16 64,14.209 64,12 L64,4 L56,4 L56,0 L4,0 C1.8,0 0,1.8 0,4 L0,60 C0,62.2 1.8,64 4,64 L56,64 L56,48 L60,48 C62.209,48 64,46.209 64,44 L64,36 L56,36 L56,32 L60,32 C62.209,32 64,30.209 64,28 L64,20 L56,20 L56,16 L60,16 L60,16 L60,16 L60,16 Z M36,16.021 C40.407,16.021 43.979,19.594 43.979,24 C43.979,28.406 40.407,31.979 36,31.979 C31.593,31.979 28.021,28.406 28.021,24 C28.021,19.594 31.594,16.021 36,16.021 C36,16.021 31.594,16.021 36,16.021 L36,16.021 L36,16.021 Z M16,60 L12,60 L12,4 L16,4 L16,60 L16,60 L16,60 L16,60 Z M48,48 L24,48 L24,44 C24,39.582 27.582,36 32,36 L32,36 L40,36 C44.419,36 48,39.582 48,44 L48,48 L48,48 L48,48 L48,48 Z M48,48" id="Shape"></path>
            </g>
            <g id="Group" transform="translate(728.000000, 0.000000)" sketch:type="MSShapeGroup">
                <path d="M25,40 L33,36 L61,8 L57,4 L29,32 L25,40 L25,40 L25,40 L25,40 Z M19.081,54.194 C17.104,50.024 14.977,47.896 10.806,45.919 L16.999,28.87 L24.999,24.001 L48.999,0.001 L36.999,0.001 L12.999,24.001 L0.999,64.001 L40.999,52.001 L64.999,28.001 L64.999,16.001 L40.999,40.001 L36.129,48.001 L19.081,54.194 Z M19.081,54.194" id="Shape"></path>
            </g>
            <g id="Group" transform="translate(809.000000, 0.000000)" sketch:type="MSShapeGroup">
                <path d="M32,0 L0,24 L0,36 L8,30 L8,60 C8,62.2 9.8,64 12,64 L52,64 C54.2,64 56,62.2 56,60 L56,30 L64,36 L64,24 L32,0 L32,0 L32,0 L32,0 Z M52,59.993 L51.993,60 L32,60 L32,40 L20,40 L20,60 L12.007,60 L12,59.993 L12,27 L32,12 L52,27 L52,59.993 L52,59.993 L52,59.993 L52,59.993 Z M36,28 L44,28 L44,36 L36,36 L36,36 L36,28 L36,28 Z M36,28" id="Shape"></path>
            </g>
            <g id="Group" transform="translate(893.000000, 0.000000)" sketch:type="MSShapeGroup">
                <path d="M20,32 L0,32 L0,24 L20,24 L20,16 L32,28 L20,40 L20,40 L20,32 L20,32 Z M60,0 L60,52 L36,64 L36,52 L12,52 L12,36 L16,36 L16,48 L36,48 L36,12 L52,4 L16,4 L16,20 L12,20 L12,0 L12,0 L60,0 L60,0 Z M60,0" id="Shape"></path>
            </g>
            <g id="Group" transform="translate(971.000000, 0.000000)" sketch:type="MSShapeGroup">
                <path d="M48,24 L60,16 L48,8 L34,8 L34,3 C34,1.35 32.65,0 31,0 L29,0 C27.35,0 26,1.35 26,3 L26,8 L6,8 L6,24 L26,24 L26,28 L8,28 L0,34 L8,40 L26,40 L26,64 L34,64 L34,40 L50,40 L50,28 L34,28 L34,24 L48,24 L48,24 L48,24 L48,24 Z M48,24" id="Shape"></path>
            </g>
            <g id="Group" transform="translate(1053.000000, 0.000000)" sketch:type="MSShapeGroup">
                <path d="M24,49.657 L11.172,34.829 L14.829,31.172 L24.001,38.344 L41.173,23.172 L44.83,26.829 L44.83,26.829 L24,49.657 L24,49.657 Z M47.986,8 C47.991,8.004 47.996,8.009 48,8.014 L48,55.985 C47.996,55.99 47.991,55.995 47.986,55.999 L8.015,55.999 C8.01,55.995 8.005,55.99 8.001,55.985 L8.001,8.014 C8.005,8.009 8.01,8.004 8.015,8 L0.001,8 L0.001,56 C0.001,60.4 3.601,64 8.001,64 L48.001,64 C52.401,64 56.001,60.4 56.001,56 L56.001,8 L47.987,8 L47.987,8 L47.986,8 L47.986,8 Z M36,8 L36,4 C36,1.791 34.209,0 32,0 L24,0 C21.791,0 20,1.791 20,4 L20,8 L12,8 L12,16 L44,16 L44,8 L36,8 L36,8 L36,8 L36,8 Z M32,8 L24,8 L24,4 L32,4 L32,8 L32,8 L32,8 L32,8 Z M32,8" id="Shape"></path>
            </g>
            <g id="Group" transform="translate(1129.000000, 0.000000)" sketch:type="MSShapeGroup">
                <path d="M28,8 C12.536,8 0,20.536 0,36 C0,51.464 12.536,64 28,64 C43.464,64 56,51.464 56,36 L28,36 L28,8 L28,8 L28,8 L28,8 Z M36,0 L36,28 L64,28 C64,12.536 51.464,0 36,0 L36,0 L36,0 L36,0 Z M36,0" id="Shape"></path>
            </g>
            <g id="Group" transform="translate(1208.000000, 4.000000)" sketch:type="MSShapeGroup">
                <path d="M31.785,40.035 L40.966,49.216 L33.674,58.58 C32.338,60.328 29.971,60.485 28.416,58.929 L22.073,52.586 C20.517,51.03 20.675,48.664 22.422,47.328 L31.786,40.036 L31.786,40.036 L31.785,40.035 L31.785,40.035 Z M80.594,12.406 L71,22 L59,10 L68.594,0.406 C67.438,0.141 66.235,8.8817842e-16 65,8.8817842e-16 C56.163,8.8817842e-16 49,7.163 49,16 C49,19.187 49.932,22.157 51.539,24.651 L42.607,31.607 L29,18 L47,0 L27,0 L18.121,8.879 L17.242,8 L12.999,8 L12.999,12.243 L13.878,13.122 L0.999,26.001 L10.999,36.001 L22.999,24.001 L58.999,60.001 L64.999,54.001 L49.392,38.394 L56.348,29.462 C58.842,31.068 61.812,32.001 64.999,32.001 C73.836,32.001 80.999,24.838 80.999,16.001 C80.999,14.765 80.859,13.562 80.593,12.407 C80.593,12.407 80.859,13.562 80.593,12.407 L80.594,12.406 L80.594,12.406 Z M80.594,12.406" id="Shape"></path>
            </g>
            <g id="Group" transform="translate(5.000000, 84.000000)" sketch:type="MSShapeGroup">
                <path d="M40,32 L48,24 L48,56 L0,56 L0,8 L32,8 L24,16 L8,16 L8,48 L40,48 L40,48 L40,32 L40,32 Z M56,0 L56,22 L47.828,13.828 L25.656,36 L19.999,36 L19.999,30.343 L42.171,8.171 L33.999,3.55271368e-15 L33.999,3.55271368e-15 L56,0 L56,0 Z M56,0" id="Shape"></path>
            </g>
            <g id="Group" transform="translate(81.000000, 80.000000)" sketch:type="MSShapeGroup">
                <path d="M54,0 L6,0 C2.7,0 0,2.7 0,6 L0,58 C0,61.3 2.7,64 6,64 L54,64 C57.3,64 60,61.3 60,58 L60,6 C60,2.7 57.3,0 54,0 L54,0 L54,0 L54,0 Z M52,56 L8,56 L8,8 L52,8 L52,56 L52,56 L52,56 L52,56 Z M16,36 L44,36 L44,40 L16,40 L16,40 L16,36 L16,36 Z M16,44 L44,44 L44,48 L16,48 L16,48 L16,44 L16,44 Z M20,18 C20,14.686 22.686,12 26,12 C29.314,12 32,14.686 32,18 C32,21.314 29.314,24 26,24 C22.686,24 20,21.314 20,18 C20,18 20,21.314 20,18 L20,18 L20,18 Z M30,24 L22,24 C18.7,24 16,25.8 16,28 L16,32 L36,32 L36,28 C36,25.8 33.3,24 30,24 L30,24 L30,24 L30,24 Z M30,24" id="Shape"></path>
            </g>
            <g id="Group" transform="translate(165.000000, 79.000000)" sketch:type="MSShapeGroup">
                <path d="M0,49 L12,49 L12,65 L0,65 L0,65 L0,49 L0,49 Z M16,41 L28,41 L28,65 L16,65 L16,65 L16,41 L16,41 Z M32,37 L44,37 L44,65 L32,65 L32,65 L32,37 L32,37 Z M48,25 L60,25 L60,65 L48,65 L48,65 L48,25 L48,25 Z M60,1 L60,19 L53.121,12.121 L32,33.242 L20,21.242 L4.243,36.999 L0,36.999 L0,32.756 L20,12.756 L32,24.756 L48.879,7.877 L42,0.998 L42,0.998 L60,1 L60,1 Z M60,1" id="Shape"></path>
            </g>
            <g id="Group" transform="translate(245.000000, 80.000000)" sketch:type="MSShapeGroup">
                <path d="M0,0 L0,64 L56,64 L56,0 L0,0 L0,0 L0,0 L0,0 Z M52,60 L4,60 L4,4 L52,4 L52,60 L52,60 L52,60 L52,60 Z M8,12 L28,12 L28,16 L8,16 L8,16 L8,12 L8,12 Z M8,20 L28,20 L28,24 L8,24 L8,24 L8,20 L8,20 Z M8,28 L28,28 L28,32 L8,32 L8,32 L8,28 L8,28 Z M8,35.96 L28,35.96 L28,39.96 L8,39.96 L8,39.96 L8,35.96 L8,35.96 Z M8,44 L28,44 L28,48 L8,48 L8,48 L8,44 L8,44 Z M8,52 L48,52 L48,56 L8,56 L8,56 L8,52 L8,52 Z M44,28 L44,48 L40,42 L36,48 L36,28 L36,28 L44,28 L44,28 Z M48,13.657 L45.657,16 L48,18.343 L48,20 L44,20 L44,24 L42.343,24 L40,21.657 L37.657,24 L36,24 L36,20 L32,20 L32,18.343 L34.343,16 L32,13.657 L32,12 L36,12 L36,8 L37.657,8 L40,10.343 L42.343,8 L44,8 L44,12 L48,12 L48,12 L48,13.657 L48,13.657 Z M48,13.657" id="Shape"></path>
            </g>
            <g id="Group" transform="translate(321.000000, 84.000000)" sketch:type="MSShapeGroup">
                <path d="M28,4 L28,3 C28,1.35 26.65,0 25,0 L15,0 C13.35,0 12,1.35 12,3 L12,4 L0,4 L0,12 L12,12 L12,13 C12,14.65 13.35,16 15,16 L25,16 C26.65,16 28,14.65 28,13 L28,12 L64,12 L64,4 L28,4 L28,4 L28,4 L28,4 Z M16,12 L16,4 L24,4 L24,12 L16,12 L16,12 L16,12 L16,12 Z M52,23 C52,21.35 50.65,20 49,20 L39,20 C37.35,20 36,21.35 36,23 L36,24 L0,24 L0,32 L36,32 L36,33 C36,34.65 37.35,36 39,36 L49,36 C50.65,36 52,34.65 52,33 L52,32 L64,32 L64,24 L52,24 L52,23 L52,23 L52,23 L52,23 Z M40,32 L40,24 L48,24 L48,32 L40,32 L40,32 L40,32 L40,32 Z M28,43 C28,41.35 26.65,40 25,40 L15,40 C13.35,40 12,41.35 12,43 L12,44 L0,44 L0,52 L12,52 L12,53 C12,54.65 13.35,56 15,56 L25,56 C26.65,56 28,54.65 28,53 L28,52 L64,52 L64,44 L28,44 L28,43 L28,43 L28,43 L28,43 Z M16,52 L16,44 L24,44 L24,52 L16,52 L16,52 L16,52 L16,52 Z M16,52" id="Shape"></path>
            </g>
            <g id="Group" transform="translate(400.000000, 79.000000)" sketch:type="MSShapeGroup">
                <path d="M63.77,30.017 L56.996,23.243 C51.78,18.023 58.457,18.44 62.334,14.962 C62.353,14.945 62.373,14.927 62.392,14.909 C62.482,14.827 62.571,14.743 62.657,14.657 C65.781,11.533 65.781,6.468 62.657,3.343 C59.533,0.219 54.467,0.219 51.343,3.343 C51.256,3.43 51.173,3.518 51.091,3.608 C51.073,3.627 51.056,3.646 51.038,3.666 C47.56,7.544 47.978,14.224 42.754,9.001 L35.983,2.23 C34.342,0.589 31.657,0.589 30.016,2.23 L23.248,8.998 L23.246,9 C18.02,14.226 18.439,7.545 14.961,3.666 C14.943,3.647 14.926,3.627 14.908,3.608 C14.826,3.518 14.742,3.429 14.656,3.343 C11.532,0.219 6.467,0.219 3.342,3.343 C0.218,6.467 0.218,11.533 3.342,14.657 C3.429,14.744 3.517,14.827 3.607,14.909 C3.626,14.927 3.645,14.944 3.665,14.962 C7.543,18.441 14.224,18.022 8.999,23.247 L8.997,23.249 L2.229,30.016 C0.588,31.657 0.588,34.342 2.229,35.983 L8.998,42.752 L8.998,42.752 C14.224,47.978 7.543,47.559 3.664,51.037 C3.645,51.054 3.625,51.072 3.606,51.09 C3.516,51.172 3.427,51.256 3.341,51.342 C0.217,54.466 0.217,59.531 3.341,62.656 C6.465,65.78 11.531,65.78 14.655,62.656 C14.742,62.569 14.825,62.481 14.907,62.391 C14.925,62.372 14.942,62.353 14.96,62.333 C18.438,58.455 18.02,51.775 23.244,56.998 L30.015,63.769 C31.656,65.41 34.341,65.41 35.982,63.769 L43.847,55.904 C46.98,51.876 41.044,51.973 37.478,48.773 C37.459,48.756 37.439,48.738 37.42,48.72 C37.33,48.638 37.241,48.554 37.155,48.468 C34.031,45.344 34.031,40.278 37.155,37.154 C40.279,34.03 45.345,34.03 48.469,37.154 C48.556,37.241 48.639,37.329 48.721,37.419 C48.739,37.438 48.756,37.457 48.774,37.477 C51.973,41.043 51.876,46.98 55.905,43.846 L63.77,35.981 C65.411,34.34 65.411,31.655 63.77,30.014 C63.77,30.014 65.411,31.655 63.77,30.014 L63.77,30.017 L63.77,30.017 Z M63.77,30.017" id="Shape"></path>
            </g>
        </g>
    </g>
</svg>