<?xml version="1.0" encoding="utf-8"?>
<!-- Generated by IcoMoon.io -->
<!DOCTYPE svg PUBLIC "-//W3C//DTD SVG 1.1//EN" "http://www.w3.org/Graphics/SVG/1.1/DTD/svg11.dtd">
<svg version="1.1" xmlns="http://www.w3.org/2000/svg" xmlns:xlink="http://www.w3.org/1999/xlink" width="64" height="64" viewBox="0 0 64 64">
	<path d="M60 16c2.209 0 4-1.791 4-4v-8h-8v-4h-52c-2.2 0-4 1.8-4 4v56c0 2.2 1.8 4 4 4h52v-16h4c2.209 0 4-1.791 4-4v-8h-8v-4h4c2.209 0 4-1.791 4-4v-8h-8v-4h4zM36 16.021c4.407 0 7.979 3.573 7.979 7.979s-3.572 7.979-7.979 7.979c-4.407 0-7.979-3.573-7.979-7.979s3.573-7.979 7.979-7.979zM16 60h-4v-56h4v56zM48 48h-24v-4c0-4.418 3.582-8 8-8v0h8c4.419 0 8 3.582 8 8v4z" fill="#1134b" />
</svg>
