<?xml version="1.0" encoding="utf-8"?>
<!-- Generated by IcoMoon.io -->
<!DOCTYPE svg PUBLIC "-//W3C//DTD SVG 1.1//EN" "http://www.w3.org/Graphics/SVG/1.1/DTD/svg11.dtd">
<svg version="1.1" xmlns="http://www.w3.org/2000/svg" xmlns:xlink="http://www.w3.org/1999/xlink" width="1026" height="112" viewBox="0 0 1026 112">
<g transform="translate(0 0)">
	<path d="M17.049 33.846l1.936-2.71-2.121-2.121-2.71 1.936c-0.503-0.281-1.041-0.505-1.606-0.665l-0.548-3.285h-3l-0.547 3.285c-0.565 0.16-1.104 0.384-1.606 0.665l-2.71-1.936-2.121 2.121 1.936 2.71c-0.281 0.503-0.505 1.041-0.665 1.606l-3.285 0.548v3l3.285 0.548c0.16 0.565 0.384 1.104 0.665 1.606l-1.936 2.71 2.121 2.121 2.71-1.936c0.503 0.281 1.041 0.505 1.606 0.665l0.548 3.285h3l0.548-3.285c0.565-0.16 1.104-0.384 1.606-0.665l2.71 1.936 2.121-2.121-1.936-2.71c0.281-0.503 0.505-1.041 0.665-1.606l3.285-0.547v-3l-3.285-0.548c-0.16-0.565-0.384-1.104-0.665-1.606zM10.5 40.5c-1.657 0-3-1.343-3-3s1.343-3 3-3 3 1.343 3 3-1.343 3-3 3zM48 18v-3l-3.159-0.574c-0.058-0.377-0.133-0.749-0.221-1.115l2.698-1.739-1.148-2.772-3.138 0.678c-0.198-0.324-0.409-0.638-0.632-0.944l1.828-2.641-2.121-2.121-2.641 1.828c-0.305-0.223-0.62-0.435-0.944-0.633l0.678-3.138-2.772-1.148-1.739 2.698c-0.366-0.089-0.738-0.163-1.115-0.221l-0.574-3.159h-3l-0.574 3.159c-0.377 0.058-0.749 0.133-1.115 0.221l-1.739-2.698-2.772 1.148 0.678 3.138c-0.324 0.198-0.638 0.409-0.944 0.633l-2.641-1.828-2.121 2.121 1.828 2.641c-0.223 0.305-0.435 0.62-0.633 0.944l-3.138-0.678-1.148 2.772 2.698 1.739c-0.089 0.366-0.163 0.738-0.221 1.115l-3.159 0.574v3l3.159 0.574c0.058 0.377 0.133 0.749 0.221 1.115l-2.698 1.739 1.148 2.772 3.138-0.678c0.198 0.324 0.409 0.638 0.633 0.944l-1.828 2.641 2.121 2.121 2.641-1.828c0.305 0.223 0.62 0.435 0.944 0.632l-0.678 3.138 2.772 1.148 1.739-2.698c0.366 0.089 0.738 0.163 1.115 0.221l0.574 3.159h3l0.574-3.159c0.377-0.058 0.749-0.133 1.115-0.221l1.739 2.698 2.772-1.148-0.678-3.138c0.324-0.198 0.638-0.409 0.944-0.632l2.641 1.828 2.121-2.121-1.828-2.641c0.223-0.305 0.435-0.62 0.632-0.944l3.138 0.678 1.148-2.772-2.698-1.739c0.089-0.366 0.163-0.738 0.221-1.115l3.159-0.574zM31.5 23.025c-3.604 0-6.525-2.921-6.525-6.525s2.921-6.525 6.525-6.525 6.525 2.921 6.525 6.525c0 3.604-2.921 6.525-6.525 6.525z" fill="#ff" />
</g>
<g transform="translate(64 0)">
	<path d="M6 12v30h42v-30h-42zM45 37l-6-10-6.8 5.667-5.2-8.667-18 15v-24h36v22zM12 22.5c0-2.485 2.015-4.5 4.5-4.5s4.5 2.015 4.5 4.5c0 2.485-2.015 4.5-4.5 4.5-2.485 0-4.5-2.015-4.5-4.5zM42 6h-42v30h3v-27h39z" fill="#ff" />
</g>
<g transform="translate(128 0)">
	<path d="M24 0c-13.255 0-24 10.745-24 24s10.745 24 24 24 24-10.745 24-24-10.745-24-24-24zM15 24c0-4.971 4.029-9 9-9s9 4.029 9 9-4.029 9-9 9-9-4.029-9-9zM43.405 32.038v0l-8.317-3.445c0.587-1.415 0.911-2.966 0.911-4.593s-0.324-3.178-0.911-4.593l8.317-3.445c1.027 2.476 1.595 5.19 1.595 8.038s-0.568 5.562-1.595 8.038v0zM32.038 4.595v0 0l-3.445 8.317c-1.415-0.587-2.966-0.911-4.593-0.911s-3.178 0.324-4.593 0.911l-3.445-8.317c2.476-1.027 5.191-1.595 8.038-1.595 2.847 0 5.562 0.568 8.038 1.595zM4.595 15.962l8.317 3.445c-0.587 1.415-0.911 2.966-0.911 4.593s0.324 3.178 0.911 4.593l-8.317 3.445c-1.027-2.476-1.595-5.19-1.595-8.038s0.568-5.562 1.595-8.038zM15.962 43.405l3.445-8.317c1.415 0.587 2.966 0.911 4.593 0.911s3.178-0.324 4.593-0.911l3.445 8.317c-2.476 1.027-5.19 1.595-8.038 1.595-2.847 0-5.562-0.568-8.038-1.595z" fill="#ff" />
</g>
<g transform="translate(192 0)">
	<path d="M48 10.5c0-1.332-0.471-3.317-2.715-5.211-1.333-1.126-3.159-2.107-5.427-2.917-4.282-1.529-9.914-2.371-15.858-2.371s-11.576 0.842-15.858 2.371c-2.268 0.81-4.094 1.791-5.427 2.917-2.244 1.895-2.715 3.88-2.715 5.212h-0.008v27h0.008c0 1.332 0.471 3.317 2.715 5.212 1.333 1.126 3.159 2.107 5.427 2.917 4.282 1.529 9.914 2.371 15.858 2.371s11.576-0.842 15.858-2.371c2.268-0.81 4.094-1.791 5.427-2.917 2.244-1.895 2.715-3.88 2.715-5.212v-27zM10.836 7.792c3.576-1.156 8.25-1.792 13.164-1.792 4.913 0 9.588 0.636 13.164 1.792 3.495 1.13 4.637 2.344 4.82 2.708-0.183 0.364-1.326 1.578-4.82 2.708-3.576 1.156-8.25 1.792-13.164 1.792-4.913 0-9.588-0.636-13.164-1.792-3.495-1.13-4.637-2.344-4.82-2.708 0.183-0.364 1.326-1.578 4.82-2.708zM37.164 40.208c-3.576 1.156-8.25 1.792-13.164 1.792s-9.588-0.636-13.164-1.792c-3.495-1.129-4.637-2.344-4.82-2.708h-0.008v-6.246c0.66 0.31 1.371 0.602 2.134 0.874 4.282 1.529 9.914 2.371 15.858 2.371s11.576-0.842 15.858-2.371c0.759-0.271 1.467-0.562 2.126-0.87v6.242c-0.183 0.364-1.325 1.579-4.82 2.708zM37.164 26.708c-3.576 1.156-8.25 1.792-13.164 1.792s-9.588-0.636-13.164-1.792c-3.495-1.13-4.637-2.344-4.82-2.708h-0.008v-6.246c0.66 0.31 1.371 0.602 2.134 0.874 4.282 1.529 9.914 2.371 15.858 2.371s11.576-0.842 15.858-2.371c0.759-0.271 1.467-0.562 2.126-0.87v6.242c-0.183 0.364-1.325 1.578-4.82 2.708z" fill="#ff" />
</g>
<g transform="translate(256 0)">
	<path d="M42 12v-6h-42v33c0 1.657 1.343 3 3 3h40.5c2.485 0 4.5-2.015 4.5-4.5v-25.5h-6zM39 39h-36v-30h36v30zM6 15h30v3h-30zM24 21h12v3h-12zM24 27h12v3h-12zM24 33h9v3h-9zM6 21h15v15h-15z" fill="#ff" />
</g>
<g transform="translate(320 0)">
	<path d="M51 6h-48c-1.65 0-3 1.35-3 3v30c0 1.65 1.35 3 3 3h48c1.65 0 3-1.35 3-3v-30c0-1.65-1.35-3-3-3zM30 12h6v6h-6v-6zM39 21v6h-6v-6h6zM21 12h6v6h-6v-6zM30 21v6h-6v-6h6zM12 12h6v6h-6v-6zM21 21v6h-6v-6h6zM6 12h3v6h-3v-6zM6 21h6v6h-6v-6zM9 36h-3v-6h3v6zM36 36h-24v-6h24v6zM48 36h-9v-6h9v6zM48 27h-6v-6h6v6zM48 18h-9v-6h9v6z" fill="#ff" />
</g>
<g transform="translate(390 0)">
	<path d="M42 9h-36c-3.3 0-6 2.7-6 6v21c0 3.3 2.7 6 6 6h36c3.3 0 6-2.7 6-6v-21c0-3.3-2.7-6-6-6zM6 36c0-6.627 3.358-12 7.5-12-2.485 0-4.5-2.015-4.5-4.5s2.015-4.5 4.5-4.5 4.5 2.015 4.5 4.5-2.015 4.5-4.5 4.5 7.5 5.373 7.5 12h-15zM42 36h-15v-3h15v3zM42 27h-15v-3h15v3zM42 18h-15v-3h15v3z" fill="#ff" />
</g>
<g transform="translate(454 0)">
	<path d="M0 42h27v6h-27zM42 6h-14.182l-8.614 33h-6.201l8.614-33h-12.616v-6h33zM43.583 48l-6.083-6.083-6.083 6.083-2.917-2.917 6.083-6.083-6.083-6.083 2.917-2.917 6.083 6.083 6.083-6.083 2.917 2.917-6.083 6.083 6.083 6.083z" fill="#ff" />
</g>
<g transform="translate(518 0)">
	<path d="M45 12c1.657 0 3-1.343 3-3v-6h-6v-3h-39c-1.65 0-3 1.35-3 3v42c0 1.65 1.35 3 3 3h39v-12h3c1.657 0 3-1.343 3-3v-6h-6v-3h3c1.657 0 3-1.343 3-3v-6h-6v-3h3zM27 12.015c3.305 0 5.985 2.679 5.985 5.985s-2.679 5.985-5.985 5.985c-3.305 0-5.985-2.679-5.985-5.985s2.679-5.985 5.985-5.985zM12 45h-3v-42h3v42zM36 36h-18v-3c0-3.314 2.686-6 6-6v0h6c3.314 0 6 2.686 6 6v3z" fill="#ff" />
</g>
<g transform="translate(582 0)">
	<path d="M18 30l6-3 21-21-3-3-21 21-3 6zM13.561 40.645c-1.483-3.128-3.078-4.723-6.206-6.206l4.645-12.787 6-3.652 18-18h-9l-18 18-9 30 30-9 18-18v-9l-18 18-3.652 6" fill="#ff" />
</g>
<g transform="translate(646 0)">
	<path d="M24 0l-24 18v9l6-4.5v22.5c0 1.65 1.35 3 3 3h30c1.65 0 3-1.35 3-3v-22.5l6 4.5v-9l-24-18zM39 44.995c-0.002 0.002-0.004 0.004-0.006 0.005h-14.994v-15h-9v15h-5.995c-0.002-0.002-0.004-0.004-0.005-0.005v-24.745l15-11.25 15 11.25v24.745zM27 21h6v6h-6z" fill="#ff" />
</g>
<g transform="translate(710 0)">
	<path d="M18 24h-15v-6h15v-6l9 9-9 9zM48 0v39l-18 9v-9h-18v-12h3v9h15v-27l12-6h-27v12h-3v-15z" fill="#ff" />
</g>
<g transform="translate(774 0)">
	<path d="M37.5 18l9-6-9-6h-10.5v-3.75c0-1.237-1.013-2.25-2.25-2.25h-1.5c-1.237 0-2.25 1.013-2.25 2.25v3.75h-15v12h15v3h-13.5l-6 4.5 6 4.5h13.5v18h6v-18h12v-9h-12v-3h10.5z" fill="#ff" />
</g>
<g transform="translate(838 0)">
	<path d="M21 37.243l-9.621-11.121 2.743-2.743 6.879 5.379 12.879-11.379 2.743 2.743zM38.989 6c0.004 0.003 0.008 0.007 0.011 0.011v35.979c-0.003 0.004-0.007 0.008-0.011 0.011h-29.979c-0.004-0.003-0.008-0.007-0.011-0.011v-35.979c0.003-0.004 0.007-0.008 0.011-0.011h-6.011v36c0 3.3 2.7 6 6 6h30c3.3 0 6-2.7 6-6v-36h-6.011zM30 6v-3c0-1.657-1.343-3-3-3h-6c-1.657 0-3 1.343-3 3v3h-6v6h24v-6h-6zM27 6h-6v-3h6v3z" fill="#ff" />
</g>
<g transform="translate(902 0)">
	<path d="M21 6c-11.598 0-21 9.402-21 21s9.402 21 21 21 21-9.402 21-21h-21v-21zM27 0v21h21c0-11.598-9.402-21-21-21z" fill="#ff" />
</g>
<g transform="translate(966 0)">
	<path d="M23.089 33.026l6.885 6.885-5.469 7.023c-1.002 1.311-2.777 1.428-3.944 0.262l-4.757-4.757c-1.167-1.167-1.049-2.941 0.262-3.944l7.023-5.469zM59.696 12.304l-7.196 7.196-9-9 7.196-7.196c-0.867-0.199-1.769-0.304-2.696-0.304-6.627 0-12 5.373-12 12 0 2.39 0.699 4.617 1.904 6.488l-6.699 5.217-10.205-10.205 13.5-13.5h-15l-6.659 6.659-0.659-0.659h-3.182v3.182l0.659 0.659-9.659 9.659 7.5 7.5 9-9 27 27 4.5-4.5-11.705-11.705 5.217-6.699c1.871 1.205 4.098 1.904 6.488 1.904 6.627 0 12-5.373 12-12 0-0.927-0.105-1.829-0.304-2.696z" fill="#ff" />
</g>
<g transform="translate(0 64)">
	<path d="M33 27l6-6v24h-36v-36h24l-6 6h-12v24h24zM45 3v16.5l-6.129-6.129-16.629 16.629h-4.243v-4.243l16.629-16.629-6.129-6.129z" fill="#ff" />
</g>
<g transform="translate(64 64)">
	<path d="M40.5 0h-36c-2.475 0-4.5 2.025-4.5 4.5v39c0 2.475 2.025 4.5 4.5 4.5h36c2.475 0 4.5-2.025 4.5-4.5v-39c0-2.475-2.025-4.5-4.5-4.5zM39 42h-33v-36h33v36zM12 27h21v3h-21zM12 33h21v3h-21zM15 13.5c0-2.485 2.015-4.5 4.5-4.5s4.5 2.015 4.5 4.5c0 2.485-2.015 4.5-4.5 4.5-2.485 0-4.5-2.015-4.5-4.5zM22.5 18h-6c-2.475 0-4.5 1.35-4.5 3v3h15v-3c0-1.65-2.025-3-4.5-3z" fill="#ff" />
</g>
<g transform="translate(128 64)">
	<path d="M3 36h9v12h-9zM15 30h9v18h-9zM27 27h9v21h-9zM39 18h9v30h-9zM48 0v13.5l-5.159-5.159-15.841 15.841-9-9-11.818 11.818h-3.182v-3.182l15-15 9 9 12.659-12.659-5.159-5.159z" fill="#ff" />
</g>
<g transform="translate(192 64)">
	<path d="M3 0v48h42v-48h-42zM42 45h-36v-42h36v42zM9 9h15v3h-15zM9 15h15v3h-15zM9 21h15v3h-15zM9 26.97h15v3h-15zM9 33h15v3h-15zM9 39h30v3h-30zM36 21v15l-3-4.5-3 4.5v-15zM39 10.243l-1.757 1.757 1.757 1.757v1.243h-3v3h-1.243l-1.757-1.757-1.757 1.757h-1.243v-3h-3v-1.243l1.757-1.757-1.757-1.757v-1.243h3v-3h1.243l1.757 1.757 1.757-1.757h1.243v3h3z" fill="#ff" />
</g>
<g transform="translate(256 64)">
	<path d="M21 6v-0.75c0-1.238-1.013-2.25-2.25-2.25h-7.5c-1.238 0-2.25 1.012-2.25 2.25v0.75h-9v6h9v0.75c0 1.237 1.012 2.25 2.25 2.25h7.5c1.237 0 2.25-1.013 2.25-2.25v-0.75h27v-6h-27zM12 12v-6h6v6h-6zM39 20.25c0-1.237-1.013-2.25-2.25-2.25h-7.5c-1.237 0-2.25 1.013-2.25 2.25v0.75h-27v6h27v0.75c0 1.237 1.013 2.25 2.25 2.25h7.5c1.237 0 2.25-1.013 2.25-2.25v-0.75h9v-6h-9v-0.75zM30 27v-6h6v6h-6zM21 35.25c0-1.237-1.013-2.25-2.25-2.25h-7.5c-1.238 0-2.25 1.013-2.25 2.25v0.75h-9v6h9v0.75c0 1.237 1.012 2.25 2.25 2.25h7.5c1.237 0 2.25-1.013 2.25-2.25v-0.75h27v-6h-27v-0.75zM12 42v-6h6v6h-6z" fill="#ff" />
</g>
<g transform="translate(320 64)">
	<path d="M47.077 21.762l-5.081-5.081c-3.912-3.915 1.096-3.602 4.004-6.21 0.015-0.013 0.029-0.026 0.043-0.040 0.067-0.062 0.134-0.124 0.199-0.189 2.343-2.343 2.343-6.142 0-8.485-2.343-2.343-6.142-2.343-8.485 0-0.065 0.065-0.128 0.132-0.189 0.199-0.013 0.014-0.026 0.029-0.040 0.043-2.609 2.908-2.295 7.918-6.213 4.001l-5.078-5.078c-1.231-1.231-3.244-1.231-4.475 0l-5.076 5.076c-0 0-0.001 0.001-0.001 0.001-3.919 3.919-3.605-1.092-6.214-4-0.013-0.015-0.026-0.029-0.040-0.043-0.062-0.067-0.124-0.134-0.189-0.199-2.343-2.343-6.142-2.343-8.485 0-2.343 2.343-2.343 6.142 0 8.485 0.065 0.065 0.132 0.128 0.199 0.189 0.014 0.013 0.029 0.026 0.043 0.040 2.909 2.609 7.919 2.295 4 6.214-0 0-0.001 0.001-0.001 0.001l-5.076 5.076c-1.231 1.231-1.231 3.244 0 4.475l5.077 5.077c0 0 0 0 0 0 3.919 3.919-1.092 3.605-4 6.214-0.015 0.013-0.029 0.026-0.043 0.040-0.067 0.062-0.134 0.124-0.199 0.189-2.343 2.343-2.343 6.142 0 8.485 2.343 2.343 6.142 2.343 8.485 0 0.065-0.065 0.128-0.132 0.189-0.199 0.013-0.014 0.026-0.029 0.040-0.043 2.609-2.908 2.295-7.918 6.213-4.002l5.078 5.078c1.231 1.23 3.244 1.23 4.475 0l5.898-5.898c2.35-3.021-2.102-2.949-4.777-5.348-0.014-0.013-0.029-0.026-0.043-0.040-0.068-0.062-0.134-0.124-0.199-0.189-2.343-2.343-2.343-6.142 0-8.485 2.343-2.343 6.142-2.343 8.485 0 0.065 0.065 0.128 0.132 0.189 0.199 0.013 0.014 0.026 0.029 0.040 0.043 2.399 2.675 2.327 7.127 5.348 4.777l5.898-5.898c1.231-1.231 1.231-3.244 0-4.475z" fill="#ff" />
</g>
</svg>
