<?xml version="1.0" encoding="utf-8"?>
<!-- Generated by IcoMoon.io -->
<!DOCTYPE svg PUBLIC "-//W3C//DTD SVG 1.1//EN" "http://www.w3.org/Graphics/SVG/1.1/DTD/svg11.dtd">
<svg version="1.1" xmlns="http://www.w3.org/2000/svg" xmlns:xlink="http://www.w3.org/1999/xlink" width="502" height="48" viewBox="0 0 502 48">
<g transform="translate(0 0)">
	<path d="M5.683 11.282l0.645-0.903-0.707-0.707-0.903 0.645c-0.168-0.094-0.347-0.168-0.535-0.222l-0.183-1.095h-1l-0.183 1.095c-0.188 0.053-0.368 0.128-0.535 0.222l-0.903-0.645-0.707 0.707 0.645 0.903c-0.094 0.168-0.168 0.347-0.222 0.535l-1.095 0.183v1l1.095 0.183c0.053 0.188 0.128 0.368 0.222 0.535l-0.645 0.903 0.707 0.707 0.903-0.645c0.168 0.094 0.347 0.168 0.535 0.222l0.183 1.095h1l0.183-1.095c0.188-0.053 0.368-0.128 0.535-0.222l0.903 0.645 0.707-0.707-0.645-0.903c0.094-0.168 0.168-0.347 0.222-0.535l1.095-0.182v-1l-1.095-0.183c-0.053-0.188-0.128-0.368-0.222-0.535zM3.5 13.5c-0.552 0-1-0.448-1-1s0.448-1 1-1 1 0.448 1 1-0.448 1-1 1zM16 6v-1l-1.053-0.191c-0.019-0.126-0.044-0.25-0.074-0.372l0.899-0.58-0.383-0.924-1.046 0.226c-0.066-0.108-0.136-0.213-0.211-0.315l0.609-0.88-0.707-0.707-0.88 0.609c-0.102-0.074-0.207-0.145-0.315-0.211l0.226-1.046-0.924-0.383-0.58 0.899c-0.122-0.030-0.246-0.054-0.372-0.074l-0.191-1.053h-1l-0.191 1.053c-0.126 0.019-0.25 0.044-0.372 0.074l-0.58-0.899-0.924 0.383 0.226 1.046c-0.108 0.066-0.213 0.136-0.315 0.211l-0.88-0.609-0.707 0.707 0.609 0.88c-0.074 0.102-0.145 0.207-0.211 0.315l-1.046-0.226-0.383 0.924 0.899 0.58c-0.030 0.122-0.054 0.246-0.074 0.372l-1.053 0.191v1l1.053 0.191c0.019 0.126 0.044 0.25 0.074 0.372l-0.899 0.58 0.383 0.924 1.046-0.226c0.066 0.108 0.136 0.213 0.211 0.315l-0.609 0.88 0.707 0.707 0.88-0.609c0.102 0.074 0.207 0.145 0.315 0.211l-0.226 1.046 0.924 0.383 0.58-0.899c0.122 0.030 0.246 0.054 0.372 0.074l0.191 1.053h1l0.191-1.053c0.126-0.019 0.25-0.044 0.372-0.074l0.58 0.899 0.924-0.383-0.226-1.046c0.108-0.066 0.213-0.136 0.315-0.211l0.88 0.609 0.707-0.707-0.609-0.88c0.074-0.102 0.145-0.207 0.211-0.315l1.046 0.226 0.383-0.924-0.899-0.58c0.030-0.122 0.054-0.246 0.074-0.372l1.053-0.191zM10.5 7.675c-1.201 0-2.175-0.974-2.175-2.175s0.974-2.175 2.175-2.175 2.175 0.974 2.175 2.175c0 1.201-0.974 2.175-2.175 2.175z" fill="#7b0b66" />
</g>
<g transform="translate(32 0)">
	<path d="M2 4v10h14v-10h-14zM15 12.333l-2-3.333-2.267 1.889-1.733-2.889-6 5v-8h12v7.333zM4 7.5c0-0.828 0.672-1.5 1.5-1.5s1.5 0.672 1.5 1.5c0 0.828-0.672 1.5-1.5 1.5-0.828 0-1.5-0.672-1.5-1.5zM14 2h-14v10h1v-9h13z" fill="#7b0b66" />
</g>
<g transform="translate(64 0)">
	<path d="M8 0c-4.418 0-8 3.582-8 8s3.582 8 8 8 8-3.582 8-8-3.582-8-8-8zM5 8c0-1.657 1.343-3 3-3s3 1.343 3 3-1.343 3-3 3-3-1.343-3-3zM14.468 10.679v0l-2.772-1.148c0.196-0.472 0.304-0.989 0.304-1.531s-0.108-1.059-0.304-1.531l2.772-1.148c0.342 0.825 0.532 1.73 0.532 2.679s-0.189 1.854-0.532 2.679v0zM10.679 1.532v0 0l-1.148 2.772c-0.472-0.196-0.989-0.304-1.531-0.304s-1.059 0.108-1.531 0.304l-1.148-2.772c0.825-0.342 1.73-0.532 2.679-0.532 0.949 0 1.854 0.189 2.679 0.532zM1.532 5.321l2.772 1.148c-0.196 0.472-0.304 0.989-0.304 1.531s0.108 1.059 0.304 1.531l-2.772 1.148c-0.342-0.825-0.532-1.73-0.532-2.679s0.189-1.854 0.532-2.679zM5.321 14.468l1.148-2.772c0.472 0.196 0.989 0.304 1.531 0.304s1.059-0.108 1.531-0.304l1.148 2.772c-0.825 0.342-1.73 0.532-2.679 0.532-0.949 0-1.854-0.189-2.679-0.532z" fill="#7b0b66" />
</g>
<g transform="translate(96 0)">
	<path d="M16 3.5c0-0.444-0.157-1.106-0.905-1.737-0.444-0.375-1.053-0.702-1.809-0.972-1.427-0.51-3.305-0.79-5.286-0.79s-3.859 0.281-5.286 0.79c-0.756 0.27-1.365 0.597-1.809 0.972-0.748 0.632-0.905 1.293-0.905 1.737h-0.003v9h0.003c0 0.444 0.157 1.106 0.905 1.737 0.444 0.375 1.053 0.702 1.809 0.972 1.427 0.51 3.305 0.79 5.286 0.79s3.859-0.281 5.286-0.79c0.756-0.27 1.365-0.597 1.809-0.972 0.748-0.632 0.905-1.293 0.905-1.737v-9zM3.612 2.597c1.192-0.385 2.75-0.597 4.388-0.597 1.638 0 3.196 0.212 4.388 0.597 1.165 0.377 1.546 0.781 1.607 0.903-0.061 0.121-0.442 0.526-1.607 0.903-1.192 0.385-2.75 0.597-4.388 0.597-1.638 0-3.196-0.212-4.388-0.597-1.165-0.377-1.546-0.781-1.607-0.903 0.061-0.121 0.442-0.526 1.607-0.903zM12.388 13.403c-1.192 0.385-2.75 0.597-4.388 0.597s-3.196-0.212-4.388-0.597c-1.165-0.376-1.546-0.781-1.607-0.903h-0.003v-2.082c0.22 0.103 0.457 0.201 0.711 0.291 1.427 0.51 3.305 0.79 5.286 0.79s3.859-0.281 5.286-0.79c0.253-0.090 0.489-0.187 0.709-0.29v2.081c-0.061 0.121-0.442 0.526-1.607 0.903zM12.388 8.903c-1.192 0.385-2.75 0.597-4.388 0.597s-3.196-0.212-4.388-0.597c-1.165-0.377-1.546-0.781-1.607-0.903h-0.003v-2.082c0.22 0.103 0.457 0.201 0.711 0.291 1.427 0.51 3.305 0.79 5.286 0.79s3.859-0.281 5.286-0.79c0.253-0.090 0.489-0.187 0.709-0.29v2.081c-0.061 0.121-0.442 0.526-1.607 0.903z" fill="#7b0b66" />
</g>
<g transform="translate(128 0)">
	<path d="M14 4v-2h-14v11c0 0.552 0.448 1 1 1h13.5c0.828 0 1.5-0.672 1.5-1.5v-8.5h-2zM13 13h-12v-10h12v10zM2 5h10v1h-10zM8 7h4v1h-4zM8 9h4v1h-4zM8 11h3v1h-3zM2 7h5v5h-5z" fill="#7b0b66" />
</g>
<g transform="translate(160 0)">
	<path d="M17 2h-16c-0.55 0-1 0.45-1 1v10c0 0.55 0.45 1 1 1h16c0.55 0 1-0.45 1-1v-10c0-0.55-0.45-1-1-1zM10 4h2v2h-2v-2zM13 7v2h-2v-2h2zM7 4h2v2h-2v-2zM10 7v2h-2v-2h2zM4 4h2v2h-2v-2zM7 7v2h-2v-2h2zM2 4h1v2h-1v-2zM2 7h2v2h-2v-2zM3 12h-1v-2h1v2zM12 12h-8v-2h8v2zM16 12h-3v-2h3v2zM16 9h-2v-2h2v2zM16 6h-3v-2h3v2z" fill="#7b0b66" />
</g>
<g transform="translate(194 0)">
	<path d="M14 3h-12c-1.1 0-2 0.9-2 2v7c0 1.1 0.9 2 2 2h12c1.1 0 2-0.9 2-2v-7c0-1.1-0.9-2-2-2zM2 12c0-2.209 1.119-4 2.5-4-0.828 0-1.5-0.672-1.5-1.5s0.672-1.5 1.5-1.5 1.5 0.672 1.5 1.5-0.672 1.5-1.5 1.5 2.5 1.791 2.5 4h-5zM14 12h-5v-1h5v1zM14 9h-5v-1h5v1zM14 6h-5v-1h5v1z" fill="#7b0b66" />
</g>
<g transform="translate(226 0)">
	<path d="M0 14h9v2h-9zM14 2h-4.727l-2.871 11h-2.067l2.871-11h-4.205v-2h11zM14.528 16l-2.028-2.028-2.028 2.028-0.972-0.972 2.028-2.028-2.028-2.028 0.972-0.972 2.028 2.028 2.028-2.028 0.972 0.972-2.028 2.028 2.028 2.028z" fill="#7b0b66" />
</g>
<g transform="translate(258 0)">
	<path d="M15 4c0.552 0 1-0.448 1-1v-2h-2v-1h-13c-0.55 0-1 0.45-1 1v14c0 0.55 0.45 1 1 1h13v-4h1c0.552 0 1-0.448 1-1v-2h-2v-1h1c0.552 0 1-0.448 1-1v-2h-2v-1h1zM9 4.005c1.102 0 1.995 0.893 1.995 1.995s-0.893 1.995-1.995 1.995c-1.102 0-1.995-0.893-1.995-1.995s0.893-1.995 1.995-1.995zM4 15h-1v-14h1v14zM12 12h-6v-1c0-1.105 0.895-2 2-2v0h2c1.105 0 2 0.895 2 2v1z" fill="#7b0b66" />
</g>
<g transform="translate(290 0)">
	<path d="M6 10l2-1 7-7-1-1-7 7-1 2zM4.52 13.548c-0.494-1.043-1.026-1.574-2.069-2.069l1.548-4.262 2-1.217 6-6h-3l-6 6-3 10 10-3 6-6v-3l-6 6-1.217 2" fill="#7b0b66" />
</g>
<g transform="translate(322 0)">
	<path d="M8 0l-8 6v3l2-1.5v7.5c0 0.55 0.45 1 1 1h10c0.55 0 1-0.45 1-1v-7.5l2 1.5v-3l-8-6zM13 14.998c-0.001 0.001-0.001 0.001-0.002 0.002h-4.998v-5h-3v5h-1.998c-0.001-0.001-0.001-0.001-0.002-0.002v-8.248l5-3.75 5 3.75v8.248zM9 7h2v2h-2z" fill="#7b0b66" />
</g>
<g transform="translate(354 0)">
	<path d="M6 8h-5v-2h5v-2l3 3-3 3zM16 0v13l-6 3v-3h-6v-4h1v3h5v-9l4-2h-9v4h-1v-5z" fill="#7b0b66" />
</g>
<g transform="translate(386 0)">
	<path d="M12.5 6l3-2-3-2h-3.5v-1.25c0-0.412-0.338-0.75-0.75-0.75h-0.5c-0.412 0-0.75 0.338-0.75 0.75v1.25h-5v4h5v1h-4.5l-2 1.5 2 1.5h4.5v6h2v-6h4v-3h-4v-1h3.5z" fill="#7b0b66" />
</g>
<g transform="translate(418 0)">
	<path d="M7 12.414l-3.207-3.707 0.914-0.914 2.293 1.793 4.293-3.793 0.914 0.914zM12.996 2c0.001 0.001 0.003 0.002 0.004 0.004v11.993c-0.001 0.001-0.002 0.003-0.004 0.004h-9.993c-0.001-0.001-0.003-0.002-0.004-0.004v-11.993c0.001-0.001 0.002-0.003 0.004-0.004h-2.004v12c0 1.1 0.9 2 2 2h10c1.1 0 2-0.9 2-2v-12h-2.004zM10 2v-1c0-0.552-0.448-1-1-1h-2c-0.552 0-1 0.448-1 1v1h-2v2h8v-2h-2zM9 2h-2v-1h2v1z" fill="#7b0b66" />
</g>
<g transform="translate(450 0)">
	<path d="M7 2c-3.866 0-7 3.134-7 7s3.134 7 7 7 7-3.134 7-7h-7v-7zM9 0v7h7c0-3.866-3.134-7-7-7z" fill="#7b0b66" />
</g>
<g transform="translate(482 0)">
	<path d="M7.696 11.009l2.295 2.295-1.823 2.341c-0.334 0.437-0.926 0.476-1.315 0.087l-1.586-1.586c-0.389-0.389-0.35-0.98 0.087-1.315l2.341-1.823zM19.899 4.101l-2.399 2.399-3-3 2.399-2.399c-0.289-0.066-0.59-0.101-0.899-0.101-2.209 0-4 1.791-4 4 0 0.797 0.233 1.539 0.635 2.163l-2.233 1.739-3.402-3.402 4.5-4.5h-5l-2.22 2.22-0.22-0.22h-1.061v1.061l0.22 0.22-3.22 3.22 2.5 2.5 3-3 9 9 1.5-1.5-3.902-3.902 1.739-2.233c0.624 0.402 1.366 0.635 2.163 0.635 2.209 0 4-1.791 4-4 0-0.309-0.035-0.61-0.101-0.899z" fill="#7b0b66" />
</g>
<g transform="translate(0 32)">
	<path d="M11 9l2-2v8h-12v-12h8l-2 2h-4v8h8zM15 1v5.5l-2.043-2.043-5.543 5.543h-1.414v-1.414l5.543-5.543-2.043-2.043z" fill="#7b0b66" />
</g>
<g transform="translate(32 32)">
	<path d="M13.5 0h-12c-0.825 0-1.5 0.675-1.5 1.5v13c0 0.825 0.675 1.5 1.5 1.5h12c0.825 0 1.5-0.675 1.5-1.5v-13c0-0.825-0.675-1.5-1.5-1.5zM13 14h-11v-12h11v12zM4 9h7v1h-7zM4 11h7v1h-7zM5 4.5c0-0.828 0.672-1.5 1.5-1.5s1.5 0.672 1.5 1.5c0 0.828-0.672 1.5-1.5 1.5-0.828 0-1.5-0.672-1.5-1.5zM7.5 6h-2c-0.825 0-1.5 0.45-1.5 1v1h5v-1c0-0.55-0.675-1-1.5-1z" fill="#7b0b66" />
</g>
<g transform="translate(64 32)">
	<path d="M1 12h3v4h-3zM5 10h3v6h-3zM9 9h3v7h-3zM13 6h3v10h-3zM16 0v4.5l-1.72-1.72-5.28 5.28-3-3-3.939 3.939h-1.061v-1.061l5-5 3 3 4.22-4.22-1.72-1.72z" fill="#7b0b66" />
</g>
<g transform="translate(96 32)">
	<path d="M1 0v16h14v-16h-14zM14 15h-12v-14h12v14zM3 3h5v1h-5zM3 5h5v1h-5zM3 7h5v1h-5zM3 8.99h5v1h-5zM3 11h5v1h-5zM3 13h10v1h-10zM12 7v5l-1-1.5-1 1.5v-5zM13 3.414l-0.586 0.586 0.586 0.586v0.414h-1v1h-0.414l-0.586-0.586-0.586 0.586h-0.414v-1h-1v-0.414l0.586-0.586-0.586-0.586v-0.414h1v-1h0.414l0.586 0.586 0.586-0.586h0.414v1h1z" fill="#7b0b66" />
</g>
<g transform="translate(128 32)">
	<path d="M7 2v-0.25c0-0.413-0.338-0.75-0.75-0.75h-2.5c-0.413 0-0.75 0.337-0.75 0.75v0.25h-3v2h3v0.25c0 0.412 0.337 0.75 0.75 0.75h2.5c0.412 0 0.75-0.338 0.75-0.75v-0.25h9v-2h-9zM4 4v-2h2v2h-2zM13 6.75c0-0.412-0.338-0.75-0.75-0.75h-2.5c-0.412 0-0.75 0.338-0.75 0.75v0.25h-9v2h9v0.25c0 0.412 0.338 0.75 0.75 0.75h2.5c0.412 0 0.75-0.338 0.75-0.75v-0.25h3v-2h-3v-0.25zM10 9v-2h2v2h-2zM7 11.75c0-0.412-0.338-0.75-0.75-0.75h-2.5c-0.413 0-0.75 0.338-0.75 0.75v0.25h-3v2h3v0.25c0 0.412 0.337 0.75 0.75 0.75h2.5c0.412 0 0.75-0.338 0.75-0.75v-0.25h9v-2h-9v-0.25zM4 14v-2h2v2h-2z" fill="#7b0b66" />
</g>
<g transform="translate(160 32)">
	<path d="M15.692 7.254l-1.694-1.694c-1.304-1.305 0.365-1.201 1.335-2.070 0.005-0.004 0.010-0.009 0.014-0.013 0.022-0.021 0.045-0.041 0.066-0.063 0.781-0.781 0.781-2.047 0-2.828-0.781-0.781-2.047-0.781-2.828 0-0.022 0.022-0.043 0.044-0.063 0.066-0.004 0.005-0.009 0.010-0.013 0.014-0.87 0.969-0.765 2.639-2.071 1.334l-1.693-1.693c-0.41-0.41-1.081-0.41-1.492 0l-1.692 1.692c-0 0-0 0-0 0-1.306 1.306-1.202-0.364-2.071-1.333-0.004-0.005-0.009-0.010-0.013-0.014-0.021-0.022-0.041-0.045-0.063-0.066-0.781-0.781-2.047-0.781-2.828 0-0.781 0.781-0.781 2.047 0 2.828 0.022 0.022 0.044 0.043 0.066 0.063 0.005 0.004 0.010 0.009 0.014 0.013 0.97 0.87 2.64 0.765 1.333 2.071-0 0-0 0-0 0l-1.692 1.692c-0.41 0.41-0.41 1.081 0 1.492l1.692 1.692c0 0 0 0 0 0 1.306 1.306-0.364 1.202-1.333 2.071-0.005 0.004-0.010 0.009-0.014 0.013-0.022 0.021-0.045 0.041-0.066 0.063-0.781 0.781-0.781 2.047 0 2.828 0.781 0.781 2.047 0.781 2.828 0 0.022-0.022 0.043-0.044 0.063-0.066 0.004-0.005 0.009-0.010 0.013-0.014 0.87-0.969 0.765-2.639 2.071-1.334l1.693 1.693c0.41 0.41 1.081 0.41 1.492 0l1.966-1.966c0.783-1.007-0.701-0.983-1.592-1.783-0.005-0.004-0.010-0.009-0.014-0.013-0.023-0.021-0.045-0.041-0.066-0.063-0.781-0.781-0.781-2.047 0-2.828 0.781-0.781 2.047-0.781 2.828 0 0.022 0.022 0.043 0.044 0.063 0.066 0.004 0.005 0.009 0.010 0.013 0.014 0.8 0.892 0.776 2.376 1.783 1.592l1.966-1.966c0.41-0.41 0.41-1.081 0-1.492z" fill="#7b0b66" />
</g>
</svg>
