<?xml version="1.0" encoding="utf-8"?>
<!-- Generated by IcoMoon.io -->
<!DOCTYPE svg PUBLIC "-//W3C//DTD SVG 1.1//EN" "http://www.w3.org/Graphics/SVG/1.1/DTD/svg11.dtd">
<svg version="1.1" xmlns="http://www.w3.org/2000/svg" xmlns:xlink="http://www.w3.org/1999/xlink" width="48" height="48" viewBox="0 0 48 48">
	<path d="M45 12c1.657 0 3-1.343 3-3v-6h-6v-3h-39c-1.65 0-3 1.35-3 3v42c0 1.65 1.35 3 3 3h39v-12h3c1.657 0 3-1.343 3-3v-6h-6v-3h3c1.657 0 3-1.343 3-3v-6h-6v-3h3zM27 12.015c3.305 0 5.985 2.679 5.985 5.985s-2.679 5.985-5.985 5.985c-3.305 0-5.985-2.679-5.985-5.985s2.679-5.985 5.985-5.985zM12 45h-3v-42h3v42zM36 36h-18v-3c0-3.314 2.686-6 6-6v0h6c3.314 0 6 2.686 6 6v3z" fill="#7b0b66" />
</svg>
