<?xml version="1.0" encoding="utf-8"?>
<!-- Generated by IcoMoon.io -->
<!DOCTYPE svg PUBLIC "-//W3C//DTD SVG 1.1//EN" "http://www.w3.org/Graphics/SVG/1.1/DTD/svg11.dtd">
<svg version="1.1" xmlns="http://www.w3.org/2000/svg" xmlns:xlink="http://www.w3.org/1999/xlink" width="48" height="48" viewBox="0 0 48 48">
	<path d="M42 9h-36c-3.3 0-6 2.7-6 6v21c0 3.3 2.7 6 6 6h36c3.3 0 6-2.7 6-6v-21c0-3.3-2.7-6-6-6zM6 36c0-6.627 3.358-12 7.5-12-2.485 0-4.5-2.015-4.5-4.5s2.015-4.5 4.5-4.5 4.5 2.015 4.5 4.5-2.015 4.5-4.5 4.5 7.5 5.373 7.5 12h-15zM42 36h-15v-3h15v3zM42 27h-15v-3h15v3zM42 18h-15v-3h15v3z" fill="#7b0b66" />
</svg>
