<?xml version="1.0" encoding="UTF-8" standalone="no"?>
<svg width="764px" height="80px" viewBox="0 0 764 80" version="1.1" xmlns="http://www.w3.org/2000/svg" xmlns:xlink="http://www.w3.org/1999/xlink" xmlns:sketch="http://www.bohemiancoding.com/sketch/ns">
    <title>sprites2</title>
    <description>Created with Sketch (http://www.bohemiancoding.com/sketch)</description>
    <defs></defs>
    <g id="Page-1" stroke="none" stroke-width="1" fill="none" fill-rule="evenodd" sketch:type="MSPage">
        <g id="sprites" sketch:type="MSLayerGroup" fill="#01134B">
            <g id="Group" sketch:type="MSShapeGroup">
                <path d="M11.366,22.564 L12.657,20.757 L11.243,19.343 L9.436,20.634 C9.101,20.447 8.742,20.297 8.365,20.19 L8,18 L6,18 L5.635,20.19 C5.258,20.297 4.899,20.446 4.564,20.634 L2.757,19.343 L1.343,20.757 L2.634,22.564 C2.447,22.899 2.297,23.258 2.191,23.635 L0.001,24 L0.001,26 L2.191,26.365 C2.298,26.742 2.447,27.101 2.635,27.436 L1.344,29.243 L2.758,30.657 L4.565,29.366 C4.9,29.553 5.259,29.703 5.636,29.81 L6.001,32 L8.001,32 L8.366,29.81 C8.743,29.703 9.102,29.554 9.437,29.366 L11.244,30.657 L12.658,29.243 L11.367,27.436 C11.554,27.101 11.704,26.742 11.811,26.365 L14.001,26 L14.001,24 L11.811,23.635 C11.704,23.258 11.555,22.899 11.367,22.564 C11.367,22.564 11.555,22.899 11.367,22.564 L11.366,22.564 L11.366,22.564 Z M7,27 C5.895,27 5,26.105 5,25 C5,23.895 5.895,23 7,23 C8.105,23 9,23.895 9,25 C9,26.105 8.105,27 7,27 L7,27 L7,27 L7,27 Z M32,12 L32,10 L29.894,9.617 C29.855,9.366 29.806,9.118 29.746,8.874 L31.545,7.715 L30.78,5.867 L28.688,6.319 C28.556,6.103 28.415,5.893 28.266,5.69 L29.485,3.929 L28.071,2.515 L26.31,3.734 C26.107,3.585 25.897,3.444 25.681,3.312 L26.133,1.22 L24.285,0.455 L23.126,2.254 C22.882,2.195 22.634,2.145 22.383,2.106 L22,1.33226763e-15 L20,1.33226763e-15 L19.617,2.106 C19.366,2.145 19.118,2.194 18.874,2.254 L17.715,0.455 L15.867,1.22 L16.319,3.312 C16.103,3.444 15.893,3.585 15.69,3.734 L13.929,2.515 L12.515,3.929 L13.734,5.69 C13.585,5.893 13.444,6.103 13.312,6.319 L11.22,5.867 L10.455,7.715 L12.254,8.874 C12.195,9.118 12.145,9.366 12.106,9.617 L10,10 L10,12 L12.106,12.383 C12.145,12.634 12.194,12.882 12.254,13.126 L10.455,14.285 L11.22,16.133 L13.312,15.681 C13.444,15.897 13.585,16.107 13.734,16.31 L12.515,18.071 L13.929,19.485 L15.69,18.266 C15.893,18.415 16.103,18.556 16.319,18.688 L15.867,20.78 L17.715,21.545 L18.874,19.746 C19.118,19.805 19.366,19.855 19.617,19.894 L20,22 L22,22 L22.383,19.894 C22.634,19.855 22.882,19.806 23.126,19.746 L24.285,21.545 L26.133,20.78 L25.681,18.688 C25.897,18.556 26.107,18.415 26.31,18.266 L28.071,19.485 L29.485,18.071 L28.266,16.31 C28.415,16.107 28.556,15.897 28.688,15.681 L30.78,16.133 L31.545,14.285 L29.746,13.126 C29.805,12.882 29.855,12.634 29.894,12.383 L32,12 L32,12 L32,12 L32,12 Z M21,15.35 C18.598,15.35 16.65,13.402 16.65,11 C16.65,8.598 18.598,6.65 21,6.65 C23.402,6.65 25.35,8.598 25.35,11 C25.35,13.402 23.402,15.35 21,15.35 L21,15.35 L21,15.35 L21,15.35 Z M21,15.35" id="Shape"></path>
            </g>
            <g id="Group" transform="translate(48.000000, 4.000000)" sketch:type="MSShapeGroup">
                <path d="M4,4 L4,24 L32,24 L32,4 L4,4 L4,4 L4,4 L4,4 Z M30,20.667 L26,14 L21.467,17.778 L18,12 L6,22 L6,6 L30,6 L30,20.667 L30,20.667 L30,20.667 L30,20.667 Z M8,11 C8,9.343 9.343,8 11,8 C12.657,8 14,9.343 14,11 C14,12.657 12.657,14 11,14 C9.343,14 8,12.657 8,11 C8,11 8,12.657 8,11 L8,11 L8,11 Z M28,0 L0,0 L0,20 L2,20 L2,2 L28,2 L28,2 L28,0 L28,0 Z M28,0" id="Shape"></path>
            </g>
            <g id="Group" transform="translate(96.000000, 0.000000)" sketch:type="MSShapeGroup">
                <path d="M16,0 C7.163,0 0,7.163 0,16 C0,24.837 7.163,32 16,32 C24.837,32 32,24.837 32,16 C32,7.163 24.837,0 16,0 L16,0 L16,0 L16,0 Z M10,16 C10,12.686 12.686,10 16,10 C19.314,10 22,12.686 22,16 C22,19.314 19.314,22 16,22 C12.686,22 10,19.314 10,16 C10,16 10,19.314 10,16 L10,16 L10,16 Z M28.937,21.359 L28.937,21.359 L23.393,19.062 C23.784,18.119 24.001,17.085 24.001,16 C24.001,14.915 23.785,13.881 23.393,12.938 L28.937,10.641 C29.622,12.292 30,14.101 30,16 C30,17.899 29.621,19.708 28.937,21.359 L28.937,21.359 L28.937,21.359 L28.937,21.359 L28.937,21.359 Z M21.359,3.063 L21.359,3.063 L19.062,8.607 C18.119,8.216 17.085,8 16,8 C14.915,8 13.881,8.216 12.938,8.607 L10.641,3.063 C12.292,2.379 14.101,2 16,2 C17.898,2 19.708,2.379 21.359,3.063 C21.359,3.063 19.708,2.379 21.359,3.063 L21.359,3.063 L21.359,3.063 Z M3.063,10.641 L8.607,12.938 C8.216,13.881 7.999,14.915 7.999,16 C7.999,17.085 8.215,18.119 8.606,19.062 L3.062,21.359 C2.377,19.708 1.999,17.899 1.999,16 C1.999,14.101 2.378,12.292 3.062,10.641 C3.062,10.641 2.378,12.292 3.062,10.641 L3.063,10.641 L3.063,10.641 Z M10.641,28.937 L12.938,23.393 C13.881,23.784 14.915,24.001 16,24.001 C17.085,24.001 18.119,23.785 19.062,23.393 L21.359,28.937 C19.708,29.621 17.899,30 16,30 C14.102,30 12.292,29.621 10.641,28.937 C10.641,28.937 12.292,29.621 10.641,28.937 L10.641,28.937 L10.641,28.937 Z M10.641,28.937" id="Shape"></path>
            </g>
            <g id="Group" transform="translate(143.000000, 0.000000)" sketch:type="MSShapeGroup">
                <path d="M33,7 C33,6.112 32.686,4.789 31.19,3.526 C30.301,2.776 29.084,2.121 27.572,1.581 C24.717,0.561 20.963,-2.22044605e-16 17,-2.22044605e-16 C13.037,-2.22044605e-16 9.282,0.561 6.428,1.581 C4.916,2.121 3.699,2.775 2.81,3.526 C1.314,4.789 1,6.113 1,7 L0.995,7 L0.995,25 L1,25 C1,25.888 1.314,27.211 2.81,28.474 C3.699,29.224 4.916,29.879 6.428,30.419 C9.283,31.439 13.037,32 17,32 C20.963,32 24.718,31.439 27.572,30.419 C29.084,29.879 30.301,29.225 31.19,28.474 C32.686,27.211 33,25.887 33,25 L33,7 L33,7 L33,7 L33,7 Z M8.224,5.195 C10.608,4.425 13.724,4 17,4 C20.275,4 23.392,4.424 25.776,5.195 C28.106,5.948 28.867,6.757 28.989,7 C28.867,7.243 28.105,8.052 25.776,8.805 C23.392,9.575 20.276,10 17,10 C13.725,10 10.608,9.576 8.224,8.805 C5.894,8.052 5.133,7.243 5.011,7 C5.133,6.757 5.895,5.948 8.224,5.195 C8.224,5.195 5.895,5.948 8.224,5.195 L8.224,5.195 L8.224,5.195 Z M25.776,26.805 C23.392,27.575 20.276,28 17,28 C13.724,28 10.608,27.576 8.224,26.805 C5.894,26.052 5.133,25.243 5.011,25 L5.006,25 L5.006,20.836 C5.446,21.043 5.92,21.237 6.428,21.419 C9.283,22.439 13.037,23 17,23 C20.963,23 24.717,22.439 27.572,21.419 C28.078,21.238 28.55,21.044 28.989,20.839 L28.989,25 C28.867,25.243 28.105,26.052 25.776,26.805 C25.776,26.805 28.105,26.052 25.776,26.805 L25.776,26.805 L25.776,26.805 Z M25.776,17.805 C23.392,18.575 20.276,19 17,19 C13.724,19 10.608,18.576 8.224,17.805 C5.894,17.052 5.133,16.243 5.011,16 L5.006,16 L5.006,11.836 C5.446,12.043 5.92,12.237 6.428,12.419 C9.283,13.439 13.037,14 17,14 C20.963,14 24.717,13.439 27.572,12.419 C28.078,12.238 28.55,12.044 28.989,11.839 L28.989,16 C28.867,16.243 28.105,17.052 25.776,17.805 C25.776,17.805 28.105,17.052 25.776,17.805 L25.776,17.805 L25.776,17.805 Z M25.776,17.805" id="Shape"></path>
            </g>
            <g id="Group" transform="translate(192.000000, 4.000000)" sketch:type="MSShapeGroup">
                <path d="M28,4 L28,0 L0,0 L0,22 C0,23.105 0.895,24 2,24 L29,24 C30.657,24 32,22.657 32,21 L32,4 L28,4 L28,4 L28,4 L28,4 Z M26,22 L2,22 L2,2 L26,2 L26,22 L26,22 L26,22 L26,22 Z M4,6 L24,6 L24,8 L4,8 L4,8 L4,6 L4,6 Z M16,10 L24,10 L24,12 L16,12 L16,12 L16,10 L16,10 Z M16,14 L24,14 L24,16 L16,16 L16,16 L16,14 L16,14 Z M16,18 L22,18 L22,20 L16,20 L16,20 L16,18 L16,18 Z M4,10 L14,10 L14,20 L4,20 L4,20 L4,10 L4,10 Z M4,10" id="Shape"></path>
            </g>
            <g id="Group" transform="translate(240.000000, 4.000000)" sketch:type="MSShapeGroup">
                <path d="M34,0 L2,0 C0.9,0 0,0.9 0,2 L0,22 C0,23.1 0.9,24 2,24 L34,24 C35.1,24 36,23.1 36,22 L36,2 C36,0.9 35.1,0 34,0 L34,0 L34,0 L34,0 Z M20,4 L24,4 L24,8 L20,8 L20,4 L20,4 L20,4 L20,4 Z M26,10 L26,14 L22,14 L22,10 L26,10 L26,10 L26,10 L26,10 Z M14,4 L18,4 L18,8 L14,8 L14,4 L14,4 L14,4 L14,4 Z M20,10 L20,14 L16,14 L16,10 L20,10 L20,10 L20,10 L20,10 Z M8,4 L12,4 L12,8 L8,8 L8,4 L8,4 L8,4 L8,4 Z M14,10 L14,14 L10,14 L10,10 L14,10 L14,10 L14,10 L14,10 Z M4,4 L6,4 L6,8 L4,8 L4,4 L4,4 L4,4 L4,4 Z M4,10 L8,10 L8,14 L4,14 L4,10 L4,10 L4,10 L4,10 Z M6,20 L4,20 L4,16 L6,16 L6,20 L6,20 L6,20 L6,20 Z M24,20 L8,20 L8,16 L24,16 L24,20 L24,20 L24,20 L24,20 Z M32,20 L26,20 L26,16 L32,16 L32,20 L32,20 L32,20 L32,20 Z M32,14 L28,14 L28,10 L32,10 L32,14 L32,14 L32,14 L32,14 Z M32,8 L26,8 L26,4 L32,4 L32,8 L32,8 L32,8 L32,8 Z M32,8" id="Shape"></path>
            </g>
            <g id="Group" transform="translate(292.000000, 6.000000)" sketch:type="MSShapeGroup">
                <path d="M28,0 L4,0 C1.8,0 0,1.8 0,4 L0,18 C0,20.2 1.8,22 4,22 L28,22 C30.2,22 32,20.2 32,18 L32,4 C32,1.8 30.2,0 28,0 L28,0 L28,0 L28,0 Z M4,18 C4,13.582 6.239,10 9,10 C7.343,10 6,8.657 6,7 C6,5.343 7.343,4 9,4 C10.657,4 12,5.343 12,7 C12,8.657 10.657,10 9,10 C7.343,10 14,13.582 14,18 L4,18 L4,18 L4,18 L4,18 Z M28,18 L18,18 L18,16 L28,16 L28,18 L28,18 L28,18 L28,18 Z M28,12 L18,12 L18,10 L28,10 L28,12 L28,12 L28,12 L28,12 Z M28,6 L18,6 L18,4 L28,4 L28,6 L28,6 L28,6 L28,6 Z M28,6" id="Shape"></path>
            </g>
            <g id="Group" transform="translate(340.000000, 0.000000)" sketch:type="MSShapeGroup">
                <path d="M0,28 L18,28 L18,32 L0,32 L0,32 L0,28 L0,28 Z M28,4 L18.545,4 L12.802,26 L8.668,26 L14.411,4 L6,4 L6,0 L28,0 L28,0 L28,4 L28,4 Z M29.055,32 L25,27.945 L20.945,32 L19,30.055 L23.055,26 L19,21.945 L20.945,20 L25,24.055 L29.055,20 L31,21.945 L26.945,26 L31,30.055 L31,30.055 L29.055,32 L29.055,32 Z M29.055,32" id="Shape"></path>
            </g>
            <g id="Group" transform="translate(388.000000, 0.000000)" sketch:type="MSShapeGroup">
                <path d="M30,8 C31.105,8 32,7.105 32,6 L32,2 L28,2 L28,0 L2,0 C0.9,0 0,0.9 0,2 L0,30 C0,31.1 0.9,32 2,32 L28,32 L28,24 L30,24 C31.105,24 32,23.105 32,22 L32,18 L28,18 L28,16 L30,16 C31.105,16 32,15.105 32,14 L32,10 L28,10 L28,8 L30,8 L30,8 L30,8 L30,8 Z M18,8.01 C20.203,8.01 21.99,9.796 21.99,12 C21.99,14.204 20.204,15.99 18,15.99 C15.797,15.99 14.01,14.204 14.01,12 C14.01,9.796 15.796,8.01 18,8.01 C18,8.01 15.796,8.01 18,8.01 L18,8.01 L18,8.01 Z M8,30 L6,30 L6,2 L8,2 L8,30 L8,30 L8,30 L8,30 Z M24,24 L12,24 L12,22 C12,19.791 13.791,18 16,18 L16,18 L20,18 C22.209,18 24,19.791 24,22 L24,24 L24,24 L24,24 L24,24 Z M24,24" id="Shape"></path>
            </g>
            <g id="Group" transform="translate(436.000000, 0.000000)" sketch:type="MSShapeGroup">
                <path d="M12,20 L16,18 L30,4 L28,2 L14,16 L12,20 L12,20 L12,20 L12,20 Z M9.041,27.097 C8.052,25.012 6.989,23.948 4.904,22.96 L8.001,14.435 L12.001,12 L24.001,0 L18.001,0 L6.001,12 L0.001,32 L20.001,26 L32.001,14 L32.001,8 L20.001,20 L17.566,24 L9.041,27.097 Z M9.041,27.097" id="Shape"></path>
            </g>
            <g id="Group" transform="translate(484.000000, 0.000000)" sketch:type="MSShapeGroup">
                <path d="M16,0 L0,12 L0,18 L4,15 L4,30 C4,31.1 4.9,32 6,32 L26,32 C27.1,32 28,31.1 28,30 L28,15 L32,18 L32,12 L16,0 L16,0 L16,0 L16,0 Z M26,29.996 C25.999,29.997 25.998,29.999 25.996,30 L16,30 L16,20 L10,20 L10,30 L6.004,30 C6.003,29.999 6.001,29.998 6,29.996 L6,13.5 L16,6 L26,13.5 L26,29.996 L26,29.996 L26,29.996 L26,29.996 Z M18,14 L22,14 L22,18 L18,18 L18,18 L18,14 L18,14 Z M18,14" id="Shape"></path>
            </g>
            <g id="Group" transform="translate(534.000000, 0.000000)" sketch:type="MSShapeGroup">
                <path d="M10,16 L0,16 L0,12 L10,12 L10,8 L16,14 L10,20 L10,20 L10,16 L10,16 Z M30,0 L30,26 L18,32 L18,26 L6,26 L6,18 L8,18 L8,24 L18,24 L18,6 L26,2 L8,2 L8,10 L6,10 L6,0 L6,0 L30,0 L30,0 Z M30,0" id="Shape"></path>
            </g>
            <g id="Group" transform="translate(581.000000, 0.000000)" sketch:type="MSShapeGroup">
                <path d="M24,12 L30,8 L24,4 L17,4 L17,1.5 C17,0.675 16.325,0 15.5,0 L14.5,0 C13.675,0 13,0.675 13,1.5 L13,4 L3,4 L3,12 L13,12 L13,14 L4,14 L0,17 L4,20 L13,20 L13,32 L17,32 L17,20 L25,20 L25,14 L17,14 L17,12 L24,12 L24,12 L24,12 L24,12 Z M24,12" id="Shape"></path>
            </g>
            <g id="Group" transform="translate(629.000000, 0.000000)" sketch:type="MSShapeGroup">
                <path d="M13,24.828 L6.586,17.414 L8.414,15.586 L13,19.172 L21.586,11.586 L23.415,13.414 L23.415,13.414 L13,24.828 L13,24.828 Z M24.993,4 L25,4.007 L25,27.993 L24.993,28 L5.007,28 C5.004,27.998 5.002,27.995 5,27.993 L5,4.007 C5.002,4.004 5.005,4.002 5.007,4 L1,4 L1,28 C1,30.2 2.8,32 5,32 L25,32 C27.2,32 29,30.2 29,28 L29,4 L24.993,4 L24.993,4 L24.993,4 L24.993,4 Z M19,4 L19,2 C19,0.895 18.105,0 17,0 L13,0 C11.895,0 11,0.895 11,2 L11,4 L7,4 L7,8 L23,8 L23,4 L19,4 L19,4 L19,4 L19,4 Z M17,4 L13,4 L13,2 L17,2 L17,4 L17,4 L17,4 L17,4 Z M17,4" id="Shape"></path>
            </g>
            <g id="Group" transform="translate(676.000000, 0.000000)" sketch:type="MSShapeGroup">
                <path d="M14,4 C6.268,4 0,10.268 0,18 C0,25.732 6.268,32 14,32 C21.732,32 28,25.732 28,18 L14,18 L14,4 L14,4 L14,4 L14,4 Z M18,0 L18,14 L32,14 C32,6.268 25.732,0 18,0 L18,0 L18,0 L18,0 Z M18,0" id="Shape"></path>
            </g>
            <g id="Group" transform="translate(724.000000, 2.000000)" sketch:type="MSShapeGroup">
                <path d="M15.392,20.017 L19.982,24.607 L16.336,29.289 C15.668,30.163 14.485,30.241 13.707,29.464 L10.535,26.292 C9.757,25.514 9.836,24.331 10.71,23.663 L15.392,20.017 L15.392,20.017 L15.392,20.017 L15.392,20.017 Z M39.797,6.203 L35,11 L29,5 L33.797,0.203 C33.219,0.07 32.618,-1.33226763e-15 32,-1.33226763e-15 C27.582,-1.33226763e-15 24,3.582 24,8 C24,9.594 24.466,11.078 25.269,12.325 L20.803,15.803 L14,9 L23,-1.77635684e-15 L13,-1.77635684e-15 L8.561,4.439 L8.122,4 L6.001,4 L6.001,6.121 L6.44,6.56 L0.001,12.999 L5.001,17.999 L11.001,11.999 L29.001,29.999 L32.001,26.999 L24.198,19.196 L27.676,14.73 C28.923,15.533 30.408,15.999 32.001,15.999 C36.419,15.999 40.001,12.417 40.001,7.999 C40.001,7.381 39.931,6.779 39.798,6.202 C39.798,6.202 39.931,6.779 39.798,6.202 L39.797,6.203 L39.797,6.203 Z M39.797,6.203" id="Shape"></path>
            </g>
            <g id="Group" transform="translate(2.000000, 50.000000)" sketch:type="MSShapeGroup">
                <path d="M20,16 L24,12 L24,28 L0,28 L0,4 L16,4 L12,8 L4,8 L4,24 L20,24 L20,24 L20,16 L20,16 Z M28,0 L28,11 L23.914,6.914 L12.828,18 L10,18 L10,15.172 L21.086,4.086 L17,0 L17,0 L28,0 L28,0 Z M28,0" id="Shape"></path>
            </g>
            <g id="Group" transform="translate(48.000000, 48.000000)" sketch:type="MSShapeGroup">
                <path d="M27,0 L3,0 C1.35,0 0,1.35 0,3 L0,29 C0,30.65 1.35,32 3,32 L27,32 C28.65,32 30,30.65 30,29 L30,3 C30,1.35 28.65,0 27,0 L27,0 L27,0 L27,0 Z M26,28 L4,28 L4,4 L26,4 L26,28 L26,28 L26,28 L26,28 Z M8,18 L22,18 L22,20 L8,20 L8,20 L8,18 L8,18 Z M8,22 L22,22 L22,24 L8,24 L8,24 L8,22 L8,22 Z M10,9 C10,7.343 11.343,6 13,6 C14.657,6 16,7.343 16,9 C16,10.657 14.657,12 13,12 C11.343,12 10,10.657 10,9 C10,9 10,10.657 10,9 L10,9 L10,9 Z M15,12 L11,12 C9.35,12 8,12.9 8,14 L8,16 L18,16 L18,14 C18,12.9 16.65,12 15,12 L15,12 L15,12 L15,12 Z M15,12" id="Shape"></path>
            </g>
            <g id="Group" transform="translate(98.000000, 48.000000)" sketch:type="MSShapeGroup">
                <path d="M0,24 L6,24 L6,32 L0,32 L0,32 L0,24 L0,24 Z M8,20 L14,20 L14,32 L8,32 L8,32 L8,20 L8,20 Z M16,18 L22,18 L22,32 L16,32 L16,32 L16,18 L16,18 Z M24,12 L30,12 L30,32 L24,32 L24,32 L24,12 L24,12 Z M30,0 L30,9 L26.561,5.561 L16,16.122 L10,10.122 L2.121,18.001 L0,18.001 L0,15.88 L10,5.88 L16,11.88 L24.439,3.441 L21,0.002 L21,0.002 L30,0 L30,0 Z M30,0" id="Shape"></path>
            </g>
            <g id="Group" transform="translate(146.000000, 48.000000)" sketch:type="MSShapeGroup">
                <path d="M0,0 L0,32 L28,32 L28,0 L0,0 L0,0 L0,0 L0,0 Z M26,30 L2,30 L2,2 L26,2 L26,30 L26,30 L26,30 L26,30 Z M4,6 L14,6 L14,8 L4,8 L4,8 L4,6 L4,6 Z M4,10 L14,10 L14,12 L4,12 L4,12 L4,10 L4,10 Z M4,14 L14,14 L14,16 L4,16 L4,16 L4,14 L4,14 Z M4,17.98 L14,17.98 L14,19.98 L4,19.98 L4,19.98 L4,17.98 L4,17.98 Z M4,22 L14,22 L14,24 L4,24 L4,24 L4,22 L4,22 Z M4,26 L24,26 L24,28 L4,28 L4,28 L4,26 L4,26 Z M22,14 L22,24 L20,21 L18,24 L18,14 L18,14 L22,14 L22,14 Z M24,6.828 L22.828,8 L24,9.172 L24,10 L22,10 L22,12 L21.172,12 L20,10.828 L18.828,12 L18,12 L18,10 L16,10 L16,9.172 L17.172,8 L16,6.828 L16,6 L18,6 L18,4 L18.828,4 L20,5.172 L21.172,4 L22,4 L22,6 L24,6 L24,6 L24,6.828 L24,6.828 Z M24,6.828" id="Shape"></path>
            </g>
            <g id="Group" transform="translate(192.000000, 50.000000)" sketch:type="MSShapeGroup">
                <path d="M14,2 L14,1.5 C14,0.675 13.325,0 12.5,0 L7.5,0 C6.675,0 6,0.675 6,1.5 L6,2 L0,2 L0,6 L6,6 L6,6.5 C6,7.325 6.675,8 7.5,8 L12.5,8 C13.325,8 14,7.325 14,6.5 L14,6 L32,6 L32,2 L14,2 L14,2 L14,2 L14,2 Z M8,6 L8,2 L12,2 L12,6 L8,6 L8,6 L8,6 L8,6 Z M26,11.5 C26,10.675 25.325,10 24.5,10 L19.5,10 C18.675,10 18,10.675 18,11.5 L18,12 L0,12 L0,16 L18,16 L18,16.5 C18,17.325 18.675,18 19.5,18 L24.5,18 C25.325,18 26,17.325 26,16.5 L26,16 L32,16 L32,12 L26,12 L26,11.5 L26,11.5 L26,11.5 L26,11.5 Z M20,16 L20,12 L24,12 L24,16 L20,16 L20,16 L20,16 L20,16 Z M14,21.5 C14,20.675 13.325,20 12.5,20 L7.5,20 C6.675,20 6,20.675 6,21.5 L6,22 L0,22 L0,26 L6,26 L6,26.5 C6,27.325 6.675,28 7.5,28 L12.5,28 C13.325,28 14,27.325 14,26.5 L14,26 L32,26 L32,22 L14,22 L14,21.5 L14,21.5 L14,21.5 L14,21.5 Z M8,26 L8,22 L12,22 L12,26 L8,26 L8,26 L8,26 L8,26 Z M8,26" id="Shape"></path>
            </g>
            <g id="Group" transform="translate(240.000000, 48.000000)" sketch:type="MSShapeGroup">
                <path d="M31.385,14.508 L27.998,11.121 C25.39,8.511 28.729,8.719 30.667,6.981 C30.677,6.972 30.686,6.963 30.696,6.955 C30.741,6.914 30.785,6.872 30.829,6.829 C32.391,5.267 32.391,2.734 30.829,1.172 C29.267,-0.39 26.734,-0.39 25.172,1.172 C25.129,1.215 25.087,1.26 25.046,1.305 C25.037,1.315 25.028,1.324 25.02,1.334 C23.281,3.273 23.49,6.613 20.878,4.002 L17.493,0.617 C16.673,-0.203 15.33,-0.203 14.51,0.617 L11.126,4.001 L11.125,4.002 C8.512,6.615 8.722,3.274 6.982,1.335 C6.973,1.325 6.964,1.316 6.956,1.306 C6.915,1.261 6.873,1.217 6.83,1.173 C5.268,-0.389 2.735,-0.389 1.173,1.173 C-0.389,2.735 -0.389,5.268 1.173,6.83 C1.216,6.873 1.261,6.915 1.306,6.956 C1.316,6.965 1.325,6.974 1.335,6.982 C3.274,8.721 6.615,8.512 4.002,11.125 L4.001,11.126 L0.617,14.51 C-0.203,15.33 -0.203,16.673 0.617,17.493 L4.001,20.877 L4.001,20.877 C6.614,23.49 3.273,23.28 1.334,25.02 C1.324,25.029 1.315,25.038 1.305,25.046 C1.26,25.087 1.216,25.129 1.172,25.172 C-0.39,26.734 -0.39,29.267 1.172,30.829 C2.734,32.391 5.267,32.391 6.829,30.829 C6.872,30.786 6.914,30.741 6.955,30.696 C6.964,30.686 6.973,30.677 6.981,30.667 C8.72,28.728 8.511,25.388 11.123,27.999 L14.509,31.385 C15.329,32.205 16.672,32.205 17.492,31.385 L21.424,27.453 C22.991,25.439 20.023,25.487 18.239,23.888 C18.229,23.879 18.22,23.871 18.21,23.862 C18.165,23.821 18.121,23.779 18.077,23.736 C16.515,22.174 16.515,19.641 18.077,18.079 C19.639,16.517 22.172,16.517 23.734,18.079 C23.777,18.122 23.819,18.167 23.86,18.212 C23.869,18.222 23.878,18.231 23.886,18.241 C25.486,20.024 25.437,22.992 27.451,21.426 L31.383,17.494 C32.203,16.674 32.203,15.331 31.383,14.511 C31.383,14.511 32.203,15.331 31.383,14.511 L31.385,14.508 L31.385,14.508 Z M31.385,14.508" id="Shape"></path>
            </g>
        </g>
    </g>
</svg>