<?xml version="1.0" encoding="utf-8"?>
<!-- Generated by IcoMoon.io -->
<!DOCTYPE svg PUBLIC "-//W3C//DTD SVG 1.1//EN" "http://www.w3.org/Graphics/SVG/1.1/DTD/svg11.dtd">
<svg version="1.1" xmlns="http://www.w3.org/2000/svg" xmlns:xlink="http://www.w3.org/1999/xlink" width="48" height="48" viewBox="0 0 48 48">
	<path d="M3 0v48h42v-48h-42zM42 45h-36v-42h36v42zM9 9h15v3h-15zM9 15h15v3h-15zM9 21h15v3h-15zM9 26.97h15v3h-15zM9 33h15v3h-15zM9 39h30v3h-30zM36 21v15l-3-4.5-3 4.5v-15zM39 10.243l-1.757 1.757 1.757 1.757v1.243h-3v3h-1.243l-1.757-1.757-1.757 1.757h-1.243v-3h-3v-1.243l1.757-1.757-1.757-1.757v-1.243h3v-3h1.243l1.757 1.757 1.757-1.757h1.243v3h3z" fill="#1134b" />
</svg>
