<?xml version="1.0" encoding="utf-8"?>
<!-- Generated by IcoMoon.io -->
<!DOCTYPE svg PUBLIC "-//W3C//DTD SVG 1.1//EN" "http://www.w3.org/Graphics/SVG/1.1/DTD/svg11.dtd">
<svg version="1.1" xmlns="http://www.w3.org/2000/svg" xmlns:xlink="http://www.w3.org/1999/xlink" width="48" height="48" viewBox="0 0 48 48">
	<path d="M47.077 21.762l-5.081-5.081c-3.912-3.915 1.096-3.602 4.004-6.21 0.015-0.013 0.029-0.026 0.043-0.040 0.067-0.062 0.134-0.124 0.199-0.189 2.343-2.343 2.343-6.142 0-8.485-2.343-2.343-6.142-2.343-8.485 0-0.065 0.065-0.128 0.132-0.189 0.199-0.013 0.014-0.026 0.029-0.040 0.043-2.609 2.908-2.295 7.918-6.213 4.001l-5.078-5.078c-1.231-1.231-3.244-1.231-4.475 0l-5.076 5.076c-0 0-0.001 0.001-0.001 0.001-3.919 3.919-3.605-1.092-6.214-4-0.013-0.015-0.026-0.029-0.040-0.043-0.062-0.067-0.124-0.134-0.189-0.199-2.343-2.343-6.142-2.343-8.485 0-2.343 2.343-2.343 6.142 0 8.485 0.065 0.065 0.132 0.128 0.199 0.189 0.014 0.013 0.029 0.026 0.043 0.040 2.909 2.609 7.919 2.295 4 6.214-0 0-0.001 0.001-0.001 0.001l-5.076 5.076c-1.231 1.231-1.231 3.244 0 4.475l5.077 5.077c0 0 0 0 0 0 3.919 3.919-1.092 3.605-4 6.214-0.015 0.013-0.029 0.026-0.043 0.040-0.067 0.062-0.134 0.124-0.199 0.189-2.343 2.343-2.343 6.142 0 8.485 2.343 2.343 6.142 2.343 8.485 0 0.065-0.065 0.128-0.132 0.189-0.199 0.013-0.014 0.026-0.029 0.040-0.043 2.609-2.908 2.295-7.918 6.213-4.002l5.078 5.078c1.231 1.23 3.244 1.23 4.475 0l5.898-5.898c2.35-3.021-2.102-2.949-4.777-5.348-0.014-0.013-0.029-0.026-0.043-0.040-0.068-0.062-0.134-0.124-0.199-0.189-2.343-2.343-2.343-6.142 0-8.485 2.343-2.343 6.142-2.343 8.485 0 0.065 0.065 0.128 0.132 0.189 0.199 0.013 0.014 0.026 0.029 0.040 0.043 2.399 2.675 2.327 7.127 5.348 4.777l5.898-5.898c1.231-1.231 1.231-3.244 0-4.475z" fill="#1134b" />
</svg>
