<?xml version="1.0" encoding="utf-8"?>
<!-- Generated by IcoMoon.io -->
<!DOCTYPE svg PUBLIC "-//W3C//DTD SVG 1.1//EN" "http://www.w3.org/Graphics/SVG/1.1/DTD/svg11.dtd">
<svg version="1.1" xmlns="http://www.w3.org/2000/svg" xmlns:xlink="http://www.w3.org/1999/xlink" width="60" height="48" viewBox="0 0 60 48">
	<path d="M23.089 33.026l6.885 6.885-5.469 7.023c-1.002 1.311-2.777 1.428-3.944 0.262l-4.757-4.757c-1.167-1.167-1.049-2.941 0.262-3.944l7.023-5.469zM59.696 12.304l-7.196 7.196-9-9 7.196-7.196c-0.867-0.199-1.769-0.304-2.696-0.304-6.627 0-12 5.373-12 12 0 2.39 0.699 4.617 1.904 6.488l-6.699 5.217-10.205-10.205 13.5-13.5h-15l-6.659 6.659-0.659-0.659h-3.182v3.182l0.659 0.659-9.659 9.659 7.5 7.5 9-9 27 27 4.5-4.5-11.705-11.705 5.217-6.699c1.871 1.205 4.098 1.904 6.488 1.904 6.627 0 12-5.373 12-12 0-0.927-0.105-1.829-0.304-2.696z" fill="#1134b" />
</svg>
